<svg width="193.051" height="18.098" viewBox="0 0 193.051 18.098" xmlns="http://www.w3.org/2000/svg">
<g id="svgGroup" stroke-linecap="round" fill-rule="evenodd" font-size="9pt" stroke="#000" stroke-width="0.25mm" fill="none" style="stroke:#000;stroke-width:0.25mm;fill:none">
<path d="M 17.712 3.168 L 11.088 16.608 Q 10.824 17.136 10.284 17.46 A 2.141 2.141 0 0 1 9.168 17.784 L 8.928 17.784 Q 8.328 17.784 7.788 17.46 Q 7.248 17.136 6.984 16.608 L 0.36 3.168 Q 0 2.4 0 2.016 Q 0 1.176 1.416 0.48 Q 2.208 0.072 2.628 0.072 Q 3.048 0.072 3.264 0.168 Q 3.48 0.264 3.672 0.504 Q 3.888 0.792 4.068 1.14 Q 4.248 1.488 4.992 3.132 Q 5.736 4.776 6.588 6.624 Q 7.44 8.472 8.196 10.116 Q 8.952 11.76 9.048 11.952 L 13.848 1.44 Q 14.04 0.984 14.184 0.72 Q 14.616 0.072 15.24 0.072 Q 15.864 0.072 16.656 0.48 Q 18.072 1.176 18.072 2.016 Q 18.072 2.4 17.712 3.168 Z" id="0" vector-effect="non-scaling-stroke"/>
<path d="M 26.688 0 Q 30.24 0 32.856 2.568 Q 35.472 5.136 35.472 8.94 Q 35.472 12.744 32.976 15.42 Q 30.48 18.096 26.832 18.096 Q 23.184 18.096 20.628 15.456 Q 18.072 12.816 18.072 9.168 Q 18.072 7.176 18.792 5.436 Q 19.512 3.696 20.712 2.52 Q 21.912 1.344 23.472 0.672 Q 25.032 0 26.688 0 Z M 22.32 9.048 Q 22.32 11.184 23.7 12.516 Q 25.08 13.848 26.784 13.848 Q 28.488 13.848 29.856 12.552 Q 31.224 11.256 31.224 9.072 Q 31.224 6.888 29.844 5.568 Q 28.464 4.248 26.76 4.248 Q 25.056 4.248 23.688 5.58 Q 22.32 6.912 22.32 9.048 Z" id="1" vector-effect="non-scaling-stroke"/>
<path d="M 37.032 15.672 L 37.032 2.328 Q 37.032 1.776 37.068 1.5 Q 37.104 1.224 37.296 0.864 Q 37.632 0.216 39.168 0.216 Q 40.848 0.216 41.16 1.104 Q 41.28 1.512 41.28 2.352 L 41.28 15.696 Q 41.28 16.272 41.244 16.536 Q 41.208 16.8 41.016 17.16 Q 40.68 17.808 39.144 17.808 Q 37.464 17.808 37.176 16.896 Q 37.032 16.512 37.032 15.672 Z" id="2" vector-effect="non-scaling-stroke"/>
<path d="M 45.336 0.192 L 49.776 0.216 Q 53.256 0.216 55.896 2.724 Q 58.536 5.232 58.536 8.892 Q 58.536 12.552 55.956 15.168 Q 53.376 17.784 49.704 17.784 L 45.312 17.784 Q 43.848 17.784 43.488 17.184 Q 43.2 16.68 43.2 15.648 L 43.2 2.304 Q 43.2 1.728 43.236 1.464 Q 43.272 1.2 43.464 0.84 Q 43.8 0.192 45.336 0.192 Z M 49.752 4.464 L 47.448 4.464 L 47.448 13.536 L 49.776 13.536 Q 51.504 13.536 52.896 12.252 Q 54.288 10.968 54.288 9.024 Q 54.288 7.08 52.932 5.772 Q 51.576 4.464 49.752 4.464 Z" id="3" vector-effect="non-scaling-stroke"/>
<path d="M 59.808 0.192 L 73.152 0.192 Q 73.92 0.192 74.28 0.372 Q 74.64 0.552 74.76 0.936 Q 74.88 1.32 74.88 1.944 Q 74.88 2.568 74.76 2.94 Q 74.64 3.312 74.352 3.456 Q 73.92 3.672 73.128 3.672 L 68.544 3.672 L 68.544 15.744 Q 68.544 16.296 68.508 16.56 Q 68.472 16.824 68.292 17.172 Q 68.112 17.52 67.656 17.664 Q 67.2 17.808 66.456 17.808 Q 65.712 17.808 65.268 17.664 Q 64.824 17.52 64.644 17.172 Q 64.464 16.824 64.428 16.548 Q 64.392 16.272 64.392 15.72 L 64.392 3.672 L 59.784 3.672 Q 59.016 3.672 58.656 3.492 Q 58.296 3.312 58.176 2.928 Q 58.056 2.544 58.056 1.92 Q 58.056 1.296 58.176 0.924 Q 58.296 0.552 58.584 0.408 Q 59.016 0.192 59.808 0.192 Z" id="4" vector-effect="non-scaling-stroke"/>
<path d="M 83.016 0 Q 86.568 0 89.184 2.568 Q 91.8 5.136 91.8 8.94 Q 91.8 12.744 89.304 15.42 Q 86.808 18.096 83.16 18.096 Q 79.512 18.096 76.956 15.456 Q 74.4 12.816 74.4 9.168 Q 74.4 7.176 75.12 5.436 Q 75.84 3.696 77.04 2.52 Q 78.24 1.344 79.8 0.672 Q 81.36 0 83.016 0 Z M 78.648 9.048 Q 78.648 11.184 80.028 12.516 Q 81.408 13.848 83.112 13.848 Q 84.816 13.848 86.184 12.552 Q 87.552 11.256 87.552 9.072 Q 87.552 6.888 86.172 5.568 Q 84.792 4.248 83.088 4.248 Q 81.384 4.248 80.016 5.58 Q 78.648 6.912 78.648 9.048 Z" id="5" vector-effect="non-scaling-stroke"/>
<path d="M 93.36 15.672 L 93.36 2.328 Q 93.36 1.776 93.396 1.5 Q 93.432 1.224 93.624 0.864 Q 93.96 0.216 95.496 0.216 Q 97.176 0.216 97.488 1.104 Q 97.608 1.512 97.608 2.352 L 97.608 15.696 Q 97.608 16.272 97.572 16.536 Q 97.536 16.8 97.344 17.16 Q 97.008 17.808 95.472 17.808 Q 93.792 17.808 93.504 16.896 Q 93.36 16.512 93.36 15.672 Z" id="6" vector-effect="non-scaling-stroke"/>
<path d="M 114.888 2.376 L 114.888 15.696 Q 114.888 16.272 114.852 16.536 Q 114.816 16.8 114.624 17.16 Q 114.288 17.808 112.752 17.808 Q 111.816 17.808 111.456 17.664 Q 111.096 17.52 110.856 17.208 Q 105.456 10.008 103.752 7.8 L 103.752 15.696 Q 103.752 16.272 103.716 16.536 Q 103.68 16.8 103.488 17.16 Q 103.152 17.808 101.616 17.808 Q 100.128 17.808 99.792 17.16 Q 99.6 16.8 99.564 16.512 Q 99.528 16.224 99.528 15.672 L 99.528 2.28 Q 99.528 1.368 99.756 0.948 Q 99.984 0.528 100.44 0.384 Q 100.896 0.24 101.616 0.24 Q 102.336 0.24 102.756 0.372 Q 103.176 0.504 103.344 0.672 Q 103.44 0.744 103.896 1.296 Q 108.96 8.184 110.664 10.392 L 110.664 2.28 Q 110.664 1.368 110.892 0.948 Q 111.12 0.528 111.576 0.384 Q 112.032 0.24 112.716 0.24 Q 113.4 0.24 113.82 0.36 Q 114.24 0.48 114.444 0.648 Q 114.648 0.816 114.744 1.152 Q 114.888 1.536 114.888 2.376 Z" id="7" vector-effect="non-scaling-stroke"/>
<path d="M 118.992 0.216 L 128.448 0.216 Q 129 0.216 129.276 0.252 Q 129.552 0.288 129.9 0.48 Q 130.248 0.672 130.392 1.128 Q 130.536 1.584 130.536 2.352 Q 130.536 3.12 130.392 3.576 Q 130.248 4.032 129.888 4.212 Q 129.528 4.392 129.252 4.428 Q 128.976 4.464 128.4 4.464 L 121.056 4.464 L 121.056 6.888 L 125.784 6.888 Q 126.36 6.888 126.636 6.924 Q 126.912 6.96 127.272 7.152 Q 127.896 7.512 127.896 9.048 Q 127.896 10.728 126.984 11.04 Q 126.6 11.16 125.76 11.16 L 121.056 11.16 L 121.056 15.696 Q 121.056 16.272 121.02 16.536 Q 120.984 16.8 120.792 17.16 Q 120.456 17.808 118.92 17.808 Q 117.24 17.808 116.952 16.896 Q 116.808 16.512 116.808 15.672 L 116.808 2.328 Q 116.808 1.104 117.264 0.66 Q 117.72 0.216 118.992 0.216 Z" id="8" vector-effect="non-scaling-stroke"/>
<path d="M 132.096 15.672 L 132.096 2.328 Q 132.096 1.776 132.132 1.5 Q 132.168 1.224 132.36 0.864 Q 132.696 0.216 134.232 0.216 Q 135.912 0.216 136.224 1.104 Q 136.344 1.512 136.344 2.352 L 136.344 15.696 Q 136.344 16.272 136.308 16.536 Q 136.272 16.8 136.08 17.16 Q 135.744 17.808 134.208 17.808 Q 132.528 17.808 132.24 16.896 Q 132.096 16.512 132.096 15.672 Z" id="9" vector-effect="non-scaling-stroke"/>
<path d="M 153.624 2.376 L 153.624 15.696 Q 153.624 16.272 153.588 16.536 Q 153.552 16.8 153.36 17.16 Q 153.024 17.808 151.488 17.808 Q 150.552 17.808 150.192 17.664 Q 149.832 17.52 149.592 17.208 Q 144.192 10.008 142.488 7.8 L 142.488 15.696 Q 142.488 16.272 142.452 16.536 Q 142.416 16.8 142.224 17.16 Q 141.888 17.808 140.352 17.808 Q 138.864 17.808 138.528 17.16 Q 138.336 16.8 138.3 16.512 Q 138.264 16.224 138.264 15.672 L 138.264 2.28 Q 138.264 1.368 138.492 0.948 Q 138.72 0.528 139.176 0.384 Q 139.632 0.24 140.352 0.24 Q 141.072 0.24 141.492 0.372 Q 141.912 0.504 142.08 0.672 Q 142.176 0.744 142.632 1.296 Q 147.696 8.184 149.4 10.392 L 149.4 2.28 Q 149.4 1.368 149.628 0.948 Q 149.856 0.528 150.312 0.384 Q 150.768 0.24 151.452 0.24 Q 152.136 0.24 152.556 0.36 Q 152.976 0.48 153.18 0.648 Q 153.384 0.816 153.48 1.152 Q 153.624 1.536 153.624 2.376 Z" id="10" vector-effect="non-scaling-stroke"/>
<path d="M 155.544 15.672 L 155.544 2.328 Q 155.544 1.776 155.58 1.5 Q 155.616 1.224 155.808 0.864 Q 156.144 0.216 157.68 0.216 Q 159.36 0.216 159.672 1.104 Q 159.792 1.512 159.792 2.352 L 159.792 15.696 Q 159.792 16.272 159.756 16.536 Q 159.72 16.8 159.528 17.16 Q 159.192 17.808 157.656 17.808 Q 155.976 17.808 155.688 16.896 Q 155.544 16.512 155.544 15.672 Z" id="11" vector-effect="non-scaling-stroke"/>
<path d="M 162.864 0.192 L 176.208 0.192 Q 176.976 0.192 177.336 0.372 Q 177.696 0.552 177.816 0.936 Q 177.936 1.32 177.936 1.944 Q 177.936 2.568 177.816 2.94 Q 177.696 3.312 177.408 3.456 Q 176.976 3.672 176.184 3.672 L 171.6 3.672 L 171.6 15.744 Q 171.6 16.296 171.564 16.56 Q 171.528 16.824 171.348 17.172 Q 171.168 17.52 170.712 17.664 Q 170.256 17.808 169.512 17.808 Q 168.768 17.808 168.324 17.664 Q 167.88 17.52 167.7 17.172 Q 167.52 16.824 167.484 16.548 Q 167.448 16.272 167.448 15.72 L 167.448 3.672 L 162.84 3.672 Q 162.072 3.672 161.712 3.492 Q 161.352 3.312 161.232 2.928 Q 161.112 2.544 161.112 1.92 Q 161.112 1.296 161.232 0.924 Q 161.352 0.552 161.64 0.408 Q 162.072 0.192 162.864 0.192 Z" id="12" vector-effect="non-scaling-stroke"/>
<path d="M 183.504 11.136 L 183.504 13.56 L 190.896 13.56 Q 191.448 13.56 191.724 13.596 Q 192 13.632 192.36 13.824 Q 193.008 14.16 193.008 15.696 Q 193.008 17.376 192.12 17.664 Q 191.712 17.808 190.872 17.808 L 181.368 17.808 Q 179.688 17.808 179.4 16.896 Q 179.256 16.512 179.256 15.672 L 179.256 2.328 Q 179.256 1.104 179.712 0.66 Q 180.168 0.216 181.44 0.216 L 190.896 0.216 Q 191.448 0.216 191.724 0.252 Q 192 0.288 192.36 0.48 Q 193.008 0.816 193.008 2.352 Q 193.008 4.032 192.12 4.32 Q 191.712 4.464 190.872 4.464 L 183.504 4.464 L 183.504 6.888 L 188.256 6.888 Q 188.808 6.888 189.084 6.924 Q 189.36 6.96 189.72 7.152 Q 190.368 7.488 190.368 9.024 Q 190.368 10.704 189.456 10.992 Q 189.048 11.136 188.208 11.136 L 183.504 11.136 Z" id="13" vector-effect="non-scaling-stroke"/>
</g>
</svg>