<svg version="1.1" id="Capa_1" xmlns="http://www.w3.org/2000/svg" xmlns:xlink="http://www.w3.org/1999/xlink" x="0px" y="0px" viewBox="0 0 1200 1200" enable-background="new 0 0 1200 1200" xml:space="preserve">
<path d="M929.383,308.473c1.447-0.282,2.909-0.485,3.702-0.614c3.363,0.563,5.167,2.47,5.323,5.001&#10;&#9;c0.17,2.76-1.504,5.334-3.966,6.091c-0.179,0.055-0.367,0.078-0.549,0.126c-3.235,0.841-3.383,0.742-4.271-2.453&#10;&#9;c-0.527-1.896-1.102-3.779-1.674-5.662C927.537,309.606,927.997,308.744,929.383,308.473z M1163.881,822.146&#10;&#9;c-1.467,6.934-3.307,13.83-5.561,20.547c-4.404,13.126-11.792,24.677-20.061,35.66c-4.5,5.976-9.099,11.899-14.001,17.545&#10;&#9;c-12.234,14.091-27.317,23.584-46.081,25.678c-9.655,1.078-19.519,0.979-29.247,0.523c-10.376-0.487-19.996-4.424-29.439-8.56&#10;&#9;c-13.868-6.074-26.58-14.252-39.612-21.841c-9.338-5.438-18.018-11.824-26.254-18.812c-8.646-7.337-16.265-15.632-23.077-24.694&#10;&#9;c-22.022-29.293-41.127-60.331-57.006-93.401c-7.407-15.426-15.795-30.381-23.734-45.551c-0.461-0.881-0.892-1.778-1.662-3.318&#10;&#9;c3.648-0.187,6.658-0.482,9.666-0.462c3.928,0.027,7.853,0.421,11.781,0.447c7.906,0.054,14.804,3.312,21.558,6.816&#10;&#9;c11.077,5.748,21.269,12.8,30.344,21.436c4.224,4.02,8.645,7.833,13.016,11.696c1.198,1.058,2.537,1.956,3.811,2.927&#10;&#9;c0.237-0.155,0.474-0.31,0.711-0.466c-0.299-0.831-0.525-1.697-0.908-2.488c-8.338-17.232-21.939-29.27-38.311-38.466&#10;&#9;c-8.425-4.732-17.23-8.697-26.784-10.568c-8.614-1.687-17.313-2.436-26.108-1.536c-3.904,0.4-7.839,0.498-11.752,0.828&#10;&#9;c-6.94,0.585-13.888,1.117-20.808,1.899c-10.072,1.138-20.197,2.054-30.162,3.83c-14.783,2.634-29.793,2.629-44.617,4.574&#10;&#9;c-4.645,0.61-9.248,1.534-13.878,2.27c-7.382,1.172-14.753,2.445-22.161,3.43c-18.757,2.493-37.11,7.027-55.63,10.729&#10;&#9;c-10.435,2.086-20.967,3.706-31.477,5.4c-22.151,3.57-44.37,6.753-66.459,10.668c-15.582,2.762-31.354,4.765-46.488,9.756&#10;&#9;c-8.132,2.682-15.842,6.27-22.774,11.244c-7.415,5.321-14.574,11.011-21.701,16.718c-8.156,6.532-15.219,14.15-21.567,22.447&#10;&#9;c-13.809,18.047-26.229,37.057-38.502,56.147c-19.132,29.758-38.012,59.68-56.797,89.659&#10;&#9;c-16.334,26.068-34.843,50.517-54.413,74.191c-6.706,8.112-13.571,16.105-20.651,23.892c-9.614,10.575-20.545,19.59-33.142,26.48&#10;&#9;c-2.865,1.567-5.671,3.244-8.508,4.863c-7.947,4.536-16.585,6.015-25.622,5.991c-43.049-0.111-78.356-17.258-107.197-48.636&#10;&#9;c-6.044-6.576-10.909-13.989-15.088-21.871c-13.183-24.864-20.871-51.416-23.848-79.306c-2.478-23.217-3.186-46.543-3.081-69.889&#10;&#9;c0.105-23.233,1.803-46.385,3.782-69.51c2.736-31.975,5.904-63.912,8.617-95.889c2.069-24.392,3.766-48.815,5.53-73.232&#10;&#9;c0.64-8.854,1.096-17.724,1.42-26.594c0.11-3.008-0.641-6.04-0.657-9.063c-0.037-7.099-0.116-14.212,0.263-21.296&#10;&#9;c1.161-21.653,2.7-43.286,3.769-64.942c0.975-19.756,1.687-39.528,2.193-59.301c0.214-8.354-0.771-16.74-0.533-25.092&#10;&#9;c0.253-8.861,1.187-17.712,2.048-26.545c1.366-14.01,2.859-28.009,4.406-42.001c3.328-30.096,18.81-53.015,42.968-70.134&#10;&#9;c16.442-11.652,33.617-22.291,50.694-33.016c14.068-8.836,28.505-17.082,42.723-25.682c19.031-11.512,38.82-21.547,59.264-30.257&#10;&#9;c7.803-3.324,15.831-6.179,23.898-8.812c15.902-5.189,31.802-5.228,47.839,0.03c18.411,6.037,37.523,8.447,56.736,10.592&#10;&#9;c11.308,1.263,22.189,0.037,33.258-1.477c20.599-2.816,41.319-4.792,61.868-7.917c28.699-4.365,57.323-9.257,85.908-14.33&#10;&#9;c15.093-2.678,30.08-6.014,45.022-9.456c6.898-1.589,13.664-3.895,20.316-6.349c4.244-1.566,8.307-3.764,12.205-6.091&#10;&#9;c7.511-4.485,14.798-9.343,22.265-13.903c14.233-8.691,29.83-12.389,46.405-12.658c16.832-0.273,33.417,1.526,49.849,5.106&#10;&#9;c7.805,1.7,15.684,3.057,23.508,4.672c10.864,2.243,21.248,5.955,31.193,10.818c33.632,16.448,61.238,39.976,82.54,70.796&#10;&#9;c8.799,12.731,17.405,25.596,26.103,38.397c0.976,1.436,1.67,3.034,3.883,3.24c0.852,0.079,1.729,1.367,2.348,2.272&#10;&#9;c19.038,27.874,37.565,56.063,53.725,85.749c8.492,15.6,17.508,30.872,27.642,45.513c6.409,9.26,11.676,19.311,17.472,28.997&#10;&#9;c12.767,21.336,25.751,42.548,36.945,64.78c8.044,15.975,16.225,31.884,24.04,47.971c8.382,17.254,14.739,35.343,21.204,53.374&#10;&#9;c2.825,7.879,5.737,15.734,8.3,23.7c2.912,9.048,5.937,18.099,8.11,27.338c6.1,25.936,11.205,52.079,13.922,78.615&#10;&#9;c1.796,17.533,3.256,35.102,4.774,52.662C1170.126,782.046,1168.101,802.2,1163.881,822.146z M988.099,374.408&#10;&#9;c0.668,2.032,1.473,4.064,2.551,5.907c10.691,18.282,21.513,36.488,32.156,54.798c4.906,8.439,9.258,17.205,14.286,25.566&#10;&#9;c4.475,7.441,23.13,38.918,42.323,79.276c-5.761-16.041-9.89-27.643-10.418-29.436c-1.109-2.119-1.734-3.339-1.71-3.356&#10;&#9;c-0.07-0.343-0.091-0.705-0.216-1.027c-6.309-16.22-13.971-31.782-22.296-47.064c-6.497-11.929-12.996-23.819-20.78-34.978&#10;&#9;c-3.045-4.365-5.699-9-8.598-13.469c-7.728-11.912-14.26-24.596-23.096-35.794c-0.471-0.597-0.782-1.365-1.352-1.824&#10;&#9;c-0.527-0.425-1.644-0.934-1.897-0.713C988.505,372.773,987.911,373.835,988.099,374.408z M916.085,297.622&#10;&#9;c0.612,1.659,1.282,3.296,1.94,4.938c2.319,5.794,4.646,11.585,6.966,17.378c0.309,0.772,0.592,1.555,0.907,2.326&#10;&#9;c0.783,1.92,2.252,3.12,4.279,3.108c1.826-0.011,3.855-0.099,5.432-0.883c3.983-1.978,6.558-5.344,7.806-9.638&#10;&#9;c1.039-3.576-0.309-7.087-3.688-9.068c-1.565-0.918-3.406-1.364-5.337-2.107c0.133-0.498,0.328-1.059,0.431-1.637&#10;&#9;c0.562-3.16-0.186-5.977-2.299-8.404c-3.324-3.818-7.688-4.295-12.261-3.498C914.916,291.068,914.199,292.511,916.085,297.622z&#10;&#9; M911.261,319.362c0.684,1.143,1.826,1.711,3.371,0.799c-1.901-6.695-3.801-13.386-5.846-20.587&#10;&#9;c-0.578,0.938-1.32,1.645-1.464,2.457C906.2,308.34,908.067,314.028,911.261,319.362z M918.392,340.502&#10;&#9;c10.967,5.618,23.354,2.688,31.268-6.621c2.921-3.436,4.709-7.389,5.353-11.858c-0.835,1.103-1.387,2.349-2.037,3.541&#10;&#9;c-2.61,4.794-6.068,8.79-11.232,10.895c-11.09,4.52-23.95,1.511-31.965-7.417c-5.529-6.158-8.397-13.494-9.289-21.647&#10;&#9;c-0.6-5.481,0.104-10.849,1.816-16.111c-0.222-0.125-0.443-0.25-0.665-0.375c-0.453,0.873-1.003,1.709-1.345,2.623&#10;&#9;C892.843,313.453,901.201,331.695,918.392,340.502z M869.981,356.856c-1.092,0.429-2.245,0.747-3.268,1.303&#10;&#9;c-8.493,4.621-13.096,12.092-15.037,21.279c-1.537,7.276,0.061,14.394,2.211,21.308c4.074,13.099,13.722,19.834,26.644,22.618&#10;&#9;c9.83,2.118,18.583-0.848,26.692-6.034c4.709-3.011,7.945-7.385,9.383-12.9c-0.901,0.737-1.596,1.626-2.299,2.507&#10;&#9;c-3.724,4.663-8.359,8.071-13.962,10.154c-18.483,6.871-39.293-4.951-43.977-24.775C853.762,381.282,857.14,364.581,869.981,356.856&#10;&#9;z M867.816,391.068c-0.32-5.79-0.636-11.582-1.055-17.365c-0.053-0.735-0.704-1.428-1.078-2.14&#10;&#9;c-0.761,0.507-1.626,0.912-2.243,1.556c-0.389,0.406-0.43,1.162-0.587,1.771c-1.526,5.931-0.945,11.788,0.848,17.536&#10;&#9;c0.416,1.335,1.523,2.454,2.383,3.783C868.046,394.604,867.912,392.815,867.816,391.068z M875.713,367.405&#10;&#9;c2.248,10.937,2.843,21.947,1.384,33.034c-0.245,1.859,0.443,3.09,2.026,3.931c1.911,1.015,3.847,1.909,6.529,1.284&#10;&#9;c0.2-2.714,0.376-5.429,0.606-8.14c0.231-2.71,0.242-2.761,2.905-3.407c2.106-0.511,4.247-0.878,6.375-1.295&#10;&#9;c3.872-0.758,4.84-0.31,6.438,3.235c0.875,1.943,1.58,3.964,2.369,5.97c3.916-2.206,5.099-5.371,3.543-9.212&#10;&#9;c-4.034-9.954-10.522-18.137-18.442-25.236c-5.534-4.961-6.596-5.006-13.72-1.37C875.715,366.735,875.647,367.084,875.713,367.405z&#10;&#9; M834.141,264.484c-7.215-3.43-12.516-8.852-16.661-15.607c-6.86-11.177-7.102-28.754,6.28-39.858&#10;&#9;c0.094-0.078-0.041-0.43-0.092-0.832c-0.931,0.474-1.848,0.854-2.677,1.375c-7.814,4.912-11.491,12.304-12.252,21.218&#10;&#9;c-1.451,16.997,9.47,34.634,25.3,40.906c19.948,7.904,37.84-5.201,36.767-25.911c-0.204,0.851-0.374,1.712-0.618,2.551&#10;&#9;C865.369,264.86,849.7,271.88,834.141,264.484z M690.533,526.592c13.653,29.01,36.113,48.199,66.454,58.121&#10;&#9;c15.65,5.118,31.309,5.643,47.042-0.514c14.055-5.5,24.147-14.936,30.798-28.283c1.03-2.068,1.779-4.275,2.897-7.001&#10;&#9;c-0.808,0.596-1.056,0.715-1.214,0.908c-0.333,0.408-0.632,0.845-0.921,1.285c-11.551,17.569-28.043,26.948-48.762,28.897&#10;&#9;c-20.625,1.94-39.453-3.72-56.31-15.34c-24.549-16.921-39.625-39.949-41.584-70.178c-1.463-22.577,6.517-41.511,24.67-55.668&#10;&#9;c0.454-0.354,0.833-0.806,1.247-1.213c-0.975,0.002-1.686,0.302-2.351,0.683c-7.973,4.564-13.962,11.257-19.635,18.294&#10;&#9;c-4.854,6.021-7.591,12.939-9.021,20.484C680.57,494.334,683.126,510.854,690.533,526.592z M699.171,357.139&#10;&#9;c6.374-12.574,3.227-27.901-7.651-37.26c-14.015-12.059-33.782-8.797-43.065,7.14c-5.471,9.394-5.068,19.229-1.687,29.091&#10;&#9;c2.02,5.892,6.012,10.295,11.852,12.732c3.338,1.393,6.792,2.509,10.194,3.75C681.373,374.393,693.492,368.343,699.171,357.139z&#10;&#9; M713.981,491.018c-0.821-1.859-1.19-3.917-1.757-5.888c-1.312,3.484-2.03,6.928-2.591,10.398c-0.696,4.31-1.212,8.649-1.909,12.959&#10;&#9;c-0.292,1.807-0.523,4.133-2.695,4.381c-1.391,0.159-2.939-1.048-4.853-1.819c2.776,9.194,6.803,17.466,13.9,24.903&#10;&#9;c0.06-1.55,0.102-2.311,0.116-3.074c0.13-6.874,0.21-13.749,0.417-20.621c0.05-1.664,0.028-3.593,2.078-4.341&#10;&#9;c2.217-0.809,3.396,0.868,4.711,2.134c2.096,2.018,4.112,4.126,6.283,6.059c1.616,1.439,3.424,2.663,5.319,4.114&#10;&#9;c0.301-0.891,0.567-1.274,0.527-1.622c-0.597-5.187-0.002-10.605-3.216-15.28c-0.881-1.282-1.322-2.879-1.895-4.358&#10;&#9;c-0.982-2.536-1.909-5.094-3.054-8.167c-0.816,1.695-1.293,2.916-1.96,4.023c-1.59,2.638-4.059,3.202-6.287,1.098&#10;&#9;C715.741,494.621,714.759,492.781,713.981,491.018z M845.267,480.514c-0.154-0.816-0.504-1.596-0.763-2.393&#10;&#9;c-0.664,0.94-0.815,1.802-0.929,2.668c-3.627,27.48-26.314,37.868-45.965,36.501c-24.531-1.707-46.297-23.144-48.988-47.778&#10;&#9;c-1.564-14.317,2.055-27.029,12.634-37.312c0.256-0.249,0.407-0.606,1.028-1.561c-1.288,0.459-1.794,0.609-2.275,0.816&#10;&#9;c-20.105,8.649-30.854,28.422-27.378,50.351c5.595,35.295,45.404,60.822,79.81,51.176&#10;&#9;C836.177,526.329,849.809,504.551,845.267,480.514z M765.591,306.564c1.324-3.796,3.371-7.339,5.085-10.999&#10;&#9;c-6.646,5.809-10.291,13.437-10.98,22.31c-0.653,8.405,1.438,16.226,5.57,23.691c6.603,11.93,16.933,17.527,30.043,18.293&#10;&#9;c9.183,0.537,17.194-2.676,23.485-9.607c3.683-4.058,5.904-8.826,6.755-14.232c-0.974,1.036-1.71,2.198-2.477,3.339&#10;&#9;c-7.812,11.62-21.993,16.943-34.545,12.974C769.578,346.341,759.015,325.417,765.591,306.564z M777.822,334.654&#10;&#9;c0.237-1.109,0.641-1.849,0.483-2.44c-1.497-5.623-3.061-11.229-4.702-16.811c-0.147-0.501-0.968-0.803-1.541-1.248&#10;&#9;C769.436,319.97,772.397,330.898,777.822,334.654z M800.521,314.43c1.301-4.533,1.845-9.236,1.763-14.144&#10;&#9;c-1.857-0.614-3.562-1.177-5.725-1.892c-0.257,5.324-0.475,10.101-1.729,15.143c-4.653-2.362-7.982-5.788-12.107-8.65&#10;&#9;c-1.22,1.759-2.315,3.337-3.542,5.106c3.719,3.06,7.103,6.044,10.712,8.727c1.686,1.253,2.242,2.539,1.755,4.472&#10;&#9;c-0.485,1.925-0.93,3.862-1.353,5.802c-0.654,2.998-1.276,6.003-1.975,9.307c2.184,0.542,4.068,1.01,6.224,1.544&#10;&#9;c1.418-4.478,2.759-8.71,4.197-13.251c3.701,2.871,7.217,5.597,10.97,8.508c1.302-2.091,2.378-3.818,3.597-5.774&#10;&#9;c-3.789-3.124-7.271-6.177-10.956-8.962C800.164,318.713,799.767,317.058,800.521,314.43z M803.754,438.073&#10;&#9;c-4.953-2.332-10.259-3.634-15.767-3.414c-8.828,0.353-16.732,2.888-21.785,10.809c-3.04,4.766-4.603,10.075-4.715,15.77&#10;&#9;c-0.403,20.455,13.078,38.18,32.917,43.276c18.305,4.702,33.967-5.113,36.954-23.626c0.686-3.186,0.406-6.859-0.558-10.479&#10;&#9;C826.81,455.435,817.736,444.656,803.754,438.073z M828.304,250.2c0.948,1.299,1.588,3.597,4.109,3.018&#10;&#9;c-0.011-2.868-2.666-8.638-7.81-16.953c-0.401-0.648-1.119-1.099-2.359-2.277C822.024,240.921,824.999,245.667,828.304,250.2z&#10;&#9; M852.984,256.891c-0.371-1.407-0.607-2.388-0.89-3.356c-0.964-3.295-1.937-6.587-2.921-9.876c-0.6-2.005-0.643-3.928-0.127-6.036&#10;&#9;c1.196-4.887,2.232-9.83,1.861-14.935c-0.28-3.851-1.217-4.766-5.377-4.975c-1.666,5.202-0.069,11.072-2.987,16.652&#10;&#9;c-4.988-4.515-9.603-8.692-14.382-13.018c-1.676,1.482-3.111,2.75-4.652,4.113c0.61,0.681,1.01,1.234,1.51,1.671&#10;&#9;c5,4.362,9.988,8.74,15.052,13.027c1.107,0.938,1.858,1.933,2.138,3.348c0.777,3.926,1.589,7.845,2.4,11.764&#10;&#9;c0.224,1.081,0.493,2.152,0.857,3.725C848.134,258.249,850.476,257.593,852.984,256.891z M514.908,231.807&#10;&#9;c-0.091,0.834,0.787,2.168,1.605,2.613c1.16,0.63,2.671,0.944,4.003,0.869c4.295-0.241,8.621-0.458,12.857-1.155&#10;&#9;c22.263-3.664,44.511-7.421,66.744-11.257c9.115-1.573,18.197-3.353,27.262-5.199c2.911-0.593,5.718-1.701,8.572-2.573&#10;&#9;c-0.056-0.399-0.111-0.799-0.167-1.198c-3.246,0.144-6.493,0.423-9.739,0.41c-22.919-0.097-45.511,2.962-67.971,7.127&#10;&#9;c-11.962,2.218-23.852,4.824-35.779,7.238c-1.738,0.352-3.559,0.423-5.215,0.99C516.171,229.982,514.995,231.002,514.908,231.807z&#10;&#9; M181.194,277.646c15.913-10.587,31.386-20.881,46.934-31.225c-0.663-5.617-1.317-11.167-2.019-17.11&#10;&#9;c-13.89,7.404-26.925,14.981-39.657,23.077c-0.863,0.549-1.645,1.658-1.905,2.653C182.626,262.389,181.924,269.916,181.194,277.646z&#10;&#9; M121.478,336.321c1.795-2.224,2.597-4.399,2.715-7.189c0.393-9.256,1.241-18.473,3.591-27.477c0.94-3.602,2.002-7.172,3.084-11.025&#10;&#9;c-0.653,0.279-1.049,0.347-1.309,0.573c-10.256,8.93-18.892,19.165-24.24,31.773c-6.845,16.139-7.892,33.398-8.84,50.734&#10;&#9;c0.217-0.402,0.452-0.796,0.648-1.208C103.44,359.23,112.319,347.668,121.478,336.321z M156.076,1050.83&#10;&#9;c-4.672-5.756-8.459-12.021-11.227-18.896c-3.898-9.684-6.683-19.73-8.276-29.997c-1.708-11.005-2.666-22.13-3.796-33.219&#10;&#9;c-1.837-18.032-3.432-36.082-3.091-54.241c0.212-11.277,0.492-22.555,0.577-33.833c0.122-16.095,0.255-32.192,0.082-48.285&#10;&#9;c-0.168-15.581-0.71-31.157-1.114-46.735c-0.024-0.925-0.285-1.844-0.435-2.765c-0.246-0.008-0.492-0.015-0.738-0.023&#10;&#9;c-0.181,1.168-0.416,2.331-0.534,3.505c-0.492,4.92-1.083,9.834-1.393,14.766c-0.731,11.635-1.557,23.272-1.917,34.921&#10;&#9;c-0.552,17.861-0.843,35.731-1.06,53.6c-0.174,14.317-0.873,28.692,0.092,42.945c1.488,21.98,3.855,43.919,6.524,65.793&#10;&#9;c1.582,12.97,5.087,25.612,10.584,37.571c3.101,6.746,7.151,12.855,13.003,17.583c1.122,0.906,2.467,2.59,3.905,1.184&#10;&#9;C158.757,1053.24,156.949,1051.906,156.076,1050.83z M1146.01,737.884c-2.896-34.758-9.543-68.801-19.736-102.156&#10;&#9;c-4.93-16.134-9.949-32.238-16.302-47.888c0.005-0.004-0.028-0.08-0.09-0.209c-0.453-1.098-0.952-2.177-1.43-3.265&#10;&#9;c-0.042,0.096-0.073,0.187-0.106,0.279c-4.036-7.714-14.893-28.08-24.433-46.003c9.324,17.627,20.298,38.37,24.4,46.092&#10;&#9;c-0.308,0.922-0.205,1.675-0.012,2.404c6.094,23.038,10.419,46.409,13.796,69.959c0.285,1.322,0.559,2.64,0.823,3.954&#10;&#9;c-0.075-0.247-0.228-0.707-0.454-1.365c0.449,3.199,0.883,6.402,1.301,9.607c2.117,16.262,3.106,32.534,1.298,48.913&#10;&#9;c-2.119,19.202-5.267,38.183-11.269,56.604c-3.03,9.299-7.487,17.774-14.794,24.453c-5.658,5.171-11.477,5.695-18.161,1.963&#10;&#9;c-4.934-2.755-9.29-6.303-12.731-10.724c-4.821-6.195-9.576-12.488-13.776-19.109c-11.697-18.435-23.607-36.727-37.105-53.896&#10;&#9;c-7.911-10.064-16.156-19.912-24.871-29.281c-5.917-6.361-11.839-12.875-19.066-17.914c-6.549-4.567-13.003-9.276-19.654-13.687&#10;&#9;c-7.42-4.919-15.395-8.772-23.839-11.668c-12.329-4.227-25.092-4.698-37.933-4.631c-19.05,0.1-37.931,2.396-56.837,4.373&#10;&#9;c-9.948,1.04-19.888,2.192-29.854,3.011c-4.91,0.404-9.88,0.033-14.811,0.258c-5.312,0.242-10.616,0.714-15.914,1.188&#10;&#9;c-7.571,0.678-15.143,1.371-22.699,2.198c-15.114,1.655-30.228,3.322-45.323,5.144c-11.567,1.396-22.932,4.262-34.655,4.612&#10;&#9;c-4.162,0.124-8.308,0.851-12.458,1.33c-2.768,0.319-5.523,0.769-8.297,1.021c-39.17,3.557-78.05,9.061-116.508,17.369&#10;&#9;c-11.767,2.542-23.595,4.864-34.958,9.009c-22.349,8.151-41.78,21.21-60.128,35.991c-6.009,4.841-11.806,10.074-17.02,15.752&#10;&#9;c-17.099,18.623-32.522,38.587-46.084,59.94c-11.418,17.978-22.669,36.062-33.963,54.119c-10.89,17.411-21.697,34.875-32.63,52.258&#10;&#9;c-4.532,7.206-9.715,13.942-15.641,20.075c-6.761,6.997-14.439,12.746-23.25,16.938c-9.949,4.734-19.741,4.431-29.676-0.332&#10;&#9;c-13.117-6.289-21.757-16.701-28.155-29.35c-3.411-6.744-5.04-14.069-6.883-21.312c-3.505-13.777-6.56-27.646-6.694-41.955&#10;&#9;c-0.039-4.174,0.542-8.354,0.487-12.526c-0.125-9.499-0.615-18.994-0.697-28.492c-0.303-35.235-1.999-70.454-1.086-105.704&#10;&#9;c0.345-13.305,0.299-26.62,0.509-39.929c0.247-15.719,0.567-31.436,0.875-47.154c0.394-20.153,0.747-40.306,1.232-60.457&#10;&#9;c0.323-13.434,0.773-26.865,1.3-40.292c0.601-15.327,1.274-30.651,2.057-45.969c0.609-11.901,1.622-23.784,2.121-35.689&#10;&#9;c0.845-20.156,2.165-40.262,5.006-60.246c2.484-17.474,5.717-34.789,11.081-51.644c2.6-8.168,5.805-15.986,12.759-21.593&#10;&#9;c0.587-0.473,1.049-1.1,1.578-1.648c11.491-11.888,23.466-23.139,38.142-31.183c11.001-6.03,21.493-13.035,33.594-16.858&#10;&#9;c10.664-3.369,21.352-6.619,32.774-5.041c4.142,0.572,8.43,0.709,12.378,1.93c7.01,2.167,13.806,5.021,20.7,7.565&#10;&#9;c7.486,2.762,15.011,5.422,22.46,8.28c3.06,1.174,6.009,2.668,8.93,4.168c2.475,1.271,4.819,2.796,7.254,4.148&#10;&#9;c4.539,2.52,9.387,4.592,13.6,7.569c10.923,7.717,22.508,14.228,34.685,19.644c6.116,2.72,12.44,5.406,19.263,5.581&#10;&#9;c5.935,0.153,11.956,0.033,17.82-0.804c9.907-1.413,19.715-3.513,29.573-5.272c3.741-0.667,7.494-1.319,11.267-1.755&#10;&#9;c35.698-4.126,71.136-9.564,105.468-20.656c1.444-0.467,2.976-0.756,4.322-1.421c17.68-8.731,32.889-20.547,44.643-36.492&#10;&#9;c4.887-6.629,9.352-13.569,14.014-20.364c6.738-9.82,12.704-20.192,20.762-29.067c1.19-1.311,2.35-2.718,3.77-3.739&#10;&#9;c10.817-7.778,21.642-15.582,33.779-21.23c3.407-1.585,7.121-2.636,10.796-3.494c8.942-2.088,18.033-2.581,27.21-2.198&#10;&#9;c14.415,0.601,28.927-0.83,43.23,2.253c1.729,0.373,3.663-0.209,5.421-0.343c0.456-3.496-0.969-5.063-3.183-6.245&#10;&#9;c-2.235-1.193-4.366-2.581-6.574-3.827c-19.509-11.005-40.191-17.425-62.861-15.995c-6.083,0.384-12.142,0.97-17.875,3.28&#10;&#9;c-13.735,5.534-25.731,13.712-36.036,24.278c-8.144,8.35-16.212,16.797-23.908,25.558c-9.455,10.763-18.495,21.891-27.699,32.874&#10;&#9;c-6.129,7.313-12.811,14.059-20.266,20.029c-7.804,6.25-16.362,11.113-25.96,14.016c-6.067,1.834-12.128,3.716-18.272,5.259&#10;&#9;c-18.074,4.538-36.178,8.959-54.29,13.344c-12.189,2.951-24.261,6.474-36.814,7.71c-2.9,0.286-5.816,0.582-8.667,1.159&#10;&#9;c-6.948,1.407-13.938,1.278-20.815,0.074c-12.152-2.128-24.148-5.155-34.962-11.286c-10.354-5.87-20.567-12.056-30.418-18.728&#10;&#9;c-8.937-6.053-18.086-11.695-27.413-17.101c-13.896-8.054-28.376-14.697-44.02-18.513c-10.783-2.631-21.693-4.224-32.746-1.584&#10;&#9;c-6.281,1.5-12.584,2.961-18.766,4.812c-10.095,3.022-19.942,6.758-29.233,11.782c-3.787,2.048-7.355,4.499-11.047,6.726&#10;&#9;c-13.575,8.189-27.059,16.537-40.777,24.48c-9.596,5.556-17.478,12.914-24.74,21.142c-6.443,7.301-11.534,15.389-15.352,24.327&#10;&#9;c-6.709,15.707-10.36,32.307-14.278,48.824c-1.638,6.905-3.115,13.858-4.379,20.841c-1.693,9.355-3.393,18.726-4.566,28.155&#10;&#9;c-1.376,11.064-2.278,22.19-3.217,33.303c-0.692,8.2-1.281,16.416-1.609,24.637c-0.39,9.748-0.125,19.529-0.729,29.26&#10;&#9;c-0.975,15.709-0.768,31.412-0.505,47.121c0.425,25.333,2.26,50.614,2.058,75.988c-0.18,22.665,1.249,45.34,1.673,68.015&#10;&#9;c0.367,19.634,0.657,39.281,0.363,58.912c-0.293,19.509-1.21,39.013-2.119,58.507c-1.181,25.339-0.747,50.686-0.488,76.023&#10;&#9;c0.307,30.027,1.242,60.048,1.967,90.07c0.346,14.343,1.767,28.579,4.669,42.649c2.108,10.22,5.166,20.123,10.3,29.247&#10;&#9;c1.657,2.944,3.73,5.766,6.094,8.172c7.148,6.166,19.896,9.986,26.357,10.16c8.765,0.236,22.393-6.504,29.567-11.555&#10;&#9;c6.11-4.302,12.127-8.766,17.905-13.5c6.093-4.992,11.32-10.838,16.067-17.182c10.254-13.704,21.04-27.013,31.161-40.812&#10;&#9;c21.526-29.348,42.633-59.003,64.181-88.335c10.149-13.815,19.736-27.979,28.573-42.646c12.643-20.983,26.154-41.375,40.915-60.926&#10;&#9;c10.445-13.834,22.593-26.069,35.961-37.058c8.685-7.14,18.251-12.882,29.198-15.921c7.207-2.001,14.469-3.807,21.726-5.622&#10;&#9;c31.018-7.757,62.549-13.018,93.866-19.329c26.762-5.393,53.715-9.068,80.895-11.591c20.941-1.944,41.839-4.662,62.62-7.91&#10;&#9;c15.765-2.464,31.261-6.596,46.974-9.456c19.321-3.516,38.874-5.671,58.011-10.316c14.388-3.492,28.433-1.684,42.13,3.793&#10;&#9;c13.49,5.395,25.416,13.283,36.1,22.946c20.411,18.46,40.58,37.188,60.769,55.893c3.434,3.182,6.527,6.744,9.669,10.229&#10;&#9;c23.851,26.454,43.231,55.985,59.807,87.408c7.874,14.927,13.129,30.764,15.378,47.543c0.062,0.462,0.274,0.903,0.425,1.383&#10;&#9;c0.547-0.048,0.959,0.021,1.268-0.126c13.798-6.56,27.176-13.568,36.26-26.682c8.368-12.081,15.751-24.609,19.222-39.003&#10;&#9;c3.935-16.318,5.633-33.008,7.005-49.691C1148.234,766.508,1147.201,752.171,1146.01,737.884z M476.631,481.836&#10;&#9;c-0.326,0.719-0.846,1.351-1.277,2.023c-2.429,3.793-5.392,7.352-7.18,11.426c-4.318,9.836-6.442,20.171-6.399,31.044&#10;&#9;c0.036,9.258,1.313,18.202,3.581,27.149c3.347,13.201,9.046,25.238,16.799,36.341c9.022,12.92,19.997,23.873,33.558,32.007&#10;&#9;c19.585,11.746,40.382,17.734,63.38,12.732c12.046-2.62,22.358-8.492,31.111-16.964c10.05-9.727,15.729-21.99,19.198-35.367&#10;&#9;c0.445-1.717,0.742-3.473,1.108-5.211c-3.714,2.572-7.215,4.835-8.91,8.985c-4.363,10.68-11.012,19.562-20.286,26.664&#10;&#9;c-9.688,7.419-20.535,11.809-32.434,13.269c-13.037,1.6-25.745-0.44-37.969-5.419c-13.547-5.517-25.455-13.412-35.066-24.456&#10;&#9;c-4.695-5.395-9.333-10.988-12.998-17.091c-4.426-7.369-7.872-15.289-10.357-23.653c-2.95-9.927-4.247-20.003-4.118-30.251&#10;&#9;c0.126-10.091,2.543-19.789,6.43-29.101c5.71-13.681,14.65-24.737,27.541-32.139c13.218-7.59,27.415-10.676,42.64-7.492&#10;&#9;c1.717,0.359,3.593,0.829,5.86-0.565c-1.245-0.378-1.925-0.721-2.628-0.778c-6.895-0.561-13.812-1.669-20.687-1.459&#10;&#9;c-10.009,0.306-19.654,2.589-28.635,7.494C489.628,466.085,481.177,471.812,476.631,481.836z M500.634,379.514&#10;&#9;c9.088,16.268,31.178,18.126,42.431,3.383c7.421-9.724,8.491-17.898,1.549-29.705c-2.717-4.622-6.663-8.128-11.284-10.902&#10;&#9;c-6.295-3.779-12.859-4.743-19.814-2.194c-9.164,3.359-14.246,10.236-16.334,17.436&#10;&#9;C495.806,366.623,497.171,373.314,500.634,379.514z M496.93,507.216c-0.953,0.457-1.376,0.959-1.638,1.535&#10;&#9;c-2.21,4.842-4.381,9.702-6.586,14.547c-1.323,2.907-2.486,5.912-4.086,8.659c-1.492,2.561-4.262,2.346-5.661-0.281&#10;&#9;c-0.55-1.033-0.731-2.269-1.04-3.423c-0.654-2.442-1.281-4.89-2.13-8.145c-0.919,9.613,0.689,21.463,2.762,29.318&#10;&#9;c1.044,3.955,2.933,7.309,6.004,11.049c0.823-3.019,1.397-5.333,2.086-7.612c1.885-6.243,3.637-12.536,5.803-18.682&#10;&#9;c1.237-3.511,4.116-3.661,6.228-0.561c1.121,1.645,1.936,3.494,2.961,5.208c2.058,3.441,3.93,7.043,7.357,9.627&#10;&#9;c4.582-11.415,2.858-22.669,1.25-34.503c-0.912,1.292-1.509,2.138-2.107,2.985c-0.615,0.87-1.158,1.803-1.857,2.599&#10;&#9;c-2.367,2.7-5.37,2.691-7.279-0.388c-1.129-1.821-1.634-4.127-2.013-6.286C496.664,511.034,496.926,509.103,496.93,507.216z&#10;&#9; M633.776,548.772c1.096-4.072,1.877-8.255,1.186-13.394c-0.9,2.037-1.472,3.314-2.031,4.598&#10;&#9;c-2.64,6.067-6.182,11.584-11.254,15.823c-6.419,5.365-13.662,8.882-22.237,9.945c-11.144,1.381-21.502-0.383-31.232-5.791&#10;&#9;c-11.056-6.146-18.941-15.193-24.272-26.663c-5.961-12.827-7.716-25.972-3.539-39.601c3.461-11.293,9.468-20.814,20.072-26.832&#10;&#9;c0.785-0.445,1.526-0.967,2.288-1.454c-4.558-0.408-8.53,0.741-12.552,2.221c-7.55,2.779-14.151,6.841-19.191,13.083&#10;&#9;c-10.652,13.193-14.541,28.254-11.425,44.94c3.792,20.301,14.633,36.068,31.841,47.267c11.146,7.254,23.339,11.438,36.971,10.888&#10;&#9;c9.74-0.393,18.729-3.029,26.602-8.513C624.331,568.791,630.785,559.884,633.776,548.772z M552.781,503.209&#10;&#9;c-1.38,7.591-0.098,14.995,2.518,21.978c2.87,7.661,7.794,14.07,14.092,19.516c7.64,6.607,16.259,9.931,26.317,9.453&#10;&#9;c2.243-0.107,4.619-0.147,6.678-0.909c7.507-2.779,13.161-7.845,16.943-14.909c3.995-7.463,4.596-15.219,3.031-23.583&#10;&#9;c-1.976-10.565-6.419-19.681-13.886-27.207c-8.61-8.679-18.925-13.791-31.509-12.621c-4.929,0.458-9.469,2.139-13.223,5.773&#10;&#9;C557.318,486.919,554.142,494.603,552.781,503.209z M430.594,444.926c4.277-8.682,7.153-17.702,8.085-27.27&#10;&#9;c1.594-16.353-1.874-31.632-9.698-45.996c-6.373-11.698-15.249-20.875-26.452-27.795c-9.09-5.615-19.095-8.589-29.705-9.425&#10;&#9;c-11.768-0.928-22.976,1.433-33.489,6.861c-7.82,4.038-14.334,9.714-19.925,16.613c-6.721,8.291-12.535,17.036-14.992,27.579&#10;&#9;c-3.555,15.256-2.817,30.404,2.018,45.206c2.673,8.183,6.697,15.809,11.998,22.575c9.508,12.132,21.423,20.929,36.267,25.417&#10;&#9;c1.005,0.254,2.01,0.507,3.014,0.761c19.643,4.979,37.579,0.718,53.698-11.235C419.597,462.15,425.986,454.28,430.594,444.926z&#10;&#9; M410.228,495.436c-5.487,3.136-10.781,6.699-16.509,9.308c-10.58,4.82-21.836,7.19-33.484,7.556&#10;&#9;c-1.415,0.044-2.99-0.297-4.081,1.408c2.054,1.763,4.401,1.59,6.609,1.665c6.616,0.227,13.133-0.57,19.56-2.16&#10;&#9;c10.808-2.674,20.953-6.743,29.621-13.952c2.335-1.942,4.508-4.006,5.454-7.338C414.4,492.262,412.463,494.159,410.228,495.436z&#10;&#9; M267.102,392.327c2.047-8.422,5.39-16.347,9.264-24.074c1-1.995,1.715-4.133,2.56-6.206c-0.294-0.18-0.588-0.36-0.882-0.54&#10;&#9;c-2.689,0.812-3.992,3.24-5.475,5.298c-6.804,9.445-10.606,20.223-12.562,31.521c-4.996,28.858,0.879,55.408,18.353,79.063&#10;&#9;c10.872,14.717,24.889,25.462,42.26,31.605c3.896,1.378,5.828,1.067,6.633-1.056c0.809-2.134-0.566-3.769-4.217-5.13&#10;&#9;c-8.125-3.029-15.727-7.036-22.52-12.454c-13.666-10.9-23.638-24.537-29.772-40.905&#10;&#9;C263.755,430.797,262.385,411.742,267.102,392.327z M304.057,332.647c0.688-0.169,1.418-0.241,2.056-0.523&#10;&#9;c3.702-1.638,7.411-3.266,11.064-5.008c5.714-2.725,11.442-5.404,17.702-6.645c8.924-1.769,17.817-3.951,27.036-2.224&#10;&#9;c1.325,0.248,2.541,0.033,3.096-2.106c-1.035-0.587-2.112-1.383-3.317-1.846c-3.474-1.334-7.114-1.858-10.822-1.627&#10;&#9;c-15.089,0.941-29.108,5.088-41.491,14.036c-2.103,1.52-4.283,2.979-5.722,5.195C303.792,332.149,303.925,332.398,304.057,332.647z&#10;&#9; M435.705,463.064c2.813,0.225,3.391-1.481,4.204-2.816c7.943-13.036,11.108-27.368,11.203-42.45&#10;&#9;c0.14-22.229-5.781-42.735-17.821-61.467c-10.73-16.694-24.788-29.607-42.833-38.043c-0.916-0.428-1.884-0.747-2.84-1.083&#10;&#9;c-1.405-0.493-2.546-0.045-3.232,1.216c-0.728,1.337-0.109,2.497,0.929,3.357c0.668,0.554,1.521,0.894,2.311,1.291&#10;&#9;c8.851,4.448,17.236,9.532,24.594,16.301c18.408,16.936,29.373,37.808,33.358,62.382c2.823,17.405,0.611,34.324-5.629,50.754&#10;&#9;C438.654,455.915,437.231,459.277,435.705,463.064z M926.135,303.497c2.118-0.137,3.969-2.453,3.715-4.571&#10;&#9;c-0.238-1.989-1.283-3.472-3.108-4.142c-2.053-0.753-3.88-0.045-5.381,1.418c1.071,2.126,2.017,3.945,2.903,5.792&#10;&#9;C924.661,302.822,925.089,303.565,926.135,303.497z M699.44,346.488c-1.736,9.11-8.731,17.432-19.638,17.91&#10;&#9;c-2.269,0.1-4.559-0.258-6.839-0.406c-6.881-1.395-12.487-4.547-16.766-10.331c-6.629-8.96-7.102-20.944-0.714-28.848&#10;&#9;c6.841-8.466,19.081-10.84,29.317-5.687C694.829,324.175,701.527,335.533,699.44,346.488z M666.031,335.555&#10;&#9;c5.786-1.811,11.32-3.544,17.413-5.451c-2.07-2.031-2.64-4.774-5.75-3.821c-4.597,1.409-9.195,2.816-14.075,4.311&#10;&#9;C664.463,332.331,665.209,333.864,666.031,335.555z M669.966,343.895c5.864-1.889,11.547-3.719,17.289-5.569&#10;&#9;c-0.346-2.384-1.139-3.925-3.403-3.26c-5.116,1.502-10.168,3.217-15.494,4.925C668.967,341.469,669.405,342.533,669.966,343.895z&#10;&#9; M689.894,345.566c-0.405-1.156-0.713-2.034-1.211-3.454c-5.932,1.857-11.533,3.609-17.519,5.483&#10;&#9;c0.54,1.756,0.975,3.173,1.493,4.857C678.806,350.208,684.593,348.561,689.894,345.566z M507.463,374.292&#10;&#9;c-3.819-4.914-3.708-10.861-2.827-17.733c1.003-11.033,14.852-17.951,25.346-13.556c10.039,4.204,16.102,11.609,17.026,22.671&#10;&#9;c0.544,6.504-3.014,14.448-10.958,17.257C524.596,386.983,515.002,383.992,507.463,374.292z M519.04,350.474&#10;&#9;c2.456,7.816,4.794,15.257,7.324,23.306c4.324-3.047,7.073-6.887,9.197-11.238c0.637-1.305,0.24-2.525-0.745-3.465&#10;&#9;c-1.916-1.828-3.709-3.897-5.922-5.275C525.99,351.993,522.808,350.492,519.04,350.474z M431.745,403.204&#10;&#9;c-0.4-4.831-0.935-9.86-2.672-14.294c-1.418-3.619-2.229-7.272-3.138-10.965c-0.245-0.995-0.474-2.006-0.85-2.953&#10;&#9;c-1.211-3.053-3.704-4.966-6.739-4.825c-4.928,0.229-9.854,1.082-14.725,1.986c-4.845,0.899-9.622,2.185-14.131,3.232&#10;&#9;c-2.478-2.292-2.866-4.823-3.344-7.359c-1.405-7.456-3.452-14.717-6.266-21.766c-1.492-3.736-4.111-5.581-7.954-6.279&#10;&#9;c-9.486-1.723-17.882,1.285-25.869,6.023c-1.839,1.091-3.535,2.565-4.972,4.16c-0.862,0.957-1.353,2.454-1.539,3.773&#10;&#9;c-0.192,1.36,0.059,2.826,0.34,4.198c1.595,7.789,3.243,15.567,4.903,23.342c0.798,3.737,1.663,7.46,2.5,11.196&#10;&#9;c-0.779,0.532-1.265,0.945-1.817,1.228c-7.862,4.036-15.816,7.896-24.4,10.065c-3.59,0.907-5.618,3.051-6.276,6.445&#10;&#9;c-0.403,2.077-0.624,4.451-0.03,6.41c1.931,6.371,4.169,12.653,6.504,18.885c1.196,3.193,3.71,5.103,7.098,5.786&#10;&#9;c3.262,0.658,6.322-0.118,9.352-1.236c6.582-2.429,13.164-4.855,20.453-7.543c1.671,4.35,3.376,8.479,4.847,12.692&#10;&#9;c1.815,5.199,3.443,10.466,5.137,15.709c1.906,5.902,6.042,8.753,12.089,8.581c8.722-0.247,16.78-1.966,23.138-9.073&#10;&#9;c2.46-2.75,3.847-5.322,3.709-8.811c-0.081-2.042-0.22-4.124-0.694-6.098c-1.496-6.236-3.223-12.414-4.73-18.648&#10;&#9;c-0.557-2.305-0.75-4.701-1.108-7.053c4.575-1.257,8.692-2.152,12.642-3.536c4.328-1.516,8.638-3.217,12.7-5.341&#10;&#9;C428.952,409.54,432.071,407.146,431.745,403.204z M1122.92,661.051c0.014,0.068,0.029,0.136,0.042,0.204&#10;&#9;C1122.989,661.297,1122.972,661.223,1122.92,661.051z M886.619,388.338c3.137-0.853,5.953-1.618,8.961-2.436&#10;&#9;c-1.535-5.476-8.281-14.002-11.797-15.031c0.595,2.978,1.251,5.836,1.719,8.725C885.963,382.444,885.424,385.455,886.619,388.338z&#10;&#9; M1109.883,587.631c-0.198-0.412-0.732-1.448-1.536-2.986c-0.01,0.029-0.024,0.06-0.034,0.088c1.05,1.978,1.655,3.109,1.659,3.106&#10;&#9;C1109.944,587.77,1109.912,587.701,1109.883,587.631z" style="fill: rgb(191, 116, 231);"/>
</svg>