<svg version="1.1" id="Capa_1" xmlns="http://www.w3.org/2000/svg" xmlns:xlink="http://www.w3.org/1999/xlink" x="0px" y="0px" viewBox="0 0 1200 1200" enable-background="new 0 0 1200 1200" xml:space="preserve">
<g>
	<g>
		<g>
			<g>
				<g>
					<g>
						<path fill="#2E3744" d="M671.992,681.472L671.992,681.472c-84.266,0-153.211-68.945-153.211-153.211V417.763&#10;&#9;&#9;&#9;&#9;&#9;&#9;&#9;c0-84.266,68.945-153.211,153.211-153.211h0c84.266,0,153.211,68.945,153.211,153.211v110.498&#10;&#9;&#9;&#9;&#9;&#9;&#9;&#9;C825.202,612.527,756.257,681.472,671.992,681.472z"/>
					</g>
					<g>
						<path fill="#2E3744" d="M616.133,681.472L616.133,681.472c-84.266,0-153.211-68.945-153.211-153.211V417.763&#10;&#9;&#9;&#9;&#9;&#9;&#9;&#9;c0-84.266,68.945-153.211,153.211-153.211h0c84.266,0,153.211,68.945,153.211,153.211v110.498&#10;&#9;&#9;&#9;&#9;&#9;&#9;&#9;C769.344,612.527,700.399,681.472,616.133,681.472z"/>
					</g>
				</g>
				<g>
					<g>
						<g>
							<defs>
								<path id="SVGID_1_" d="M644.564,160.127c-8.587-2.608-1.129-6.191,1.696-16.519c1.357-4.962,3.555-10.556,7.15-16.359&#10;&#9;&#9;&#9;&#9;&#9;&#9;&#9;&#9;&#9;c2.844-4.59,7.284-8.455,12.106-13.01c3.966-3.746,8.024-7.985,13.642-11.402c4.698-2.857,10.222-4.904,16.258-7.354&#10;&#9;&#9;&#9;&#9;&#9;&#9;&#9;&#9;&#9;c5.145-2.088,10.305-5.364,16.533-7.048c5.412-1.463,11.349-2.608,17.652-3.695c10.15-0.43,8.441,0.424,20.131,3.014&#10;&#9;&#9;&#9;&#9;&#9;&#9;&#9;&#9;&#9;c5.866,1.3,12.619,3.12,19.522,5.7c6.096,2.279,11.662,6.397,17.63,9.982c5.721,3.437,11.035,7.296,15.849,12.193&#10;&#9;&#9;&#9;&#9;&#9;&#9;&#9;&#9;&#9;c4.633,4.713,9.352,9.472,12.443,15.768c2.812,5.728,5.291,13.062,6.282,20.279c-8.974,4.037-10.254-0.626-20.076-0.04&#10;&#9;&#9;&#9;&#9;&#9;&#9;&#9;&#9;&#9;c-9.821,0.587-9.854,0.025-19.675,0.611c-9.821,0.587-9.788,1.139-19.609,1.726c-9.821,0.587-9.797,0.995-19.618,1.582&#10;&#9;&#9;&#9;&#9;&#9;&#9;&#9;&#9;&#9;c-9.824,0.587-9.846,0.211-19.67,0.797c-9.827,0.587-9.781,1.357-19.608,1.944c-9.824,0.587-9.926-1.119-19.75-0.532&#10;&#9;&#9;&#9;&#9;&#9;&#9;&#9;&#9;&#9;c-9.831,0.587-9.971,0.021-19.729,1.349C654.046,160.432,653.987,162.989,644.564,160.127z"/>
							</defs>
							<clipPath id="SVGID_2_">
								<use xlink:href="#SVGID_1_" overflow="visible"/>
							</clipPath>
						</g>
					</g>
					<g>
						<g>
							<g>
								<g>
									<path fill="#6F7170" d="M596.815,1114.92c2.445,10.512,10.969,3.358,20.046,9.108c5.102,3.232,6.969,9.768,5.891,14.657&#10;&#9;&#9;&#9;&#9;&#9;&#9;&#9;&#9;&#9;&#9;c-1.078,4.885-5.485,10.235-11.465,11.047c-5.388,0.731-10.448-0.495-17.459-1.249c-4.574-0.492-9.99-1.788-17.119-2.707&#10;&#9;&#9;&#9;&#9;&#9;&#9;&#9;&#9;&#9;&#9;c-4.882-0.629-10.634-0.528-17.295-1.294c-5.114-0.588-10.555-1.72-16.963-2.361c-3.657-9.072-0.547-9.703-1.4-19.447&#10;&#9;&#9;&#9;&#9;&#9;&#9;&#9;&#9;&#9;&#9;c-0.854-9.748-2.218-9.628-3.072-19.376c-0.854-9.745-0.551-9.771-1.404-19.516c-0.854-9.751,0.84-9.9-0.014-19.651&#10;&#9;&#9;&#9;&#9;&#9;&#9;&#9;&#9;&#9;&#9;s-10.702-13.418-3.689-20.247c6.911-6.729,10.338,2.476,19.9,3.748c9.559,1.272,9.667,0.46,19.225,1.732&#10;&#9;&#9;&#9;&#9;&#9;&#9;&#9;&#9;&#9;&#9;c9.565,1.273,9.449,2.149,19.014,3.422c9.565,1.273,14.211-6.151,19.518,1.908c5.615,8.526-3.073,10.071-5.228,20.05&#10;&#9;&#9;&#9;&#9;&#9;&#9;&#9;&#9;&#9;&#9;c-2.157,9.986,0.602,10.813-3.013,20.369C598.539,1105.021,594.501,1104.97,596.815,1114.92z" style="fill: rgb(128, 128, 128);"/>
								</g>
							</g>
							<g>
								<g>
									<path fill="#6F7170" d="M759.498,1114.849c2.445,10.512,10.712,3.35,19.789,9.099c5.102,3.232,5.788,9.599,4.709,14.488&#10;&#9;&#9;&#9;&#9;&#9;&#9;&#9;&#9;&#9;&#9;c-1.078,4.885-4.353,10.5-10.332,11.311c-5.388,0.731-10.475-0.279-17.485-1.032c-4.574-0.492-10.044-1.408-17.172-2.327&#10;&#9;&#9;&#9;&#9;&#9;&#9;&#9;&#9;&#9;&#9;c-4.882-0.629-10.444-2.109-17.105-2.875c-5.114-0.588-10.862-0.671-17.27-1.312c-3.657-9.072-1.898-9.646-2.752-19.39&#10;&#9;&#9;&#9;&#9;&#9;&#9;&#9;&#9;&#9;&#9;c-0.854-9.748,0.733-9.887-0.12-19.634c-0.854-9.744-2.118-9.634-2.972-19.378c-0.854-9.751-0.964-9.741-1.819-19.493&#10;&#9;&#9;&#9;&#9;&#9;&#9;&#9;&#9;&#9;&#9;s-7.732-12.56-0.719-19.389c6.911-6.729,9.301,1.694,18.863,2.966c9.559,1.272,9.568,1.2,19.127,2.473&#10;&#9;&#9;&#9;&#9;&#9;&#9;&#9;&#9;&#9;&#9;c9.565,1.273,9.654,0.605,19.219,1.879c9.565,1.273,13.883-5.429,19.19,2.63c5.615,8.526-2.172,10.043-4.327,20.022&#10;&#9;&#9;&#9;&#9;&#9;&#9;&#9;&#9;&#9;&#9;c-2.157,9.986-0.149,10.628-3.685,20.213C760.999,1104.957,757.184,1104.898,759.498,1114.849z" style="fill: rgb(128, 128, 128);"/>
								</g>
							</g>
							<g>
								<g>
									<path fill="#062148" d="M725.95,93.751l0,0.186c-4.462,0-8.297-4.482-8.297-8.944l1.034,0c0-4.462,2.801-8.264,7.263-8.264&#10;&#9;&#9;&#9;&#9;&#9;&#9;&#9;&#9;&#9;&#9;l0-0.377c4.462,0,7.571,4.179,7.571,8.641l0.052,0C733.573,89.455,730.411,93.751,725.95,93.751z"/>
								</g>
							</g>
							<g>
								<g>
									<g>
										<path fill="#6F7170" d="M482.85,762.706c-6.009,3.703-12.023,7.405-17.984,11.18c-5.963,3.776-12.142,7.257-17.965,11.241&#10;&#9;&#9;&#9;&#9;&#9;&#9;&#9;&#9;&#9;&#9;&#9;c-5.819,3.981-11.176,8.651-16.764,12.976c-4.922,3.81-10.048,7.387-14.71,11.47c-4.678,4.097-9.005,8.602-13.42,12.956&#10;&#9;&#9;&#9;&#9;&#9;&#9;&#9;&#9;&#9;&#9;&#9;c-4.425,4.363-9.234,8.405-13.394,13.009c-4.164,4.608-7.127,10.262-11.025,15.094&#10;&#9;&#9;&#9;&#9;&#9;&#9;&#9;&#9;&#9;&#9;&#9;c-3.898,4.832-7.314,9.991-10.946,15.029c-3.629,5.035-7.63,9.788-10.993,15.011c-3.359,5.218-7.911,9.749-11.004,15.137&#10;&#9;&#9;&#9;&#9;&#9;&#9;&#9;&#9;&#9;&#9;&#9;c-3.089,5.382-4.751,11.575-7.574,17.11c-2.82,5.528-4.718,11.473-7.271,17.136c-2.551,5.658-5.991,10.922-8.275,16.698&#10;&#9;&#9;&#9;&#9;&#9;&#9;&#9;&#9;&#9;&#9;&#9;c-2.283,5.773-4.066,11.729-6.082,17.602c-2.017,5.874-4.736,11.531-6.485,17.487c-1.75,5.961-3.954,11.839-5.435,17.864&#10;&#9;&#9;&#9;&#9;&#9;&#9;&#9;&#9;&#9;&#9;&#9;c-1.484,6.035-1.091,12.497-2.305,18.581c-1.216,6.097-2.447,12.162-3.391,18.29c-0.947,6.147-1.473,12.315-2.146,18.476&#10;&#9;&#9;&#9;&#9;&#9;&#9;&#9;&#9;&#9;&#9;&#9;c-0.638,5.836-1.272,11.597-1.502,17.436c-0.229,5.824-1.439,11.662-1.225,17.544c0.21,5.782,1.001,11.612,1.673,17.503&#10;&#9;&#9;&#9;&#9;&#9;&#9;&#9;&#9;&#9;&#9;&#9;c0.651,5.711,0.608,11.663,1.726,17.524c-0.185-0.555-5.153-4.838-14.399-12.32c-4.386-3.549-8.977-8.42-14.512-13.421&#10;&#9;&#9;&#9;&#9;&#9;&#9;&#9;&#9;&#9;&#9;&#9;c-4.525-4.09-10.547-7.41-15.492-12.43c-4.412-4.479-8.974-9.373-13.484-14.564c-4.189-4.821-7.859-10.424-11.947-15.837&#10;&#9;&#9;&#9;&#9;&#9;&#9;&#9;&#9;&#9;&#9;&#9;c-3.886-5.146-6.338-11.455-9.975-17.117c-3.505-5.457-7.084-10.914-10.219-16.834c-3.044-5.75-6.816-11.234-9.382-17.406&#10;&#9;&#9;&#9;&#9;&#9;&#9;&#9;&#9;&#9;&#9;&#9;c-2.404-5.781-4.395-11.658-6.521-17.415c-2.168-5.872-3.131-12.062-5-17.908c-1.905-5.96-4.015-11.746-5.599-17.68&#10;&#9;&#9;&#9;&#9;&#9;&#9;&#9;&#9;&#9;&#9;&#9;c-1.612-6.041-2.637-12.109-3.906-18.122c-1.29-6.111-3.945-11.899-4.868-17.982c-0.936-6.167-1.001-12.397-1.549-18.534&#10;&#9;&#9;&#9;&#9;&#9;&#9;&#9;&#9;&#9;&#9;&#9;c-0.554-6.202-2.156-12.333-2.302-18.504c-0.147-6.211-0.161-12.469,0.118-18.65c0.279-6.191,2.765-12.201,3.483-18.362&#10;&#9;&#9;&#9;&#9;&#9;&#9;&#9;&#9;&#9;&#9;&#9;c0.716-6.14-0.293-12.556,0.872-18.665c1.154-6.055,2.673-12.125,4.28-18.15c1.584-5.94,3.558-11.864,5.595-17.775&#10;&#9;&#9;&#9;&#9;&#9;&#9;&#9;&#9;&#9;&#9;&#9;c1.998-5.799,5.046-11.277,7.49-17.047c2.387-5.636,4.489-11.49,7.312-17.098c2.747-5.459,5.76-10.891,8.93-16.323&#10;&#9;&#9;&#9;&#9;&#9;&#9;&#9;&#9;&#9;&#9;&#9;c3.076-5.272,6.931-10.163,10.413-15.411c3.381-5.095,6.982-9.998,10.719-14.839c3.737-4.841,8.105-9.085,12.184-13.641&#10;&#9;&#9;&#9;&#9;&#9;&#9;&#9;&#9;&#9;&#9;&#9;c4.08-4.556,6.872-10.346,11.279-14.586c4.406-4.239,8.948-8.441,13.667-12.333c4.754-3.921,10.76-6.278,15.868-9.848&#10;&#9;&#9;&#9;&#9;&#9;&#9;&#9;&#9;&#9;&#9;&#9;c5.054-3.532,9.631-7.848,14.99-11.021c5.311-3.144,11.143-5.393,16.712-8.169c5.529-2.756,10.783-6.187,16.527-8.564&#10;&#9;&#9;&#9;&#9;&#9;&#9;&#9;&#9;&#9;&#9;&#9;c5.714-2.365,12.036-3.114,17.924-5.089c5.869-1.969,11.751-3.698,17.754-5.264c5.996-1.564,11.904-3.294,17.995-4.442&#10;&#9;&#9;&#9;&#9;&#9;&#9;&#9;&#9;&#9;&#9;&#9;c6.095-1.149,12.007-3.568,18.158-4.285c6.165-0.718,12.421-0.935,18.603-1.203c6.205-0.27,12.425,0.405,18.608,0.603&#10;&#9;&#9;&#9;&#9;&#9;&#9;&#9;&#9;&#9;&#9;&#9;c6.209,0.199,12.501-0.428,18.647,0.258c6.173,0.689,12.049,3.304,18.118,4.5c6.09,1.2,12.114,2.42,18.059,4.147&#10;&#9;&#9;&#9;&#9;&#9;&#9;&#9;&#9;&#9;&#9;&#9;c5.954,1.729,11.936,3.299,17.703,5.573c5.758,2.27,10.962,5.667,16.493,8.494c5.497,2.811,11.297,5.04,16.529,8.417&#10;&#9;&#9;&#9;&#9;&#9;&#9;&#9;&#9;&#9;&#9;&#9;c5.502,3.552,13.785,6.351,20.462,11.098c6.736,4.788,10.952,11.742,13.212,18.584c2.11,6.389,2.6,12.816-0.359,19.247&#10;&#9;&#9;&#9;&#9;&#9;&#9;&#9;&#9;&#9;&#9;&#9;c-2.547,5.537-6.233,11.538-11.075,16.768c-4.38,4.731-10.39,8.328-15.594,12.564c-5.33,4.338-10.646,8.587-15.778,12.16&#10;&#9;&#9;&#9;&#9;&#9;&#9;&#9;&#9;&#9;&#9;&#9;c-6.443,4.486-11.689,9.19-15.909,12.029c-5.491,3.693-11.227,7.068-16.828,10.595&#10;&#9;&#9;&#9;&#9;&#9;&#9;&#9;&#9;&#9;&#9;&#9;C494.758,756.783,488.484,759.233,482.85,762.706z" style="fill: rgb(128, 128, 128);"/>
									</g>
								</g>
								<g>
									<g>
										<path fill="#62ADAF" d="M522.661,748.632c3.228-8.582,7.453,0.639,18.892,2.735c5.101,0.935,11.102,2.351,17.988,3.53&#10;&#9;&#9;&#9;&#9;&#9;&#9;&#9;&#9;&#9;&#9;&#9;c5.53,0.947,11.304,3.676,17.809,4.719c5.711,0.915,11.984,0.486,18.333,1.435c5.817,0.87,11.914,1.477,18.182,2.345&#10;&#9;&#9;&#9;&#9;&#9;&#9;&#9;&#9;&#9;&#9;&#9;c5.89,0.815,11.99,1.346,18.207,2.136c5.941,0.754,11.867,2.706,18.048,3.415c5.987,0.687,12.183,0.307,18.34,0.932&#10;&#9;&#9;&#9;&#9;&#9;&#9;&#9;&#9;&#9;&#9;&#9;c6.026,0.612,11.999,2.477,18.138,3.012c6.061,0.529,12.135,1.571,18.257,2.008c6.093,0.434,12.223,0.873,18.327,1.199&#10;&#9;&#9;&#9;&#9;&#9;&#9;&#9;&#9;&#9;&#9;&#9;c6.125,0.327,12.339-1.525,18.427-1.323c6.153,0.203,12.252,0.533,18.318,0.59c6.185,0.058,12.296,0.276,18.338,0.164&#10;&#9;&#9;&#9;&#9;&#9;&#9;&#9;&#9;&#9;&#9;&#9;c6.21-0.115,12.403,1.353,18.406,1.039c6.237-0.327,12.165-3.242,18.115-3.807c6.256-0.594,12.443-0.16,18.309-1.042&#10;&#9;&#9;&#9;&#9;&#9;&#9;&#9;&#9;&#9;&#9;&#9;c6.269-0.943,12.501-1.118,18.237-2.422c6.243-1.419,10.88-3.897,16.378-5.783c0.191,9.553-1.334,9.229-3.918,18.428&#10;&#9;&#9;&#9;&#9;&#9;&#9;&#9;&#9;&#9;&#9;&#9;c-2.583,9.197-3.594,8.913-6.177,18.11c-2.584,9.199-2.614,9.191-5.197,18.39c-2.584,9.201-2.886,9.116-5.47,18.317&#10;&#9;&#9;&#9;&#9;&#9;&#9;&#9;&#9;&#9;&#9;&#9;c-2.584,9.199-1.286,9.564-3.87,18.763c-2.584,9.2-3.943,8.818-6.527,18.017c-2.584,9.201-0.843,9.69-3.427,18.89&#10;&#9;&#9;&#9;&#9;&#9;&#9;&#9;&#9;&#9;&#9;&#9;c-2.584,9.202-2.556,9.21-5.14,18.412c-2.584,9.201-3.586,8.919-6.17,18.12c-2.584,9.199-1.535,9.494-4.119,18.693&#10;&#9;&#9;&#9;&#9;&#9;&#9;&#9;&#9;&#9;&#9;&#9;c-2.584,9.199-4.093,8.776-6.676,17.975c-2.584,9.2-0.899,9.673-3.483,18.872c-2.584,9.202-2.347,9.269-4.931,18.47&#10;&#9;&#9;&#9;&#9;&#9;&#9;&#9;&#9;&#9;&#9;&#9;c-2.585,9.205-3.143,9.048-5.728,18.254c-2.584,9.202-3.085,9.062-5.669,18.264c-2.586,9.208-3.065,9.074-5.651,18.283&#10;&#9;&#9;&#9;&#9;&#9;&#9;&#9;&#9;&#9;&#9;&#9;s1.067,10.886-4.384,18.745c-5.623,8.106-8.175,1.371-20,1.175c-5.784-0.096-12.558-0.494-19.756-1.011&#10;&#9;&#9;&#9;&#9;&#9;&#9;&#9;&#9;&#9;&#9;&#9;c-6.28-0.451-12.999-1.036-19.693-1.982c-6.505-0.92-13.116-2.319-19.438-3.859c-6.614-1.611-13.26-4.281-19.039-6.738&#10;&#9;&#9;&#9;&#9;&#9;&#9;&#9;&#9;&#9;&#9;&#9;c-2.823-8.846-0.784-9.39-1.245-18.664c-0.461-9.272,0.838-9.337,0.376-18.609c-0.461-9.271-2.027-9.193-2.488-18.464&#10;&#9;&#9;&#9;&#9;&#9;&#9;&#9;&#9;&#9;&#9;&#9;c-0.461-9.271-0.627-9.263-1.089-18.534c-0.461-9.271,0.289-9.309-0.173-18.58c-0.461-9.274,0.562-9.325,0.101-18.598&#10;&#9;&#9;&#9;&#9;&#9;&#9;&#9;&#9;&#9;&#9;&#9;c-0.462-9.277-0.246-9.288-0.707-18.565c-0.462-9.274-0.143-9.29-0.605-18.564c-0.462-9.28-1.571-9.225-2.033-18.505&#10;&#9;&#9;&#9;&#9;&#9;&#9;&#9;&#9;&#9;&#9;&#9;s8.327-17.145-0.932-17.928c-9.357-0.792-3.761,8.037-6.369,17.058c-2.608,9.019-2.449,9.065-5.057,18.084&#10;&#9;&#9;&#9;&#9;&#9;&#9;&#9;&#9;&#9;&#9;&#9;c-2.608,9.018-2.243,9.123-4.851,18.141s-1.362,9.378-3.969,18.396c-2.608,9.018-3.706,8.7-6.313,17.718&#10;&#9;&#9;&#9;&#9;&#9;&#9;&#9;&#9;&#9;&#9;&#9;c-2.608,9.02-2.013,9.192-4.621,18.213c-2.609,9.023-2.729,8.989-5.339,18.012c-2.608,9.02-2.746,8.981-5.355,18.001&#10;&#9;&#9;&#9;&#9;&#9;&#9;&#9;&#9;&#9;&#9;&#9;c-2.61,9.027-3.036,8.903-5.647,17.93c-2.61,9.027,1.189,10.794-3.994,18.632c-5.512,8.336-7.98,0.188-20.544,0.312&#10;&#9;&#9;&#9;&#9;&#9;&#9;&#9;&#9;&#9;&#9;&#9;c-5.667,0.056-12.338-0.425-19.916-0.894c-6.108-0.379-12.842-0.038-19.957-0.959c-6.246-0.809-12.667-2.796-19.538-4.152&#10;&#9;&#9;&#9;&#9;&#9;&#9;&#9;&#9;&#9;&#9;&#9;c-6.276-1.239-13.778-1.701-20.462-3.495c-2.902-8.94,0.492-9.673,0.492-19.072c0-9.401,1.235-9.401,1.235-18.803&#10;&#9;&#9;&#9;&#9;&#9;&#9;&#9;&#9;&#9;&#9;&#9;c0-9.403-0.611-9.403-0.611-18.806c0-9.401-0.612-9.401-0.612-18.803c0-9.402-0.085-9.402-0.085-18.803&#10;&#9;&#9;&#9;&#9;&#9;&#9;&#9;&#9;&#9;&#9;&#9;c0-9.403,0.636-9.403,0.636-18.805c0-9.404-1.322-9.404-1.322-18.808c0-9.403,0.151-9.403,0.151-18.805&#10;&#9;&#9;&#9;&#9;&#9;&#9;&#9;&#9;&#9;&#9;&#9;c0-9.401,0.12-9.401,0.12-18.803c0-9.401-0.206-9.401-0.206-18.803c0-9.402,0.598-9.402,0.598-18.803&#10;&#9;&#9;&#9;&#9;&#9;&#9;&#9;&#9;&#9;&#9;&#9;c0-9.404,0.282-9.404,0.282-18.808c0-9.407-0.32-9.407-0.32-18.815c0-9.404,1.234-9.404,1.234-18.809&#10;&#9;&#9;&#9;&#9;&#9;&#9;&#9;&#9;&#9;&#9;&#9;c0-9.411,1.237-9.595-0.049-18.918C522.729,757.973,519.348,757.44,522.661,748.632z"/>
									</g>
								</g>
								<g>
									<g>
										<path fill="#8D2C2C" d="M477.39,285.11c3.149-10.362,12.168-7.992,15.055,1.066c0.321,1.006,1.359,7.738,1.43,17.59&#10;&#9;&#9;&#9;&#9;&#9;&#9;&#9;&#9;&#9;&#9;&#9;c0.037,5.081-2.371,11.025-2.406,17.504c-0.03,5.51,0.164,11.402,0.08,17.488c-0.079,5.722-0.449,11.597-0.578,17.486&#10;&#9;&#9;&#9;&#9;&#9;&#9;&#9;&#9;&#9;&#9;&#9;c-0.129,5.889,1.477,11.822,1.296,17.546c-0.192,6.085,0.31,12.025,0.057,17.537c-0.297,6.46-1.755,12.344-2.139,17.422&#10;&#9;&#9;&#9;&#9;&#9;&#9;&#9;&#9;&#9;&#9;&#9;c-0.512,6.771-1.691,13.509-2.424,20.296c-0.732,6.774-2.473,13.368-3.596,20.082c-1.126,6.727-1.268,13.605-2.958,20.198&#10;&#9;&#9;&#9;&#9;&#9;&#9;&#9;&#9;&#9;&#9;&#9;c-1.425,5.555-3.06,12.634-5.903,18.984c-2.863,6.395-7.268,11.313-13.009,14.148c-1.111,0.549-9.23,4.248-9.996,2.452&#10;&#9;&#9;&#9;&#9;&#9;&#9;&#9;&#9;&#9;&#9;&#9;c-0.006-0.014,0.371-5.272-0.89-14.632c-0.53-3.935-1.145-8.603-1.231-14.235c-0.477-9.685-1.085-6.822-0.986-19.331&#10;&#9;&#9;&#9;&#9;&#9;&#9;&#9;&#9;&#9;&#9;&#9;c0.043-5.433-1.217-11.983-0.842-19.441c0.295-5.868,2.215-12.24,2.821-19.25c0.521-6.037,1.612-12.411,2.428-19.226&#10;&#9;&#9;&#9;&#9;&#9;&#9;&#9;&#9;&#9;&#9;&#9;c0.731-6.115,0.225-12.709,1.238-19.402c0.93-6.147,3.287-12.307,4.49-18.905c1.123-6.16,0.504-12.882,1.892-19.406&#10;&#9;&#9;&#9;&#9;&#9;&#9;&#9;&#9;&#9;&#9;&#9;c1.309-6.154,4.697-12.019,6.265-18.472c1.492-6.14,1.942-12.699,3.689-19.088&#10;&#9;&#9;&#9;&#9;&#9;&#9;&#9;&#9;&#9;&#9;&#9;C472.842,297.408,475.469,291.432,477.39,285.11z" style="fill: rgb(141, 44, 44);"/>
									</g>
								</g>
								<g>
									<g>
										<path fill="#6F7170" d="M504.034,308.5c-0.004-0.005-4.758-4.795-12.669-13.184c-3.665-3.887-7.12-9.251-11.764-14.477&#10;&#9;&#9;&#9;&#9;&#9;&#9;&#9;&#9;&#9;&#9;&#9;c-3.839-4.32-9.048-8.087-13.272-13.141c-3.829-4.582-7.973-9.298-11.918-14.355c-3.743-4.799-7.169-10.063-10.848-15.182&#10;&#9;&#9;&#9;&#9;&#9;&#9;&#9;&#9;&#9;&#9;&#9;c-3.604-5.015-7.207-10.141-10.594-15.363c-3.402-5.245-6.79-10.533-9.817-15.888c-3.113-5.507-4.741-11.682-7.29-17.198&#10;&#9;&#9;&#9;&#9;&#9;&#9;&#9;&#9;&#9;&#9;&#9;c-2.688-5.816-5.114-11.488-6.983-17.19c-2.02-6.164-4.838-11.934-5.658-17.81c-0.645-4.623,7.038-14.757,8.546-19.542&#10;&#9;&#9;&#9;&#9;&#9;&#9;&#9;&#9;&#9;&#9;&#9;c1.476-4.683,1.251-9.759,2.159-14.567c0.909-4.814,3.703-9.416,4.003-14.313c0.146-2.383-4.224-4.323-6.034-2.766&#10;&#9;&#9;&#9;&#9;&#9;&#9;&#9;&#9;&#9;&#9;&#9;c-2.797,2.408-10.881,16.117-13.516,20.654c-0.012-0.05-3.132-9.47-5.24-21.173c-1.161-6.446-2.779-13.694-3.561-20.822&#10;&#9;&#9;&#9;&#9;&#9;&#9;&#9;&#9;&#9;&#9;&#9;c-0.836-7.618-1.16-15.144-0.712-21.147c0.284-3.807-6.456,2.604-6.588,2.762c-4.214,5.06-6.271,12.708-7.148,20.75&#10;&#9;&#9;&#9;&#9;&#9;&#9;&#9;&#9;&#9;&#9;&#9;c-0.867,7.949-0.336,17.058-1.369,23.076c-2.585-4.465-5.296-10.293-6.56-15.509c-1.263-5.211-1.975-10.64-2.611-15.672&#10;&#9;&#9;&#9;&#9;&#9;&#9;&#9;&#9;&#9;&#9;&#9;c-0.514-4.062,1.856-16.449-4.687-12.74c-3.536,2.004-1.62,11.118-1.889,14.343c-0.468,5.592-0.909,11.128-0.981,16.739&#10;&#9;&#9;&#9;&#9;&#9;&#9;&#9;&#9;&#9;&#9;&#9;c-0.071,5.611-1.058,10.482-0.729,16.084c-2.284-4.829-3.132-9.059-4.224-14.041c-1.095-4.994-1.249-10.197-2.327-15.348&#10;&#9;&#9;&#9;&#9;&#9;&#9;&#9;&#9;&#9;&#9;&#9;c-0.34-1.627-2.104-2.66-3.379-3.725c-4.207-3.514-5.158,4.49-5.86,6.843c-0.555,8.936-0.826,8.906-0.826,17.859&#10;&#9;&#9;&#9;&#9;&#9;&#9;&#9;&#9;&#9;&#9;&#9;c0,8.952,0.935,17.896,0.935,17.898c-0.05-5.862-8.191-22.219-11.188-25.604c-2.542,2.558-3.145,5.705-2.975,9.41&#10;&#9;&#9;&#9;&#9;&#9;&#9;&#9;&#9;&#9;&#9;&#9;c0.3,6.53,2.489,12.783,4.257,19.077c1.728,6.149,3.805,12.215,5.416,18.387c1.613,6.178,0.937,12.934,2.47,19.126&#10;&#9;&#9;&#9;&#9;&#9;&#9;&#9;&#9;&#9;&#9;&#9;c1.535,6.196,4.444,12.052,5.935,18.256c1.493,6.207,2.058,12.635,3.545,18.841c1.487,6.206,4.295,12.093,5.813,18.291&#10;&#9;&#9;&#9;&#9;&#9;&#9;&#9;&#9;&#9;&#9;&#9;c1.518,6.198,2.86,12.434,4.446,18.617c1.585,6.179,3.63,12.226,5.321,18.383c1.689,6.149,3.736,12.176,5.566,18.295&#10;&#9;&#9;&#9;&#9;&#9;&#9;&#9;&#9;&#9;&#9;&#9;c1.826,6.106,2.415,12.594,4.419,18.664c2.02,6.118,4.01,12.255,6.153,18.339c2.141,6.078,5.278,11.792,7.545,17.829&#10;&#9;&#9;&#9;&#9;&#9;&#9;&#9;&#9;&#9;&#9;&#9;c2.266,6.033,4.055,12.245,6.45,18.231c2.394,5.985,4.87,11.934,7.396,17.865c2.526,5.931,4.004,12.335,6.664,18.207&#10;&#9;&#9;&#9;&#9;&#9;&#9;&#9;&#9;&#9;&#9;&#9;c2.661,5.872,6.701,11.109,9.499,16.916c2.799,5.808,6.371,11.211,9.311,16.946c2.941,5.737,5.86,11.454,8.946,17.113&#10;&#9;&#9;&#9;&#9;&#9;&#9;&#9;&#9;&#9;&#9;&#9;c3.087,5.66,4.506,12.257,7.74,17.832c3.235,5.577,6.978,10.871,10.363,16.357c3.386,5.486,6.73,11.015,10.27,16.404&#10;&#9;&#9;&#9;&#9;&#9;&#9;&#9;&#9;&#9;&#9;&#9;c3.539,5.387,8.567,9.751,12.262,15.035c0.013-0.029,2.313-5.45,7.352-16.893c2.194-4.984,4.983-10.848,7.403-17.959&#10;&#9;&#9;&#9;&#9;&#9;&#9;&#9;&#9;&#9;&#9;&#9;c1.894-5.566,4.881-11.475,6.673-18.332c1.531-5.86,3.314-12.184,4.627-18.98c1.166-6.037,1.058-12.667,1.953-19.438&#10;&#9;&#9;&#9;&#9;&#9;&#9;&#9;&#9;&#9;&#9;&#9;c0.814-6.153,1.95-12.574,2.467-19.329c0.476-6.225,1.234-12.718,1.402-19.452c0.156-6.271-1.604-12.763-1.762-19.472&#10;&#9;&#9;&#9;&#9;&#9;&#9;&#9;&#9;&#9;&#9;&#9;c-0.148-6.293,1.495-12.871,1.034-19.547C506.966,321.469,504.779,315.137,504.034,308.5z" style="fill: rgb(128, 128, 128);"/>
									</g>
								</g>
								<g>
									<g>
										<path fill="#6F7170" d="M663.992,305.688c-9.065,2.688,0.749,6.837-5.721,18.116c-2.526,4.404-6.863,9.134-11.747,14.967&#10;&#9;&#9;&#9;&#9;&#9;&#9;&#9;&#9;&#9;&#9;&#9;c-1.444,9.173,2.639,7.209,8.326,16.673c2.811,4.677,6.571,9.816,10.755,15.155c3.643,4.649,7.599,9.581,12.276,13.958&#10;&#9;&#9;&#9;&#9;&#9;&#9;&#9;&#9;&#9;&#9;&#9;c4.436,4.151,9.752,7.493,15.112,10.768c5.197,3.175,10.951,5.131,17.012,6.913c5.723,1.683,11.572,4.217,18.06,4.173&#10;&#9;&#9;&#9;&#9;&#9;&#9;&#9;&#9;&#9;&#9;&#9;c5.8-0.04,12.216-0.435,18.624-2.212c5.518-1.531,11.258-4.294,17.225-7.346c5.107-2.612,10.495-5.83,15.929-9.703&#10;&#9;&#9;&#9;&#9;&#9;&#9;&#9;&#9;&#9;&#9;&#9;c4.707-3.354,8.987-7.944,13.939-12.338c4.357-3.867,8.568-8.364,13.114-13.1c4.065-4.235,7.731-8.46,11.947-13.435&#10;&#9;&#9;&#9;&#9;&#9;&#9;&#9;&#9;&#9;&#9;&#9;c-0.229-9.122-1.729-8.78-4.12-17.586s3.005-12.566-4.108-18.283c-7.123-5.725-9.62,0.01-18.747-0.443&#10;&#9;&#9;&#9;&#9;&#9;&#9;&#9;&#9;&#9;&#9;&#9;s-9.149-0.009-18.276-0.461c-9.127-0.452-9.177,0.543-18.304,0.091c-9.13-0.453-9.059-1.882-18.189-2.334&#10;&#9;&#9;&#9;&#9;&#9;&#9;&#9;&#9;&#9;&#9;&#9;c-9.133-0.453-9.105-1.012-18.238-1.465c-9.13-0.453-9.156,0.067-18.286-0.386c-9.136-0.453-9.305,1.07-18.334-0.395&#10;&#9;&#9;&#9;&#9;&#9;&#9;&#9;&#9;&#9;&#9;&#9;C673.055,305.523,672.762,303.087,663.992,305.688z" style="fill: rgb(128, 128, 128);"/>
									</g>
								</g>
								<g>
									<g>
										<g>
											<path fill="#2E3744" d="M883.263,125.476c0.307,4.254,1.231,11.577,0.086,19.792c-0.846,6.074-4.071,12.132-6.887,18.447&#10;&#9;&#9;&#9;&#9;&#9;&#9;&#9;&#9;&#9;&#9;&#9;&#9;c-2.591,5.809-4.703,12.364-9.773,17.048c-4.455,4.117-10.733,6.35-17.668,8.674c-5.554,1.862-11.596,3.471-19.046,3.684&#10;&#9;&#9;&#9;&#9;&#9;&#9;&#9;&#9;&#9;&#9;&#9;&#9;c-8.591-6.742-6.757-8.505-13.669-16.959s-10.218-6.435-14.739-16.375c-3.762-8.271,3.813-6.905,11.334-14.795&#10;&#9;&#9;&#9;&#9;&#9;&#9;&#9;&#9;&#9;&#9;&#9;&#9;c3.602-3.778,8.139-7.833,13.956-11.477c4.675-2.928,10.425-4.559,16.716-6.667c5.289-1.772,10.895-3.321,17.433-4.088&#10;&#9;&#9;&#9;&#9;&#9;&#9;&#9;&#9;&#9;&#9;&#9;&#9;c5.57-0.653,11.554-3.076,18.096-2.739C881.414,120.141,883.097,123.168,883.263,125.476z"/>
										</g>
									</g>
									<g>
										<g>
											<path fill="#707070" d="M858.855,144.383c0.296,4.104,1.202,12.563-1.505,20.935c-2.035,6.295-5.216,13.453-11.615,17.8&#10;&#9;&#9;&#9;&#9;&#9;&#9;&#9;&#9;&#9;&#9;&#9;&#9;c-4.901,3.329-12.442,5.028-21.089,5.274c-10.884-8.852-10.562-9.897-16.682-22.521&#10;&#9;&#9;&#9;&#9;&#9;&#9;&#9;&#9;&#9;&#9;&#9;&#9;c-4.242-8.751,2.979-7.125,12.106-13.95c4.417-3.303,10.136-5.906,17.456-7.779c5.51-1.41,11.742-3.464,19.144-3.083&#10;&#9;&#9;&#9;&#9;&#9;&#9;&#9;&#9;&#9;&#9;&#9;&#9;C858.156,141.134,858.748,142.9,858.855,144.383z"/>
										</g>
									</g>
								</g>
								<g>
									<g>
										<g>
											<path fill="#2E3744" d="M573.823,134.195c0.615,4.221,0.92,11.566,3.804,19.343c2.133,5.75,4.655,12.302,8.764,17.864&#10;&#9;&#9;&#9;&#9;&#9;&#9;&#9;&#9;&#9;&#9;&#9;&#9;c3.779,5.116,8.671,10.259,14.629,13.744c5.236,3.062,12.085,3.593,19.357,4.371c5.825,0.624,12.189,0.851,19.511-0.544&#10;&#9;&#9;&#9;&#9;&#9;&#9;&#9;&#9;&#9;&#9;&#9;&#9;c6.94-8.432,5.667-9.338,10.598-19.081c4.932-9.743,7.195-9.074,9.472-19.754c1.895-8.886-4.631-6.104-13.673-12.192&#10;&#9;&#9;&#9;&#9;&#9;&#9;&#9;&#9;&#9;&#9;&#9;&#9;c-4.33-2.915-9.748-5.815-16.212-8.122c-5.193-1.853-11.096-3.216-17.691-3.921c-5.547-0.593-11.633-1.208-18.185-0.551&#10;&#9;&#9;&#9;&#9;&#9;&#9;&#9;&#9;&#9;&#9;&#9;&#9;c-5.581,0.56-11.672,1.432-17.99,3.168C573.977,129.134,573.489,131.905,573.823,134.195z"/>
										</g>
									</g>
									<g>
										<g>
											<path fill="#707070" d="M600.864,147.535c0.594,4.072,2.83,11.869,7.273,19.462c3.341,5.71,7.63,10.862,14.813,13.731&#10;&#9;&#9;&#9;&#9;&#9;&#9;&#9;&#9;&#9;&#9;&#9;&#9;c5.502,2.197,11.687,3.35,20.184,1.731c8.726-10.986,9.539-11.15,12.8-24.795c2.261-9.458-5.041-6.261-15.423-10.963&#10;&#9;&#9;&#9;&#9;&#9;&#9;&#9;&#9;&#9;&#9;&#9;&#9;c-5.024-2.276-11.041-5.146-18.592-5.401c-5.684-0.192-12.241,0.585-19.388,2.549&#10;&#9;&#9;&#9;&#9;&#9;&#9;&#9;&#9;&#9;&#9;&#9;&#9;C601.099,144.243,600.65,146.064,600.864,147.535z"/>
										</g>
									</g>
								</g>
								<g>
									<g>
										<path fill="#B6B6B6" d="M694.867,105.365c5.393-2.098,10.597-4.925,16.391-5.967c5.698-1.024,11.576-1.76,17.451-1.814&#10;&#9;&#9;&#9;&#9;&#9;&#9;&#9;&#9;&#9;&#9;&#9;c5.814-0.054,11.75,0.243,17.535,1.087c5.789,0.845,11.332,3.011,16.888,4.705c5.633,1.718,11.107,3.708,16.291,6.246&#10;&#9;&#9;&#9;&#9;&#9;&#9;&#9;&#9;&#9;&#9;&#9;c5.318,2.604,10.355,5.555,14.975,8.967c4.585,3.386,8.94,7.086,12.796,11.287c3.913,4.262,6.3,9.531,9.201,14.518&#10;&#9;&#9;&#9;&#9;&#9;&#9;&#9;&#9;&#9;&#9;&#9;c2.893,4.973,5.919,9.796,7.871,15.24c1.947,5.432,4.591,10.752,5.663,16.406c0.991,5.228,0.385,10.799,1.34,16.075&#10;&#9;&#9;&#9;&#9;&#9;&#9;&#9;&#9;&#9;&#9;&#9;c0.956,5.279,2.921,10.347,4.429,15.46c1.507,5.11,3.053,10.245,5.699,14.975c4.597,8.216,10.982,15.198,16.828,22.497&#10;&#9;&#9;&#9;&#9;&#9;&#9;&#9;&#9;&#9;&#9;&#9;c3.057,3.817,5.829,7.718,8.302,11.89c2.472,4.17,4.439,8.573,6.55,12.972c2.543,5.298,5.274,10.491,7.145,16.063&#10;&#9;&#9;&#9;&#9;&#9;&#9;&#9;&#9;&#9;&#9;&#9;c1.872,5.573,3.101,11.304,4.248,17.068c1.146,5.763,3.217,11.462,3.585,17.333c-0.08-1.269-10.384-3.313-11.389-3.739&#10;&#9;&#9;&#9;&#9;&#9;&#9;&#9;&#9;&#9;&#9;&#9;c-7.944-3.362-15.702-7.985-24.251-9.225c-4.745-0.688-9.922-0.784-14.808-0.445c-4.93,0.342-9.684,2.136-14.041,4.351&#10;&#9;&#9;&#9;&#9;&#9;&#9;&#9;&#9;&#9;&#9;&#9;c-5.393,2.742-10.693,5.655-15.885,8.756c-5.185,3.097-10.115,6.662-15.464,9.47c-5.953,3.125-11.994,6.373-18.323,8.662&#10;&#9;&#9;&#9;&#9;&#9;&#9;&#9;&#9;&#9;&#9;&#9;c-6.336,2.291-13.331,2.293-19.924,3.608c-6.6,1.317-13.117,2.458-19.853,2.658c-6.718,0.199-13.549,1.077-20.199,0.047&#10;&#9;&#9;&#9;&#9;&#9;&#9;&#9;&#9;&#9;&#9;&#9;c-6.66-1.031-13.308-2.793-19.623-5.087c-6.325-2.298-11.559-6.805-17.26-10.401c-4.266-2.691-8.246-5.602-12.251-8.673&#10;&#9;&#9;&#9;&#9;&#9;&#9;&#9;&#9;&#9;&#9;&#9;c-3.995-3.064-7.959-6.287-12.115-9.124c-5.533-3.777-12.327-5.674-18.708-7.535c-6.413-1.87-13.126-2.494-19.779-2.338&#10;&#9;&#9;&#9;&#9;&#9;&#9;&#9;&#9;&#9;&#9;&#9;c-6.665,0.156-13.664,0.19-19.948,2.471c-6.182,2.244-11.798,6.385-17.014,10.774c0.818-0.688,1.794-6.959,1.957-8.112&#10;&#9;&#9;&#9;&#9;&#9;&#9;&#9;&#9;&#9;&#9;&#9;c1.029-7.294,0.764-14.928,2.898-21.977c2.061-6.808,4.777-13.564,7.893-19.954c3.117-6.39,6.775-12.694,10.932-18.472&#10;&#9;&#9;&#9;&#9;&#9;&#9;&#9;&#9;&#9;&#9;&#9;c3.792-5.273,9.394-8.937,13.866-13.481c4.507-4.58,8.196-9.876,12.358-14.748c4.089-4.786,7.374-9.954,10.137-16.012&#10;&#9;&#9;&#9;&#9;&#9;&#9;&#9;&#9;&#9;&#9;&#9;c2.969-6.509,4.661-13.228,6.12-20.255c1.449-6.978,2.943-13.999,4.431-20.959c1.501-7.02,4.045-13.744,7.141-20.205&#10;&#9;&#9;&#9;&#9;&#9;&#9;&#9;&#9;&#9;&#9;&#9;c2.742-5.723,5.03-11.691,8.853-16.19c4.016-4.727,10.143-7.109,15.105-10.547&#10;&#9;&#9;&#9;&#9;&#9;&#9;&#9;&#9;&#9;&#9;&#9;C683.916,110.224,689.158,107.586,694.867,105.365z"/>
									</g>
								</g>
								<g>
									<g>
										<path fill="#6F7170" d="M858.202,245.066c-5.846-7.299-10.979-14.986-15.576-23.202&#10;&#9;&#9;&#9;&#9;&#9;&#9;&#9;&#9;&#9;&#9;&#9;c-2.617-4.678-4.591-9.596-6.091-14.647c-5.138-6.083-12.309-10.307-19.169-14.371c-5.587-3.31-11.074-6.986-17.324-8.62&#10;&#9;&#9;&#9;&#9;&#9;&#9;&#9;&#9;&#9;&#9;&#9;c-6.286-1.643-12.843-0.976-19.309-0.709c-6.431,0.266-13.266-0.512-19.39,1.857c-4.842,1.873-9.253,5.032-14.139,6.812&#10;&#9;&#9;&#9;&#9;&#9;&#9;&#9;&#9;&#9;&#9;&#9;c-4.931,1.797-9.921,3.543-15.145,3.941c-5.702,0.434-10.92-0.537-15.619-2.4c-4.856-1.925-9.202-5.096-13.924-7.441&#10;&#9;&#9;&#9;&#9;&#9;&#9;&#9;&#9;&#9;&#9;&#9;c-4.632-2.3-9.305-5.196-14.717-5.932c-7.792-1.06-15.484,1.456-22.878,3.871c-7.377,2.409-14.972,4.995-21.329,9.213&#10;&#9;&#9;&#9;&#9;&#9;&#9;&#9;&#9;&#9;&#9;&#9;c-1.226,0.813-1.466,2.65-2.662,3.508c-0.679,1.915-1.897,3.467-2.744,5.324c-2.764,6.061-6.313,11.375-10.405,16.162&#10;&#9;&#9;&#9;&#9;&#9;&#9;&#9;&#9;&#9;&#9;&#9;c-4.163,4.871-8.852,9.27-13.359,13.85c-4.469,4.542-8.402,9.492-12.193,14.762c-4.156,5.779-9.322,11.04-12.439,17.43&#10;&#9;&#9;&#9;&#9;&#9;&#9;&#9;&#9;&#9;&#9;&#9;c-3.117,6.39-5.51,13.277-7.571,20.085c-2.134,7.049-1.926,14.652-2.955,21.946c-0.163,1.153-0.598,8.155-1.415,8.843&#10;&#9;&#9;&#9;&#9;&#9;&#9;&#9;&#9;&#9;&#9;&#9;c5.197-4.372,10.381-8.651,16.537-10.893c6.259-2.28,13.032-2.242,19.672-2.411c6.628-0.169,13.183-1.047,19.579,0.795&#10;&#9;&#9;&#9;&#9;&#9;&#9;&#9;&#9;&#9;&#9;&#9;c5.796-3.02,12.071-3.807,17.749-6.262c5.998-2.593,11.281-6.497,17.136-8.503c6.177-2.117,12.335-3.874,18.338-5.388&#10;&#9;&#9;&#9;&#9;&#9;&#9;&#9;&#9;&#9;&#9;&#9;c6.327-1.596,12.544-3.233,18.661-4.219c6.436-1.038,12.846-1.582,19.031-2.015c6.501-0.454,12.89,1.004,19.092,1.137&#10;&#9;&#9;&#9;&#9;&#9;&#9;&#9;&#9;&#9;&#9;&#9;c6.517,0.14,12.945-0.859,19.105-0.164c6.486,0.732,12.606,2.787,18.667,4.025c6.416,1.31,12.464,3.134,18.368,4.881&#10;&#9;&#9;&#9;&#9;&#9;&#9;&#9;&#9;&#9;&#9;&#9;c6.324,1.871,12.106,4.391,17.799,6.605c6.223,2.42,12.239,4.387,17.653,7.013c6.154,2.984,12.201,4.948,17.231,7.903&#10;&#9;&#9;&#9;&#9;&#9;&#9;&#9;&#9;&#9;&#9;&#9;c8.54,1.242,17.115,3.419,25.051,6.777c1.005,0.425,10.417,4.476,10.497,5.746c-0.368-5.871-2.13-11.626-3.276-17.389&#10;&#9;&#9;&#9;&#9;&#9;&#9;&#9;&#9;&#9;&#9;&#9;c-1.147-5.764-3.575-11.128-5.447-16.701c-1.871-5.572-3.22-11.293-5.763-16.592c-2.111-4.399-3.627-9.12-6.1-13.289&#10;&#9;&#9;&#9;&#9;&#9;&#9;&#9;&#9;&#9;&#9;&#9;C864.952,252.233,861.259,248.883,858.202,245.066z" style="fill: rgb(128, 128, 128);"/>
									</g>
								</g>
								<g>
									<g>
										<path fill="#062148" d="M789.227,228.582c0.115,4.988-0.33,9.602-2.599,9.654s-3.867-4.514-3.982-9.503&#10;&#9;&#9;&#9;&#9;&#9;&#9;&#9;&#9;&#9;&#9;&#9;c-0.115-4.988,1.26-10.095,3.53-10.147S789.112,223.594,789.227,228.582z"/>
									</g>
								</g>
								<g>
									<g>
										<path fill="#062148" d="M685.074,235.865c0.115,4.988-0.603,8.754-2.872,8.807c-2.269,0.052-4.866-3.638-4.98-8.626&#10;&#9;&#9;&#9;&#9;&#9;&#9;&#9;&#9;&#9;&#9;&#9;s2.286-9.796,4.555-9.848S684.959,230.877,685.074,235.865z"/>
									</g>
								</g>
								<g>
									<g>
										<path fill="#5B70A4" d="M796.886,150.592c-5.038,3.403-10.008,7.072-15.329,10.361c-5.2,3.213-11.01,5.469-16.443,8.512&#10;&#9;&#9;&#9;&#9;&#9;&#9;&#9;&#9;&#9;&#9;&#9;c-5.355,3-10.079,7.241-15.624,10.018c-5.508,2.759-11.515,4.484-17.175,6.967c-5.659,2.483-11.444,4.538-17.219,6.689&#10;&#9;&#9;&#9;&#9;&#9;&#9;&#9;&#9;&#9;&#9;&#9;c-5.806,2.163-11.014,6.072-16.901,7.843c-5.945,1.788-12.066,3.065-18.057,4.395c-6.068,1.348-12.335,1.516-18.411,2.333&#10;&#9;&#9;&#9;&#9;&#9;&#9;&#9;&#9;&#9;&#9;&#9;c-6.161,0.829-12.264,2.137-18.393,2.359c-5.494,0.199-11.109-1.631-16.768-2.105c-5.662-0.474-11.513,0.354-16.84-1.096&#10;&#9;&#9;&#9;&#9;&#9;&#9;&#9;&#9;&#9;&#9;&#9;c-4.225-1.15-8.762-4.713-9.001-9.086c-0.423-7.772,9.733-15.926,15.292-19.962c3.71-2.693,9.924-6.13,15.714-9.907&#10;&#9;&#9;&#9;&#9;&#9;&#9;&#9;&#9;&#9;&#9;&#9;c5.944-3.877,12.036-7.97,16.703-8.261c0.005,0,7.369,1.125,18.686,0.419c5.393-0.336,11.633-1.896,18.518-2.325&#10;&#9;&#9;&#9;&#9;&#9;&#9;&#9;&#9;&#9;&#9;&#9;c5.854-0.365,12.068-1.627,18.537-2.03c6.081-0.379,12.413,0.399,18.672,0.009c6.26-0.391,12.477-1.471,18.559-1.85&#10;&#9;&#9;&#9;&#9;&#9;&#9;&#9;&#9;&#9;&#9;&#9;c6.471-0.404,12.719-1.174,18.575-1.539c6.889-0.43,13.209-0.759,18.605-1.096&#10;&#9;&#9;&#9;&#9;&#9;&#9;&#9;&#9;&#9;&#9;&#9;C789.906,150.532,796.886,150.592,796.886,150.592z" style="fill: rgb(142, 160, 204);"/>
									</g>
								</g>
								<g>
									<g>
										<path fill="#5B70A4" d="M644.16,161.46c-8.587-2.608-2.028-7.88,0.797-18.209c1.357-4.962,5.252-9.956,8.847-15.759&#10;&#9;&#9;&#9;&#9;&#9;&#9;&#9;&#9;&#9;&#9;&#9;c2.844-4.59,5.508-10.162,10.33-14.717c3.966-3.746,8.654-7.759,14.272-11.176c4.698-2.857,10.363-5.173,16.399-7.623&#10;&#9;&#9;&#9;&#9;&#9;&#9;&#9;&#9;&#9;&#9;&#9;c5.145-2.088,10.798-4.295,17.026-5.979c5.412-1.463,11.46-2.341,17.763-3.428c10.15-0.43,8.586-0.023,20.275,2.568&#10;&#9;&#9;&#9;&#9;&#9;&#9;&#9;&#9;&#9;&#9;&#9;c5.866,1.3,12.419,3.908,19.322,6.488c6.096,2.279,12.694,4.615,18.662,8.2c5.721,3.437,11.505,7.494,16.32,12.391&#10;&#9;&#9;&#9;&#9;&#9;&#9;&#9;&#9;&#9;&#9;&#9;c4.633,4.713,8.42,10.637,11.511,16.934c2.812,5.728,4.441,12.547,5.432,19.764c-8.974,4.037-9.909,0.164-19.731,0.751&#10;&#9;&#9;&#9;&#9;&#9;&#9;&#9;&#9;&#9;&#9;&#9;c-9.821,0.587-9.87-0.231-19.691,0.356c-9.821,0.587-9.686,2.838-19.507,3.424c-9.821,0.587-9.82,0.603-19.641,1.189&#10;&#9;&#9;&#9;&#9;&#9;&#9;&#9;&#9;&#9;&#9;&#9;c-9.824,0.587-9.955-1.608-19.778-1.021c-9.827,0.587-9.838,0.408-19.665,0.995c-9.824,0.587-9.683,2.949-19.507,3.536&#10;&#9;&#9;&#9;&#9;&#9;&#9;&#9;&#9;&#9;&#9;&#9;c-9.831,0.587-10.104-2.108-19.799-0.375C653.91,161.536,653.583,164.322,644.16,161.46z" style="fill: rgb(142, 160, 204);"/>
									</g>
								</g>
								<g>
									<g>
										<path fill="#062148" d="M645.028,161.266c4.893-0.589,8.918-1.531,13.818-2.008c4.903-0.477,9.795-1.131,14.701-1.556&#10;&#9;&#9;&#9;&#9;&#9;&#9;&#9;&#9;&#9;&#9;&#9;c4.905-0.428,9.914,0.462,14.824,0.106c4.909-0.356,9.836-0.389,14.745-0.764c4.915-0.27,9.726-2.228,14.64-2.512&#10;&#9;&#9;&#9;&#9;&#9;&#9;&#9;&#9;&#9;&#9;&#9;c4.914-0.284,9.919,1.322,14.838,1.106c7.379-0.306,7.3-2.358,14.68-2.621c4.926-0.104,11.135,0.552,16.066,0.527&#10;&#9;&#9;&#9;&#9;&#9;&#9;&#9;&#9;&#9;&#9;&#9;c-4.893,0.616-11.125,0.38-16.023,0.916c-7.352,0.698-7.312,1.105-14.668,1.761c-4.905,0.424-9.841,0.332-14.751,0.689&#10;&#9;&#9;&#9;&#9;&#9;&#9;&#9;&#9;&#9;&#9;&#9;c-4.909,0.357-9.831,0.427-14.74,0.799c-4.916,0.266-9.818,0.62-14.733,0.905c-4.914,0.285-9.777,1.397-14.696,1.611&#10;&#9;&#9;&#9;&#9;&#9;&#9;&#9;&#9;&#9;&#9;&#9;c-4.92,0.216-9.841,0.36-14.764,0.524C654.045,160.913,649.956,161.214,645.028,161.266z"/>
									</g>
								</g>
								<g>
									<defs>
										<path id="SVGID_3_" d="M644.564,160.127c-8.587-2.608-1.129-6.191,1.696-16.519c1.357-4.962,3.555-10.556,7.15-16.359&#10;&#9;&#9;&#9;&#9;&#9;&#9;&#9;&#9;&#9;&#9;&#9;c2.844-4.59,7.284-8.455,12.106-13.01c3.966-3.746,8.024-7.985,13.642-11.402c4.698-2.857,10.222-4.904,16.258-7.354&#10;&#9;&#9;&#9;&#9;&#9;&#9;&#9;&#9;&#9;&#9;&#9;c5.145-2.088,10.305-5.364,16.533-7.048c5.412-1.463,11.349-2.608,17.652-3.695c10.15-0.43,8.441,0.424,20.131,3.014&#10;&#9;&#9;&#9;&#9;&#9;&#9;&#9;&#9;&#9;&#9;&#9;c5.866,1.3,12.619,3.12,19.522,5.7c6.096,2.279,11.662,6.397,17.63,9.982c5.721,3.437,11.035,7.296,15.849,12.193&#10;&#9;&#9;&#9;&#9;&#9;&#9;&#9;&#9;&#9;&#9;&#9;c4.633,4.713,9.352,9.472,12.443,15.768c2.812,5.728,5.291,13.062,6.282,20.279c-8.974,4.037-10.254-0.626-20.076-0.04&#10;&#9;&#9;&#9;&#9;&#9;&#9;&#9;&#9;&#9;&#9;&#9;c-9.821,0.587-9.854,0.025-19.675,0.611c-9.821,0.587-9.788,1.139-19.609,1.726c-9.821,0.587-9.797,0.995-19.618,1.582&#10;&#9;&#9;&#9;&#9;&#9;&#9;&#9;&#9;&#9;&#9;&#9;c-9.824,0.587-9.846,0.211-19.67,0.797c-9.827,0.587-9.781,1.357-19.608,1.944c-9.824,0.587-9.926-1.119-19.75-0.532&#10;&#9;&#9;&#9;&#9;&#9;&#9;&#9;&#9;&#9;&#9;&#9;c-9.831,0.587-9.971,0.021-19.729,1.349C654.046,160.432,653.987,162.989,644.564,160.127z"/>
									</defs>
									<clipPath id="SVGID_4_">
										<use xlink:href="#SVGID_3_" overflow="visible"/>
									</clipPath>
									<g clip-path="url(#SVGID_4_)">
										<g>
											<g>
												<path fill="#062148" d="M737.163,187.118c-1.169,0.58-1.625-0.763-1.268-2.018c3.75-4.474,4.636-10.845,5.648-17.704&#10;&#9;&#9;&#9;&#9;&#9;&#9;&#9;&#9;&#9;&#9;&#9;&#9;&#9;c0.864-5.857,0.807-12.257,0.312-18.839c-0.471-6.269-1.621-12.58-2.804-18.678c-1.292-6.658-1.296-13.364-2.802-18.81&#10;&#9;&#9;&#9;&#9;&#9;&#9;&#9;&#9;&#9;&#9;&#9;&#9;&#9;c-2.915-10.54-7.23-17.324-7.313-17.544c-0.398-1.061-1.057-1.534-0.335-2.408c0.721-0.874,1.173,0.499,2.291,0.687&#10;&#9;&#9;&#9;&#9;&#9;&#9;&#9;&#9;&#9;&#9;&#9;&#9;&#9;c0.219,0.037,7.894,0.089,17.992,3.766c5.04,1.836,10.886,4.397,16.812,7.56c5.104,2.724,10.367,6.233,15.403,10.134&#10;&#9;&#9;&#9;&#9;&#9;&#9;&#9;&#9;&#9;&#9;&#9;&#9;&#9;c4.679,3.625,7.936,9.073,11.998,13.863c3.824,4.51,8.455,8.709,11.27,14.375c2.592,5.216,3.299,11.011,4.67,17.305&#10;&#9;&#9;&#9;&#9;&#9;&#9;&#9;&#9;&#9;&#9;&#9;&#9;&#9;c-0.221,1.286-1.913,2.513-2.669,1.449c-1.301-5.976-1.526-12.508-3.974-17.482c-2.655-5.393-6.606-9.863-10.216-14.182&#10;&#9;&#9;&#9;&#9;&#9;&#9;&#9;&#9;&#9;&#9;&#9;&#9;&#9;c-3.826-4.578-8.723-7.751-13.147-11.248c-4.738-3.745-8.563-8.569-13.409-11.227&#10;&#9;&#9;&#9;&#9;&#9;&#9;&#9;&#9;&#9;&#9;&#9;&#9;&#9;c-5.548-3.043-11.399-4.657-16.246-6.496c-7.436-2.821-13.355-4.185-16.463-4.879c1.162,3.289,3.861,9.554,6.103,17.851&#10;&#9;&#9;&#9;&#9;&#9;&#9;&#9;&#9;&#9;&#9;&#9;&#9;&#9;c1.504,5.566,2.55,12.049,3.766,18.685c1.129,6.16,1.569,12.624,1.933,18.916c0.383,6.608,1.241,13.203,0.218,19.095&#10;&#9;&#9;&#9;&#9;&#9;&#9;&#9;&#9;&#9;&#9;&#9;&#9;&#9;C743.761,176.045,740.996,182.545,737.163,187.118z"/>
											</g>
										</g>
										<g>
											<g>
												<path fill="#062148" d="M774.594,177.702c-0.546,1.184,0.129,1.246-0.257,0.001c0.47-6.696-1.581-12.701-2.702-18.837&#10;&#9;&#9;&#9;&#9;&#9;&#9;&#9;&#9;&#9;&#9;&#9;&#9;&#9;c-1.195-6.542-3.716-12.392-6.145-18.16c-2.614-6.207-3.893-12.914-7.223-18.053&#10;&#9;&#9;&#9;&#9;&#9;&#9;&#9;&#9;&#9;&#9;&#9;&#9;&#9;c-3.859-5.957-9.27-10.181-13.019-14.448c-7.495-8.529-13.816-14.216-13.981-14.345c0.719-1.088,1.167-0.853,2.052-1.81&#10;&#9;&#9;&#9;&#9;&#9;&#9;&#9;&#9;&#9;&#9;&#9;&#9;&#9;c0.169,0.132,5.792,6.071,13.483,14.835c3.844,4.38,8.007,9.517,11.96,15.635c3.408,5.275,6.984,10.797,9.656,17.171&#10;&#9;&#9;&#9;&#9;&#9;&#9;&#9;&#9;&#9;&#9;&#9;&#9;&#9;c2.481,5.919,3.825,12.264,5.043,18.983C774.603,164.97,775.077,170.825,774.594,177.702z"/>
											</g>
										</g>
									</g>
									<g clip-path="url(#SVGID_4_)">
										<g>
											<g>
												<path fill="#062148" d="M720.438,187.629c-3.869-4.546-5.914-10.584-7.137-17.335&#10;&#9;&#9;&#9;&#9;&#9;&#9;&#9;&#9;&#9;&#9;&#9;&#9;&#9;c-1.066-5.884-0.339-12.237-0.006-18.846c0.317-6.296,1.166-12.561,2.249-18.73c1.168-6.651,0.312-13.507,1.775-19.087&#10;&#9;&#9;&#9;&#9;&#9;&#9;&#9;&#9;&#9;&#9;&#9;&#9;&#9;c2.177-8.303,4.81-14.158,5.946-17.454c-3.102,0.718-8.331,2.483-15.746,5.361c-4.831,1.875-10.14,4.267-15.662,7.349&#10;&#9;&#9;&#9;&#9;&#9;&#9;&#9;&#9;&#9;&#9;&#9;&#9;&#9;c-4.826,2.694-10.799,4.396-15.51,8.176c-4.398,3.53-7.739,8.592-11.531,13.198c-3.578,4.347-7.685,8.709-10.3,14.123&#10;&#9;&#9;&#9;&#9;&#9;&#9;&#9;&#9;&#9;&#9;&#9;&#9;&#9;c-2.413,4.995-4.568,10.137-5.825,16.126c-0.747,1.069-0.932,1.366-1.163,0.083c1.323-6.303,2.365-12.261,4.917-17.496&#10;&#9;&#9;&#9;&#9;&#9;&#9;&#9;&#9;&#9;&#9;&#9;&#9;&#9;c2.772-5.688,7.572-9.799,11.362-14.338c4.027-4.823,7.661-9.738,12.314-13.399c5.008-3.94,10.214-7.271,15.298-10.034&#10;&#9;&#9;&#9;&#9;&#9;&#9;&#9;&#9;&#9;&#9;&#9;&#9;&#9;c5.904-3.208,11.405-6.315,16.433-8.188c10.064-3.75,17.377-5.509,17.596-5.548c1.116-0.197,1.415,0.061,2.142,0.929&#10;&#9;&#9;&#9;&#9;&#9;&#9;&#9;&#9;&#9;&#9;&#9;&#9;&#9;c0.727,0.869-0.467,0.696-0.857,1.76c-0.081,0.221-1.28,7.952-4.117,18.515c-1.466,5.458-5.005,11.32-6.246,17.988&#10;&#9;&#9;&#9;&#9;&#9;&#9;&#9;&#9;&#9;&#9;&#9;&#9;&#9;c-1.137,6.105-0.21,12.73-0.634,19.001c-0.445,6.588-0.795,12.91,0.114,18.763c1.064,6.849,2.501,13.072,6.284,17.517&#10;&#9;&#9;&#9;&#9;&#9;&#9;&#9;&#9;&#9;&#9;&#9;&#9;&#9;C722.727,187.401,721.61,188.201,720.438,187.629z"/>
											</g>
										</g>
										<g>
											<g>
												<path fill="#062148" d="M681.119,179.842c-0.534-6.872-0.296-13.73,0.797-20.033c1.168-6.729,3.302-13.143,5.739-19.081&#10;&#9;&#9;&#9;&#9;&#9;&#9;&#9;&#9;&#9;&#9;&#9;&#9;&#9;c2.625-6.397,6.414-11.981,9.783-17.283c3.908-6.149,8.563-11.002,12.374-15.411&#10;&#9;&#9;&#9;&#9;&#9;&#9;&#9;&#9;&#9;&#9;&#9;&#9;&#9;c7.622-8.817,13.345-14.794,13.513-14.928c0.892,0.952-0.058,1.67,0.669,2.753c-0.164,0.13-5.028,5.057-12.462,13.647&#10;&#9;&#9;&#9;&#9;&#9;&#9;&#9;&#9;&#9;&#9;&#9;&#9;&#9;c-3.716,4.294-7.38,9.629-11.192,15.613c-3.29,5.163-8.161,9.968-10.728,16.192c-2.385,5.785-3.963,12.247-5.109,18.797&#10;&#9;&#9;&#9;&#9;&#9;&#9;&#9;&#9;&#9;&#9;&#9;&#9;&#9;c-1.075,6.146-0.591,12.77-0.071,19.465C684.074,181.169,681.674,181.023,681.119,179.842z"/>
											</g>
										</g>
									</g>
								</g>
								<g>
									<g>
										<path fill="#F8BF66" d="M647.575,337.961c6.115,6.991,4.146,5.822,13.535,12.33c4.364,3.025,9.473,6.595,15.815,9.632&#10;&#9;&#9;&#9;&#9;&#9;&#9;&#9;&#9;&#9;&#9;&#9;c5.131,2.457,10.927,4.617,17.335,6.559c5.566,1.687,11.495,3.551,18.012,4.519c5.8,0.862,12.011,0.03,18.557,0.092&#10;&#9;&#9;&#9;&#9;&#9;&#9;&#9;&#9;&#9;&#9;&#9;c5.886,0.056,12.17,1.878,18.653,1.122c5.858-0.683,11.589-3.795,17.93-5.263c5.762-1.335,11.778-2.503,17.935-4.577&#10;&#9;&#9;&#9;&#9;&#9;&#9;&#9;&#9;&#9;&#9;&#9;c5.618-1.893,11.607-3.503,17.552-6.081c5.458-2.367,11.049-3.75,16.78-6.747c9.861,0.014,5.846,2.64,16.191,9.845&#10;&#9;&#9;&#9;&#9;&#9;&#9;&#9;&#9;&#9;&#9;&#9;c4.54,3.162,11.085,5.474,16.891,10.349c4.572,3.839,8.481,9.354,13.594,14.366c4.39,4.304,8.454,9.439,13.095,14.674&#10;&#9;&#9;&#9;&#9;&#9;&#9;&#9;&#9;&#9;&#9;&#9;c4.139,4.669,9.163,8.994,13.398,14.45c3.86,4.973,7.417,10.499,11.279,16.16c3.568,5.229,7.58,10.453,11.09,16.296&#10;&#9;&#9;&#9;&#9;&#9;&#9;&#9;&#9;&#9;&#9;&#9;c3.274,5.45,7.483,10.666,10.658,16.672c2.98,5.638,5.977,11.563,8.83,17.71c2.692,5.8,4.47,12.344,7.015,18.612&#10;&#9;&#9;&#9;&#9;&#9;&#9;&#9;&#9;&#9;&#9;&#9;c0.495,9.087-1.679,6.81-4.324,17.764c-1.226,5.077-2.219,11.15-3.688,17.82c-1.215,5.519-4.199,11.141-5.452,17.451&#10;&#9;&#9;&#9;&#9;&#9;&#9;&#9;&#9;&#9;&#9;&#9;c-1.137,5.729-2.507,11.706-3.583,17.873c-1.024,5.868-0.966,12.071-1.857,18.155c-0.877,5.986-2.681,11.922-3.357,17.948&#10;&#9;&#9;&#9;&#9;&#9;&#9;&#9;&#9;&#9;&#9;&#9;c-0.685,6.098,0.743,12.357,0.338,18.324c-0.422,6.216-1.269,12.254-1.306,18.136c-0.04,6.358,0.457,12.407,0.969,18.135&#10;&#9;&#9;&#9;&#9;&#9;&#9;&#9;&#9;&#9;&#9;&#9;c0.584,6.526,0.772,13.284,2.22,18.649c-9.649-2.631-8.557-5.53-17.293-10.398c-8.739-4.87-9.324-3.821-18.063-8.69&#10;&#9;&#9;&#9;&#9;&#9;&#9;&#9;&#9;&#9;&#9;&#9;c-8.737-4.868-8.58-5.149-17.317-10.018c-8.743-4.872-8.441-5.412-17.184-10.284c-8.743-4.872-7.933-6.426-17.63-8.903&#10;&#9;&#9;&#9;&#9;&#9;&#9;&#9;&#9;&#9;&#9;&#9;c-8.667-2.213,3.88,4.912,8.815,14.653c2.343,4.624,5.392,9.905,8.277,15.889c2.442,5.064,3.575,11.191,6.163,16.874&#10;&#9;&#9;&#9;&#9;&#9;&#9;&#9;&#9;&#9;&#9;&#9;c2.418,5.308,5.077,10.693,7.434,16.267c2.333,5.515,5.503,10.724,7.601,16.239c2.187,5.75,4.462,11.367,6.199,16.832&#10;&#9;&#9;&#9;&#9;&#9;&#9;&#9;&#9;&#9;&#9;&#9;c1.938,6.097,2.153,12.278,3.269,17.637c1.42,6.824,3.071,12.739,2.649,17.62c-0.638,7.376-4.008,10.971-10.49,11.511&#10;&#9;&#9;&#9;&#9;&#9;&#9;&#9;&#9;&#9;&#9;&#9;c-6.349,0.528-12.564,1.21-18.689,1.68c-6.357,0.488-12.485,2.428-18.606,2.855c-6.365,0.444-12.707-0.727-18.822-0.347&#10;&#9;&#9;&#9;&#9;&#9;&#9;&#9;&#9;&#9;&#9;&#9;c-6.377,0.397-12.574,1.453-18.684,1.784c-6.391,0.346-12.676-0.258-18.78,0.019c-6.404,0.29-12.558,2.863-18.654,3.081&#10;&#9;&#9;&#9;&#9;&#9;&#9;&#9;&#9;&#9;&#9;&#9;c-6.417,0.229-12.713-1.046-18.797-0.893c-6.434,0.162-12.679,0.384-18.751,0.466c-6.453,0.087-12.7,0.224-18.756,0.227&#10;&#9;&#9;&#9;&#9;&#9;&#9;&#9;&#9;&#9;&#9;&#9;c-6.474,0.003-12.711-0.803-18.746-0.89c-6.498-0.093-12.725-0.402-18.732-0.59c-6.528-0.204-12.796,0.425-18.767,0.122&#10;&#9;&#9;&#9;&#9;&#9;&#9;&#9;&#9;&#9;&#9;&#9;c-6.566-0.334-12.768-1.119-18.69-1.558c-6.615-0.49-12.859-0.673-18.712-1.274c-6.678-0.685-12.941-0.901-18.689-1.698&#10;&#9;&#9;&#9;&#9;&#9;&#9;&#9;&#9;&#9;&#9;&#9;c-6.774-0.939-12.684-3.318-18.268-4.363c-6.946-1.299-13.499-0.487-18.79-1.855c-7.372-1.906-13.115-4.509-17.756-6.304&#10;&#9;&#9;&#9;&#9;&#9;&#9;&#9;&#9;&#9;&#9;&#9;c-12.867-4.975-14.499-0.17-15.76-9.452c-1.197-8.81,0.851-8.808,1.093-17.695c0.241-8.886,0.315-8.884,0.556-17.77&#10;&#9;&#9;&#9;&#9;&#9;&#9;&#9;&#9;&#9;&#9;&#9;c0.241-8.886-2.038-8.948-1.797-17.834c0.242-8.886,0.787-8.871,1.029-17.757c0.242-8.888,1.76-8.847,2.001-17.736&#10;&#9;&#9;&#9;&#9;&#9;&#9;&#9;&#9;&#9;&#9;&#9;c0.242-8.892,0.441-8.886,0.682-17.778c0.242-8.889-2.013-8.95-1.771-17.839c0.242-8.895,0.267-8.894,0.508-17.789&#10;&#9;&#9;&#9;&#9;&#9;&#9;&#9;&#9;&#9;&#9;&#9;s2.246-8.879,1.681-17.759c-0.597-9.379-1.846-7.303-6.268-17.725c-2.14-5.043-6.19-10.14-9.461-16.242&#10;&#9;&#9;&#9;&#9;&#9;&#9;&#9;&#9;&#9;&#9;&#9;c-2.803-5.229-4.181-11.782-7.857-17.174c-3.453-5.065-8.515-9.145-12.772-13.869c-4.169-4.626-8.214-9.66-13.185-13.512&#10;&#9;&#9;&#9;&#9;&#9;&#9;&#9;&#9;&#9;&#9;&#9;c-9.436-1.588-10.637,2.547-18.665-4.193c-3.868-3.247-7.66-9.061-9.4-17.13c-1.098-5.091,0.278-11.761,0.87-19.459&#10;&#9;&#9;&#9;&#9;&#9;&#9;&#9;&#9;&#9;&#9;&#9;c2.716,10.882-0.73,14.55,2.151,22.577c2.538,7.072,7.783,9.197,13.892-6.688c2.924-8.537,0.927-6.805,3.353-17.765&#10;&#9;&#9;&#9;&#9;&#9;&#9;&#9;&#9;&#9;&#9;&#9;c1.116-5.04,2.815-10.905,4.202-17.552c1.142-5.468,1.353-11.6,2.585-17.88c1.11-5.66,2.11-11.608,3.229-17.734&#10;&#9;&#9;&#9;&#9;&#9;&#9;&#9;&#9;&#9;&#9;&#9;c1.056-5.784,4.033-11.393,5.042-17.435c0.983-5.881,2.338-11.8,3.228-17.782c0.889-5.971,0.915-12.085,1.663-18.015&#10;&#9;&#9;&#9;&#9;&#9;&#9;&#9;&#9;&#9;&#9;&#9;c0.765-6.062,1.431-12.078,1.999-17.95c0.598-6.176-0.161-12.287,0.161-18.081c0.352-6.333,1.003-12.331,0.952-17.989&#10;&#9;&#9;&#9;&#9;&#9;&#9;&#9;&#9;&#9;&#9;&#9;c-0.06-6.599,0.052-12.671-0.671-18.015c-0.972-7.181-3.151-12.648-5.581-16.795c-3.526-4.383-3.946-4.464-10.033,2.493&#10;&#9;&#9;&#9;&#9;&#9;&#9;&#9;&#9;&#9;&#9;&#9;c4.294-4.907,5.28-5.282,13.409-2.723c5.12,1.611,10.843,3.469,15.393,7.284c4.548,3.814,8.747,8.212,12.454,11.806&#10;&#9;&#9;&#9;&#9;&#9;&#9;&#9;&#9;&#9;&#9;&#9;c3.197,3.1,8.64,6.912,16.351,10.244c5.38,2.325,11.636,4.54,18.337,6.835c5.928,2.03,12.157,4.242,18.587,6.162&#10;&#9;&#9;&#9;&#9;&#9;&#9;&#9;&#9;&#9;&#9;&#9;c6.243,1.864,12.863,2.7,19.115,4.384c6.531,1.759,12.94,3.311,18.971,4.79c7.008,1.718,13.324,3.912,18.898,5.127&#10;&#9;&#9;&#9;&#9;&#9;&#9;&#9;&#9;&#9;&#9;&#9;C639.581,337.832,648.177,338.649,647.575,337.961z" style="fill: rgb(248, 191, 102);"/>
									</g>
								</g>
								<g>
									<g>
										<path fill="#2E3744" d="M516.536,736.959c-2.786,0-5.708-0.065-8.317-1.515c-8.186-4.548-10.271-14.619-5.724-22.805&#10;&#9;&#9;&#9;&#9;&#9;&#9;&#9;&#9;&#9;&#9;&#9;c3.043-5.477,6.293-10.759,9.153-16.129c2.946-5.533,4.593-11.647,7.35-17.065c2.846-5.592,4.802-11.503,7.453-16.969&#10;&#9;&#9;&#9;&#9;&#9;&#9;&#9;&#9;&#9;&#9;&#9;c2.74-5.65,7.328-10.312,9.868-15.825c2.629-5.707,5.302-11.3,7.724-16.858c2.514-5.77,4.592-11.623,6.893-17.229&#10;&#9;&#9;&#9;&#9;&#9;&#9;&#9;&#9;&#9;&#9;&#9;c2.392-5.83,4.269-11.748,6.44-17.399c2.262-5.888,4.96-11.493,6.994-17.182c2.126-5.949,3.841-11.911,5.731-17.637&#10;&#9;&#9;&#9;&#9;&#9;&#9;&#9;&#9;&#9;&#9;&#9;c1.983-6.011,3.562-12.002,5.299-17.764c1.832-6.074,3.985-11.898,5.561-17.689c1.67-6.139,1.148-12.641,2.552-18.456&#10;&#9;&#9;&#9;&#9;&#9;&#9;&#9;&#9;&#9;&#9;&#9;c1.5-6.212,3.526-12.057,4.747-17.89c1.315-6.283,4.254-12.014,5.277-17.846c1.117-6.37,1.514-12.592,2.324-18.411&#10;&#9;&#9;&#9;&#9;&#9;&#9;&#9;&#9;&#9;&#9;&#9;c0.9-6.468,0.895-12.692,1.471-18.462c0.698-6.989,0.674-13.665,1.018-19.962c0.388-7.112,0.247-13.752,0.276-19.958&#10;&#9;&#9;&#9;&#9;&#9;&#9;&#9;&#9;&#9;&#9;&#9;c0.034-7.305,0.933-13.982,0.617-19.994c-0.407-7.74-1.969-14.294-2.653-19.816c-1.583-12.774-1.737-19.876-1.78-20.028&#10;&#9;&#9;&#9;&#9;&#9;&#9;&#9;&#9;&#9;&#9;&#9;c-2.564-8.981,1.933-16.925,10.902-19.526c8.965-2.601,17.517,1.482,20.155,10.44c0.341,1.156,2.037,7.183,3.706,17.939&#10;&#9;&#9;&#9;&#9;&#9;&#9;&#9;&#9;&#9;&#9;&#9;c0.786,5.063,1.837,11.102,2.456,18.203c0.482,5.52,0.793,11.636,1.017,18.356c0.19,5.705-0.267,11.816-0.355,18.367&#10;&#9;&#9;&#9;&#9;&#9;&#9;&#9;&#9;&#9;&#9;&#9;c-0.078,5.8-0.399,11.887-0.758,18.339c-0.326,5.85-0.721,11.934-1.323,18.311c-0.555,5.873-1.147,11.946-1.973,18.259&#10;&#9;&#9;&#9;&#9;&#9;&#9;&#9;&#9;&#9;&#9;&#9;c-0.768,5.878-1.502,11.944-2.533,18.197c-0.968,5.869-0.651,12.159-1.875,18.355c-1.156,5.854-3.514,11.63-4.918,17.772&#10;&#9;&#9;&#9;&#9;&#9;&#9;&#9;&#9;&#9;&#9;&#9;c-1.333,5.831-1.66,12.07-3.233,18.157c-1.499,5.801-4.416,11.365-6.148,17.395c-1.656,5.768-1.898,12.105-3.78,18.081&#10;&#9;&#9;&#9;&#9;&#9;&#9;&#9;&#9;&#9;&#9;&#9;c-1.805,5.732-3.58,11.634-5.604,17.555c-1.947,5.695-5.093,11.104-7.252,16.971c-2.079,5.651-4.124,11.436-6.41,17.245&#10;&#9;&#9;&#9;&#9;&#9;&#9;&#9;&#9;&#9;&#9;&#9;c-2.206,5.608-4.669,11.229-7.076,16.983c-2.328,5.568-3.946,11.561-6.468,17.265c-2.443,5.523-6.766,10.296-9.398,15.944&#10;&#9;&#9;&#9;&#9;&#9;&#9;&#9;&#9;&#9;&#9;&#9;c-2.553,5.479-4.88,11.15-7.617,16.746c-2.657,5.432-3.94,11.653-6.775,17.194c-2.757,5.389-6.545,10.343-9.476,15.834&#10;&#9;&#9;&#9;&#9;&#9;&#9;&#9;&#9;&#9;&#9;&#9;c-2.852,5.343-6.416,10.383-9.438,15.822C527.537,733.85,522.495,736.959,516.536,736.959z"/>
									</g>
								</g>
								<g>
									<g>
										<path fill="#2E3744" d="M868.767,793.512c-7.485,0-15.475-4.01-17.508-11.581c-1.622-6.042-1.619-12.539-3.114-18.664&#10;&#9;&#9;&#9;&#9;&#9;&#9;&#9;&#9;&#9;&#9;&#9;c-1.484-6.084-2.424-12.303-3.788-18.452c-1.358-6.12-3.371-12.107-4.614-18.274c-1.24-6.153-3.157-12.188-4.288-18.37&#10;&#9;&#9;&#9;&#9;&#9;&#9;&#9;&#9;&#9;&#9;&#9;c-1.131-6.181-0.738-12.626-1.764-18.82c-1.028-6.207-3.552-12.169-4.48-18.372c-0.932-6.23-0.941-12.58-1.777-18.788&#10;&#9;&#9;&#9;&#9;&#9;&#9;&#9;&#9;&#9;&#9;&#9;c-0.842-6.251-3.177-12.297-3.926-18.508c-0.756-6.27-0.013-12.688-0.68-18.9c-0.675-6.293-0.399-12.636-0.988-18.85&#10;&#9;&#9;&#9;&#9;&#9;&#9;&#9;&#9;&#9;&#9;&#9;c-0.598-6.306-2.382-12.452-2.897-18.657c-0.524-6.325-0.331-12.643-0.774-18.842c-0.453-6.344-0.252-12.648-0.626-18.838&#10;&#9;&#9;&#9;&#9;&#9;&#9;&#9;&#9;&#9;&#9;&#9;c-0.385-6.363-1.928-12.567-2.237-18.743c-0.319-6.387,0.339-12.705,0.094-18.866c-0.255-6.413-1.196-12.665-1.378-18.802&#10;&#9;&#9;&#9;&#9;&#9;&#9;&#9;&#9;&#9;&#9;&#9;c-0.191-6.446,0.687-12.751,0.565-18.859c-0.129-6.49-2.394-12.745-2.455-18.811c-0.066-6.55,0.839-12.851,0.838-18.856&#10;&#9;&#9;&#9;&#9;&#9;&#9;&#9;&#9;&#9;&#9;&#9;c-0.001-6.643,1.001-12.927,1.06-18.834c0.068-6.813-1.661-13.141-1.542-18.871c0.15-7.217,1.789-13.493,1.966-18.793&#10;&#9;&#9;&#9;&#9;&#9;&#9;&#9;&#9;&#9;&#9;&#9;c0.358-10.746,1.194-17.284,1.276-18.767c0.517-9.353,7.569-17.163,16.882-16.684c9.351,0.52,17.665,9.215,17.149,18.568&#10;&#9;&#9;&#9;&#9;&#9;&#9;&#9;&#9;&#9;&#9;&#9;c-0.021,0.382-0.456,6.876-0.805,18.324c-0.157,5.16-1.609,11.283-1.739,18.33c-0.103,5.584-1.138,11.719-1.192,18.361&#10;&#9;&#9;&#9;&#9;&#9;&#9;&#9;&#9;&#9;&#9;&#9;c-0.047,5.757,1.575,11.899,1.586,18.373c0.009,5.853,0.583,11.974,0.654,18.356c0.065,5.914,0.132,12.035,0.261,18.359&#10;&#9;&#9;&#9;&#9;&#9;&#9;&#9;&#9;&#9;&#9;&#9;c0.122,5.956-1.149,12.117-0.961,18.399c0.179,5.986,2.065,12.049,2.312,18.3c0.238,6.005-0.717,12.174-0.409,18.396&#10;&#9;&#9;&#9;&#9;&#9;&#9;&#9;&#9;&#9;&#9;&#9;c0.298,6.023,0.6,12.142,0.971,18.343c0.361,6.037-0.189,12.218,0.246,18.401c0.426,6.047,2.935,12.003,3.438,18.168&#10;&#9;&#9;&#9;&#9;&#9;&#9;&#9;&#9;&#9;&#9;&#9;c0.493,6.051,1.06,12.137,1.632,18.28c0.564,6.057,0.342,12.228,0.988,18.357c0.639,6.062,2.259,12.038,2.984,18.15&#10;&#9;&#9;&#9;&#9;&#9;&#9;&#9;&#9;&#9;&#9;&#9;c0.719,6.063,0.953,12.199,1.76,18.294c0.803,6.061,0.859,12.238,1.754,18.312c0.893,6.056,2.074,12.076,3.063,18.128&#10;&#9;&#9;&#9;&#9;&#9;&#9;&#9;&#9;&#9;&#9;&#9;c0.989,6.05,2.961,11.921,4.05,17.948c1.092,6.039,0.925,12.303,2.122,18.301c1.203,6.026,3.122,11.885,4.437,17.852&#10;&#9;&#9;&#9;&#9;&#9;&#9;&#9;&#9;&#9;&#9;&#9;c1.323,6.007,1.982,12.146,3.423,18.074c1.455,5.985,3.594,11.764,5.174,17.649c2.428,9.047-3.134,19.031-12.179,21.459&#10;&#9;&#9;&#9;&#9;&#9;&#9;&#9;&#9;&#9;&#9;&#9;C871.859,794.591,870.221,793.512,868.767,793.512z"/>
									</g>
								</g>
								<g>
									<g>
										<path fill="#6F7170" d="M943.62,502.716c1.869,3.43,4.578,9.082,8.315,16.243c2.472,4.738,6.641,9.506,9.687,15.556&#10;&#9;&#9;&#9;&#9;&#9;&#9;&#9;&#9;&#9;&#9;&#9;c2.551,5.066,5.198,10.601,8.026,16.423c2.544,5.234,5.099,10.798,7.78,16.527c2.505,5.355,5.297,10.811,7.852,16.506&#10;&#9;&#9;&#9;&#9;&#9;&#9;&#9;&#9;&#9;&#9;&#9;c2.447,5.454,2.592,12.056,5.023,17.741c2.37,5.541,5.98,10.637,8.28,16.324c2.276,5.628,4.926,11.154,7.08,16.855&#10;&#9;&#9;&#9;&#9;&#9;&#9;&#9;&#9;&#9;&#9;&#9;c2.16,5.716,2.882,11.942,4.866,17.661c2.016,5.814,5.032,11.24,6.811,16.983c1.834,5.922,3.961,11.686,5.481,17.453&#10;&#9;&#9;&#9;&#9;&#9;&#9;&#9;&#9;&#9;&#9;&#9;c1.595,6.051,3.434,11.949,4.615,17.738c1.265,6.201,1.13,12.458,1.834,18.246c0.006,0.053,1.178-0.146,1.189-0.094&#10;&#9;&#9;&#9;&#9;&#9;&#9;&#9;&#9;&#9;&#9;&#9;c1.2,5.695,0.557,11.861,1.024,17.837c0.458,5.868,1.669,11.835,1.377,17.758c-0.292,5.936-1.755,11.812-2.841,17.588&#10;&#9;&#9;&#9;&#9;&#9;&#9;&#9;&#9;&#9;&#9;&#9;c-1.106,5.885-1.957,11.882-3.932,17.376c-1.968,5.477-5.238,10.885-8.738,16.148c-3.303,4.967-8.06,8.975-12.413,13.35&#10;&#9;&#9;&#9;&#9;&#9;&#9;&#9;&#9;&#9;&#9;&#9;c-4.298,4.319-8.353,8.98-13.38,12.346c-5.149,3.447-11.034,5.235-16.637,7.283c-5.843,2.135-11.539,3.416-17.527,3.582&#10;&#9;&#9;&#9;&#9;&#9;&#9;&#9;&#9;&#9;&#9;&#9;c-5.935,0.165-11.696-0.18-17.236-2.503c-5.283-2.216-10.202-5.606-15.081-9.18c-4.745-3.477-9.243-7.401-13.566-11.34&#10;&#9;&#9;&#9;&#9;&#9;&#9;&#9;&#9;&#9;&#9;&#9;c-4.562-4.157-9.938-7.196-13.984-10.939c-4.617-4.272-9.145-8.722-13.561-13.204&#10;&#9;&#9;&#9;&#9;&#9;&#9;&#9;&#9;&#9;&#9;&#9;c-4.412-4.478-7.024-10.668-11.246-15.337c-4.215-4.662-9.248-8.598-13.283-13.43c-4.029-4.824-8.595-9.248-12.454-14.222&#10;&#9;&#9;&#9;&#9;&#9;&#9;&#9;&#9;&#9;&#9;&#9;c-3.853-4.966-6.739-10.681-10.432-15.777c-3.689-5.091-7.789-9.903-11.329-15.105c-3.539-5.2-6.726-10.643-10.125-15.935&#10;&#9;&#9;&#9;&#9;&#9;&#9;&#9;&#9;&#9;&#9;&#9;c-3.402-5.295-6.496-10.778-9.768-16.145c-3.278-5.377-6.47-10.794-9.627-16.225c-3.167-5.448-7.052-10.481-10.107-15.963&#10;&#9;&#9;&#9;&#9;&#9;&#9;&#9;&#9;&#9;&#9;&#9;c-3.071-5.509-6.23-10.966-9.198-16.489c-0.019-0.035,0.012-0.044-0.009-0.078c-5.625-9.087-5.2-9.35-10.825-18.437&#10;&#9;&#9;&#9;&#9;&#9;&#9;&#9;&#9;&#9;&#9;&#9;c-5.625-9.087-4.709-9.654-10.335-18.741c-0.051-0.082-0.63,0.142-0.692,0.068c-0.66-0.792-5.826-5.683-11.825-13.816&#10;&#9;&#9;&#9;&#9;&#9;&#9;&#9;&#9;&#9;&#9;&#9;c-3.165-4.291-6.396-9.616-10.066-15.145c-3.21-4.834-6.814-9.858-9.925-15.24c-3.033-5.248-4.352-11.449-6.866-16.868&#10;&#9;&#9;&#9;&#9;&#9;&#9;&#9;&#9;&#9;&#9;&#9;c-2.653-5.718-6.858-10.684-8.452-16.197c-1.833-6.338-2.578-12.599-2.31-18.09c-0.954-9.541-1.977-10.332,9.763,10.543&#10;&#9;&#9;&#9;&#9;&#9;&#9;&#9;&#9;&#9;&#9;&#9;c1.149,2.043,4.668,0.581,4.25-1.725c-1.108-6.11-1.049-13.215-0.758-19.578c0.108-2.369,2.205-2.579,2.82-0.289&#10;&#9;&#9;&#9;&#9;&#9;&#9;&#9;&#9;&#9;&#9;&#9;c1.632,6.078,5.924,12.835,9.398,18.032c1.193,1.786,3.663,1.329,3.422-0.805c-0.622-5.52-1.458-14.257-0.499-25.211&#10;&#9;&#9;&#9;&#9;&#9;&#9;&#9;&#9;&#9;&#9;&#9;c0.201-2.294,2.388-2.498,3.034-0.288c1.336,4.577,3.908,9.853,6.113,15.064c2.309,5.455,4.52,11.003,7.631,14.356&#10;&#9;&#9;&#9;&#9;&#9;&#9;&#9;&#9;&#9;&#9;&#9;c1.133,1.221,3.777,0.414,4.178-1.203c0.784-3.16,2.252-8.323,3.236-14.364c0.741-4.553,1.516-9.638,1.767-14.652&#10;&#9;&#9;&#9;&#9;&#9;&#9;&#9;&#9;&#9;&#9;&#9;c0.116-2.301,2.411-2.671,3.11-0.476c1.482,4.654,3.35,10.21,4.769,16.291c1.248,5.349,1.889,11.091,2.555,16.769&#10;&#9;&#9;&#9;&#9;&#9;&#9;&#9;&#9;&#9;&#9;&#9;c0.118,1.005,1.403,1.881,2.414,1.921c3.219,0.126,10.517-0.469,16.748-7.286c1.451-1.588,4.875-0.258,4.401,1.84&#10;&#9;&#9;&#9;&#9;&#9;&#9;&#9;&#9;&#9;&#9;&#9;c-1.852,8.204-4.289,18.45-5.601,23.308c-0.17,0.63-0.71,0.821-0.307,1.334c1.483,1.888,4.451,7.823,10.362,14.998&#10;&#9;&#9;&#9;&#9;&#9;&#9;&#9;&#9;&#9;&#9;&#9;c3.33,4.042,8.066,8.085,12.482,13.262c3.658,4.288,7.487,9.042,11.745,13.862c3.85,4.359,8.837,8.052,13.076,12.673&#10;&#9;&#9;&#9;&#9;&#9;&#9;&#9;&#9;&#9;&#9;&#9;c4.003,4.364,7.262,9.634,11.527,14.089c4.153,4.337,9.144,7.951,13.468,12.245c4.311,4.28,8.771,8.378,13.178,12.487&#10;&#9;&#9;&#9;&#9;&#9;&#9;&#9;&#9;&#9;&#9;&#9;c4.495,4.191,8.744,8.517,13.259,12.396c4.726,4.06,8.373,9.25,13.033,12.818c5.035,3.854,10.572,6.655,15.419,9.747&#10;&#9;&#9;&#9;&#9;&#9;&#9;&#9;&#9;&#9;&#9;&#9;c1.465,0.934,2.739-0.244,2.576-1.974c-0.367-3.902-0.24-10.481-0.521-19.081c-0.181-5.534-1.323-11.95-1.223-19.07&#10;&#9;&#9;&#9;&#9;&#9;&#9;&#9;&#9;&#9;&#9;&#9;c0.082-5.88,2.25-12.188,2.643-18.974c0.349-6.024,0.434-12.379,1.108-19c0.619-6.086,0.638-12.493,1.593-18.994&#10;&#9;&#9;&#9;&#9;&#9;&#9;&#9;&#9;&#9;&#9;&#9;c0.898-6.11,1.459-12.497,2.704-18.899c1.186-6.1,3.571-12.106,5.116-18.407c1.486-6.062,2.104-12.505,3.96-18.698&#10;&#9;&#9;&#9;&#9;&#9;&#9;&#9;&#9;&#9;&#9;&#9;c1.797-5.997,4.429-11.859,6.607-17.928C940.253,501.255,942.764,501.145,943.62,502.716z" style="fill: rgb(128, 128, 128);"/>
									</g>
								</g>
							</g>
							<g>
								<g>
									<path fill="#367575" d="M682.494,805.473c1.392,5.671,2.03,11.546,1.968,17.423c-0.058,5.937-0.912,11.662-1.477,17.345&#10;&#9;&#9;&#9;&#9;&#9;&#9;&#9;&#9;&#9;&#9;c-0.767,5.765-1.591,11.524-2.676,17.228c-1.351,5.966-4.1,11.029-6.348,16.402c0.438-5.861,2.299-11.518,2.862-16.978&#10;&#9;&#9;&#9;&#9;&#9;&#9;&#9;&#9;&#9;&#9;c0.364-5.755,0.984-11.455,1.664-17.149c0.672-5.799,1.708-11.487,2.462-17.076&#10;&#9;&#9;&#9;&#9;&#9;&#9;&#9;&#9;&#9;&#9;C681.663,817.015,682.019,811.314,682.494,805.473z"/>
								</g>
							</g>
							<g>
								<g>
									<path fill="#367575" d="M523.426,814.423c2.381-0.857,4.896-1.425,7.041-2.377c2.104-0.874,3.837-2.487,5.82-4.025&#10;&#9;&#9;&#9;&#9;&#9;&#9;&#9;&#9;&#9;&#9;c3.912-3.203,7.974-5.931,11.439-9.221c3.582-3.193,6.598-6.815,9.316-10.859c2.715-4.036,5.118-8.352,7.617-12.77&#10;&#9;&#9;&#9;&#9;&#9;&#9;&#9;&#9;&#9;&#9;c-0.716,5.029-2.278,9.929-4.561,14.541c-1.103,2.33-2.508,4.519-4.046,6.65c-1.587,2.082-3.377,4.003-5.275,5.778&#10;&#9;&#9;&#9;&#9;&#9;&#9;&#9;&#9;&#9;&#9;c-1.944,1.727-3.983,3.322-6.097,4.763c-2.172,1.402-4.204,2.72-6.38,4.004c-2.116,1.261-4.453,2.727-7.188,3.254&#10;&#9;&#9;&#9;&#9;&#9;&#9;&#9;&#9;&#9;&#9;C528.456,814.608,525.976,814.541,523.426,814.423z"/>
								</g>
							</g>
							<g>
								<g>
									<path fill="#367575" d="M849.422,824.734c-2.536,0.118-4.992,0.201-7.644-0.245c-2.736-0.556-5.023-2.048-7.114-3.298&#10;&#9;&#9;&#9;&#9;&#9;&#9;&#9;&#9;&#9;&#9;c-4.205-2.631-8.431-5.024-12.562-8.265c-1.993-1.657-3.906-3.492-5.543-5.575c-1.602-2.139-2.961-4.335-4.035-6.668&#10;&#9;&#9;&#9;&#9;&#9;&#9;&#9;&#9;&#9;&#9;c-2.213-4.621-3.674-9.499-4.382-14.496c2.489,4.388,4.814,8.728,7.46,12.763c2.647,4.082,5.59,7.539,9.348,10.461&#10;&#9;&#9;&#9;&#9;&#9;&#9;&#9;&#9;&#9;&#9;c1.81,1.527,3.789,2.896,5.802,4.337c2.001,1.483,4.04,2.972,5.938,4.566c1.974,1.543,3.682,3.18,5.74,4.063&#10;&#9;&#9;&#9;&#9;&#9;&#9;&#9;&#9;&#9;&#9;C844.548,823.321,847.06,823.878,849.422,824.734z"/>
								</g>
							</g>
						</g>
						<g>
							<g>
								<g>
									<path fill="#2E3744" d="M177.938,806.608c-0.062-0.269-1.387-0.248-1.458-0.514c-1.712,6.497-3.384,12.973-4.571,19.505&#10;&#9;&#9;&#9;&#9;&#9;&#9;&#9;&#9;&#9;&#9;c-1.197,6.589-2.097,13.22-2.775,19.845c-0.679,6.642-1.542,13.307-1.715,19.984c-0.172,6.655,0.516,13.347,0.831,20.038&#10;&#9;&#9;&#9;&#9;&#9;&#9;&#9;&#9;&#9;&#9;c0.313,6.634,0.604,13.318,1.381,19.986c0.767,6.584,1.1,13.324,2.305,19.941c1.186,6.511,3.819,12.754,5.415,19.297&#10;&#9;&#9;&#9;&#9;&#9;&#9;&#9;&#9;&#9;&#9;c3.11,5.39,6.936,10.383,10.378,15.786c3.356,5.267,5.887,11.163,9.569,16.38c3.611,5.117,7.447,10.155,11.382,15.165&#10;&#9;&#9;&#9;&#9;&#9;&#9;&#9;&#9;&#9;&#9;c3.876,4.935,7.135,10.496,11.335,15.27c4.15,4.718,9.886,8.027,14.361,12.534c4.43,4.463,8.585,9.227,13.342,13.431&#10;&#9;&#9;&#9;&#9;&#9;&#9;&#9;&#9;&#9;&#9;c4.712,4.164,8.756,9.254,13.798,13.114c4.991,3.821,10.439,7.191,15.761,10.664c5.257,3.431,11.096,6.052,16.685,9.096&#10;&#9;&#9;&#9;&#9;&#9;&#9;&#9;&#9;&#9;&#9;c0.243-3.718-0.07-7.509,0.337-11.23c0.825-7.554,1.582-15.184,2.822-22.715c1.235-7.503,2.462-14.492,4.103-21.941&#10;&#9;&#9;&#9;&#9;&#9;&#9;&#9;&#9;&#9;&#9;c-5.144-3.559-8.755-8.001-13.536-11.988c-4.802-4.003-10.534-7.025-14.979-11.384c-4.466-4.38-7.012-10.575-11.126-15.24&#10;&#9;&#9;&#9;&#9;&#9;&#9;&#9;&#9;&#9;&#9;c-4.145-4.699-9.647-8.241-13.445-13.152c-3.844-4.969-6.241-10.955-9.739-16.061c-3.564-5.202-7.371-10.152-10.587-15.413&#10;&#9;&#9;&#9;&#9;&#9;&#9;&#9;&#9;&#9;&#9;c-3.305-5.406-7.148-10.414-10.097-15.791c-3.068-5.595-4.665-11.81-7.36-17.272c-2.848-5.772-5.462-11.417-7.908-16.921&#10;&#9;&#9;&#9;&#9;&#9;&#9;&#9;&#9;&#9;&#9;c-2.652-5.968-7.011-10.932-9.208-16.435c-2.484-6.221-3.025-12.736-4.954-18.151c-2.381-6.686-4.146-12.714-5.728-17.789&#10;&#9;&#9;&#9;&#9;&#9;&#9;&#9;&#9;&#9;&#9;C179.176,813.809,178.047,807.069,177.938,806.608z"/>
								</g>
							</g>
							<g>
								<g>
									<path fill="#2E3744" d="M216.025,721.727c-2.41,3.631-4.421,6.937-6.636,10.58c0.767,5.793-0.515,11.903,0.539,18.188&#10;&#9;&#9;&#9;&#9;&#9;&#9;&#9;&#9;&#9;&#9;c0.979,5.835,3.603,11.595,4.867,17.769c1.197,5.847,2.004,11.943,3.489,18.022c1.424,5.83,3.168,11.709,4.884,17.69&#10;&#9;&#9;&#9;&#9;&#9;&#9;&#9;&#9;&#9;&#9;c1.663,5.794,3.281,11.709,5.243,17.588c1.915,5.738,3.833,11.57,6.056,17.336c2.182,5.659,4.693,11.262,7.193,16.898&#10;&#9;&#9;&#9;&#9;&#9;&#9;&#9;&#9;&#9;&#9;c2.464,5.555,4.879,11.204,7.672,16.69c2.761,5.422,5.366,11.016,8.47,16.325c3.073,5.256,7.79,9.518,11.219,14.619&#10;&#9;&#9;&#9;&#9;&#9;&#9;&#9;&#9;&#9;&#9;c3.397,5.054,5.181,11.332,8.945,16.191c3.728,4.812,7.747,9.548,11.855,14.126c4.061,4.527,8.401,8.971,12.85,13.23&#10;&#9;&#9;&#9;&#9;&#9;&#9;&#9;&#9;&#9;&#9;c4.386,4.198,9.701,7.022,14.482,10.921c2.072-5.743,3.221-11.55,5.551-17.19c2.332-5.644,5.395-11.014,7.984-16.539&#10;&#9;&#9;&#9;&#9;&#9;&#9;&#9;&#9;&#9;&#9;c2.592-5.53,5.885-10.742,8.734-16.137c-4.374-4.231-7.56-9.493-11.487-14.083c-3.949-4.617-9.311-8.094-12.832-13.011&#10;&#9;&#9;&#9;&#9;&#9;&#9;&#9;&#9;&#9;&#9;c-3.535-4.937-6.964-10.021-10.093-15.197c-3.143-5.201-5.699-10.774-8.457-16.15c-2.777-5.416-4.956-11.111-7.368-16.639&#10;&#9;&#9;&#9;&#9;&#9;&#9;&#9;&#9;&#9;&#9;c-2.44-5.593-5.688-10.856-7.781-16.495c-2.13-5.74-3.205-11.818-5.003-17.534c-1.846-5.869-3.251-11.781-4.777-17.547&#10;&#9;&#9;&#9;&#9;&#9;&#9;&#9;&#9;&#9;&#9;c-1.583-5.983-2.112-12.074-3.384-17.859c-1.34-6.097-4.703-11.623-5.736-17.4c-1.112-6.221-1.872-12.295-2.676-18.021&#10;&#9;&#9;&#9;&#9;&#9;&#9;&#9;&#9;&#9;&#9;c-0.898-6.394-1.725-12.461-2.304-18.067c-0.694-6.723-0.944-12.87-1.289-18.178c-0.521-8.012,0.053-14.287-0.014-18.192&#10;&#9;&#9;&#9;&#9;&#9;&#9;&#9;&#9;&#9;&#9;c-5.195,4.681-10.569,9.228-15.345,14.335c-4.775,5.107-8.698,10.974-13.03,16.463&#10;&#9;&#9;&#9;&#9;&#9;&#9;&#9;&#9;&#9;&#9;C223.516,709.947,219.891,715.902,216.025,721.727z"/>
								</g>
							</g>
							<g>
								<g>
									<path fill="#2E3744" d="M391.198,833.051c-3.477-5.028-5.707-10.169-8.712-15.458c-3.018-5.311-6.331-10.488-8.907-16.001&#10;&#9;&#9;&#9;&#9;&#9;&#9;&#9;&#9;&#9;&#9;c-2.587-5.538-4.194-11.493-6.367-17.172c-2.188-5.716-4.091-11.493-5.894-17.288c-1.823-5.859-2.914-11.855-4.378-17.729&#10;&#9;&#9;&#9;&#9;&#9;&#9;&#9;&#9;&#9;&#9;c-1.488-5.973-4.277-11.6-5.431-17.52c-1.183-6.07-0.606-12.354-1.476-18.293c-0.903-6.157-3.859-11.952-4.47-17.887&#10;&#9;&#9;&#9;&#9;&#9;&#9;&#9;&#9;&#9;&#9;c-0.642-6.24-0.023-12.452-0.392-18.352c-0.396-6.335-0.309-12.456-0.453-18.283c-0.16-6.471-1.468-12.598-1.398-18.286&#10;&#9;&#9;&#9;&#9;&#9;&#9;&#9;&#9;&#9;&#9;c0.082-6.74,0.701-11.788,0.971-17.177c-6.181,2.082-11.759,3.113-17.743,5.628c-6.019,2.529-11.35,6.439-17.127,9.385&#10;&#9;&#9;&#9;&#9;&#9;&#9;&#9;&#9;&#9;&#9;c-5.822,2.969-11.011,5.77-16.544,9.14c-0.011,5.894-1.983,11.571-1.767,18.093c0.198,5.983,2.694,12.093,3.137,18.512&#10;&#9;&#9;&#9;&#9;&#9;&#9;&#9;&#9;&#9;&#9;c0.416,6.031-0.441,12.343,0.236,18.684c0.647,6.054,0.969,12.31,1.891,18.581c0.891,6.055,3.047,12.013,4.229,18.214&#10;&#9;&#9;&#9;&#9;&#9;&#9;&#9;&#9;&#9;&#9;c1.15,6.035,2.588,12.072,4.046,18.192c1.428,5.994,2.148,12.237,3.9,18.262c1.724,5.929,2.786,12.169,4.853,18.08&#10;&#9;&#9;&#9;&#9;&#9;&#9;&#9;&#9;&#9;&#9;c2.04,5.837,5.692,11.133,8.092,16.908c2.376,5.716,4.134,11.761,6.89,17.371c2.729,5.558,6.663,10.512,9.79,15.924&#10;&#9;&#9;&#9;&#9;&#9;&#9;&#9;&#9;&#9;&#9;c3.096,5.36,5.874,10.939,9.385,16.114c3.472,5.118,7.158,9.559,11.059,14.455c3.347-5.019,6.997-9.259,10.595-14.095&#10;&#9;&#9;&#9;&#9;&#9;&#9;&#9;&#9;&#9;&#9;c3.6-4.838,6.694-10.091,10.546-14.73C383.606,841.686,387.097,837.475,391.198,833.051z"/>
								</g>
							</g>
							<g>
								<g>
									<path fill="#2E3744" d="M437.11,609.096c-5.833-0.208-11.242-0.349-17.097-0.135c-5.834,0.214-11.815-0.897-17.639-0.281&#10;&#9;&#9;&#9;&#9;&#9;&#9;&#9;&#9;&#9;&#9;c-5.809,0.615-10.946,3.109-16.713,4.107c0.013,6.158-1.687,12.301-1.423,19.11c0.242,6.253,0.82,12.787,1.333,19.489&#10;&#9;&#9;&#9;&#9;&#9;&#9;&#9;&#9;&#9;&#9;c0.483,6.302,0.899,12.847,1.67,19.462c0.737,6.323,2.575,12.673,3.618,19.211c1.008,6.318,3.627,12.433,4.958,18.888&#10;&#9;&#9;&#9;&#9;&#9;&#9;&#9;&#9;&#9;&#9;c1.297,6.289,2.595,12.61,4.233,18.97c1.607,6.237,3.129,12.518,5.098,18.767c1.939,6.155,2.151,12.982,4.473,19.096&#10;&#9;&#9;&#9;&#9;&#9;&#9;&#9;&#9;&#9;&#9;c2.294,6.042,6.448,11.383,9.145,17.333c2.67,5.89,5.557,11.519,8.651,17.27c1.093-0.87,2.195-0.672,3.301-1.528&#10;&#9;&#9;&#9;&#9;&#9;&#9;&#9;&#9;&#9;&#9;c4.28-3.313,8.58-6.526,13.002-9.628c4.426-3.104,9.003-5.934,13.53-8.888c4.526-2.953,7.732-6.854,12.318-9.719&#10;&#9;&#9;&#9;&#9;&#9;&#9;&#9;&#9;&#9;&#9;c-2.787-5.532-4.576-10.971-6.927-16.671c-2.365-5.733-3.386-11.918-5.344-17.756c-1.977-5.892-4.601-11.521-6.199-17.451&#10;&#9;&#9;&#9;&#9;&#9;&#9;&#9;&#9;&#9;&#9;c-1.622-6.019-2.391-12.168-3.662-18.156c-1.299-6.124-4.592-11.817-5.563-17.833c-1.003-6.215-0.981-12.51-1.678-18.529&#10;&#9;&#9;&#9;&#9;&#9;&#9;&#9;&#9;&#9;&#9;c-0.729-6.299-1.343-12.48-1.787-18.47c-0.473-6.395-1.118-12.593-1.326-18.523&#10;&#9;&#9;&#9;&#9;&#9;&#9;&#9;&#9;&#9;&#9;C436.856,620.712,437.095,614.903,437.11,609.096z"/>
								</g>
							</g>
						</g>
					</g>
					<g>
						<g>
							<defs>
								<path id="SVGID_5_" d="M644.564,160.127c-8.587-2.608-1.129-6.191,1.696-16.519c1.357-4.962,3.555-10.556,7.15-16.359&#10;&#9;&#9;&#9;&#9;&#9;&#9;&#9;&#9;&#9;c2.844-4.59,7.284-8.455,12.106-13.01c3.966-3.746,8.024-7.985,13.642-11.402c4.698-2.857,10.222-4.904,16.258-7.354&#10;&#9;&#9;&#9;&#9;&#9;&#9;&#9;&#9;&#9;c5.145-2.088,10.305-5.364,16.533-7.048c5.412-1.463,11.349-2.608,17.652-3.695c10.15-0.43,8.441,0.424,20.131,3.014&#10;&#9;&#9;&#9;&#9;&#9;&#9;&#9;&#9;&#9;c5.866,1.3,12.619,3.12,19.522,5.7c6.096,2.279,11.662,6.397,17.63,9.982c5.721,3.437,11.035,7.296,15.849,12.193&#10;&#9;&#9;&#9;&#9;&#9;&#9;&#9;&#9;&#9;c4.633,4.713,9.352,9.472,12.443,15.768c2.812,5.728,5.291,13.062,6.282,20.279c-8.974,4.037-10.254-0.626-20.076-0.04&#10;&#9;&#9;&#9;&#9;&#9;&#9;&#9;&#9;&#9;c-9.821,0.587-9.854,0.025-19.675,0.611c-9.821,0.587-9.788,1.139-19.609,1.726c-9.821,0.587-9.797,0.995-19.618,1.582&#10;&#9;&#9;&#9;&#9;&#9;&#9;&#9;&#9;&#9;c-9.824,0.587-9.846,0.211-19.67,0.797c-9.827,0.587-9.781,1.357-19.608,1.944c-9.824,0.587-9.926-1.119-19.75-0.532&#10;&#9;&#9;&#9;&#9;&#9;&#9;&#9;&#9;&#9;c-9.831,0.587-9.971,0.021-19.729,1.349C654.046,160.432,653.987,162.989,644.564,160.127z"/>
							</defs>
							<clipPath id="SVGID_6_">
								<use xlink:href="#SVGID_5_" overflow="visible"/>
							</clipPath>
						</g>
					</g>
				</g>
			</g>
			<g>
				<g>
					<g>
						<g>
							<path fill="#FFFFFF" d="M233.846,79.478c5.424-7.297,9.916-1.006,18.929-2.201c9.014-1.195,9.09-0.627,18.104-1.822&#10;&#9;&#9;&#9;&#9;&#9;&#9;&#9;&#9;c9.016-1.196,9.098-0.578,18.113-1.773c9.014-1.195,8.78-2.962,17.794-4.157c9.013-1.195,9.097-0.561,18.11-1.757&#10;&#9;&#9;&#9;&#9;&#9;&#9;&#9;&#9;c9.013-1.195,8.994-1.334,18.007-2.529c9.013-1.195,9.103-0.518,18.116-1.714c9.015-1.196,8.872-2.278,17.887-3.473&#10;&#9;&#9;&#9;&#9;&#9;&#9;&#9;&#9;c9.018-1.196,9.086-0.687,18.104-1.883c9.016-1.196,9.222,0.361,18.238-0.835c9.022-1.197,8.995-1.401,18.016-2.598&#10;&#9;&#9;&#9;&#9;&#9;&#9;&#9;&#9;c9.022-1.197,9.289-6.274,18.168-4.276c9.124,2.054-1.027,7.69-0.061,19.795c0.415,5.208,2.798,11.29,3.426,18.476&#10;&#9;&#9;&#9;&#9;&#9;&#9;&#9;&#9;c0.492,5.637,1.347,11.827,1.981,18.594c0.544,5.81-0.334,12.164,0.322,18.754c0.587,5.904,0.652,12.174,1.333,18.667&#10;&#9;&#9;&#9;&#9;&#9;&#9;&#9;&#9;c0.625,5.959,1.556,12.135,2.263,18.562c0.66,5.998,2.874,12.025,3.609,18.409c0.694,6.028,1.129,12.254,1.892,18.606&#10;&#9;&#9;&#9;&#9;&#9;&#9;&#9;&#9;c0.727,6.049,0.283,12.39,1.075,18.718c0.759,6.063,2.031,12.192,2.85,18.496c0.79,6.072,1.665,12.246,2.513,18.53&#10;&#9;&#9;&#9;&#9;&#9;&#9;&#9;&#9;c0.821,6.084,2.935,12.088,3.812,18.358c0.852,6.09-0.061,12.521,0.846,18.776c0.883,6.096,2.768,12.126,3.704,18.369&#10;&#9;&#9;&#9;&#9;&#9;&#9;&#9;&#9;c0.915,6.099,0.899,12.413,1.865,18.644c0.947,6.103,2.243,12.22,3.24,18.441c0.979,6.105,2.965,13.123,3.993,19.334&#10;&#9;&#9;&#9;&#9;&#9;&#9;&#9;&#9;c-8.388,4.76-9.849,1.618-19.292,3.58c-9.445,1.962-9.404,2.156-18.849,4.118c-9.443,1.961-9.656,0.934-19.099,2.895&#10;&#9;&#9;&#9;&#9;&#9;&#9;&#9;&#9;c-9.442,1.961-9.334,2.48-18.776,4.441c-9.442,1.961-9.45,1.919-18.892,3.88c-9.442,1.961-9.673,0.848-19.115,2.809&#10;&#9;&#9;&#9;&#9;&#9;&#9;&#9;&#9;c-9.444,1.962-9.526,1.568-18.971,3.529c-9.448,1.962-9.035,3.951-18.482,5.913c-9.445,1.962-9.582,1.3-19.027,3.262&#10;&#9;&#9;&#9;&#9;&#9;&#9;&#9;&#9;c-9.451,1.963-9.697,0.781-19.148,2.744c-9.451,1.963-11.238,11.309-19.259,5.939c-7.691-5.148,0.079-10.159-1.224-19.321&#10;&#9;&#9;&#9;&#9;&#9;&#9;&#9;&#9;c-1.304-9.165-0.817-9.234-2.122-18.4c-1.304-9.163-2.38-9.01-3.683-18.173c-1.304-9.165-1.527-9.134-2.831-18.299&#10;&#9;&#9;&#9;&#9;&#9;&#9;&#9;&#9;c-1.304-9.167-1.464-9.144-2.769-18.311c-1.304-9.165,0.12-9.368-1.184-18.534c-1.304-9.166-3.21-8.895-4.514-18.06&#10;&#9;&#9;&#9;&#9;&#9;&#9;&#9;&#9;c-1.304-9.167,0.21-9.382-1.094-18.549c-1.305-9.168-2.996-8.927-4.301-18.096c-1.304-9.167,0.648-9.444-0.657-18.611&#10;&#9;&#9;&#9;&#9;&#9;&#9;&#9;&#9;c-1.304-9.165-1.45-9.145-2.754-18.31c-1.304-9.165-1.987-9.068-3.291-18.234c-1.304-9.166-1.01-9.207-2.315-18.373&#10;&#9;&#9;&#9;&#9;&#9;&#9;&#9;&#9;c-1.305-9.168-1.111-9.196-2.415-18.363c-1.305-9.171-1.318-9.169-2.623-18.34c-1.305-9.168-1.343-9.163-2.647-18.331&#10;&#9;&#9;&#9;&#9;&#9;&#9;&#9;&#9;c-1.305-9.174-0.481-9.411-3.856-18.042C233.133,89.103,228.318,86.916,233.846,79.478z" style="fill: rgb(255, 255, 255);"/>
						</g>
					</g>
					<g>
						<g>
							<path fill="#062148" d="M288.28,157.201l-0.461-2.568c4.271-0.766,6.286-1.474,8.419-2.224c2.136-0.75,4.345-1.526,8.82-2.33&#10;&#9;&#9;&#9;&#9;&#9;&#9;&#9;&#9;c4.397-0.788,6.65-1.098,8.828-1.397c2.154-0.297,4.381-0.603,8.731-1.384c4.435-0.796,6.727-0.985,8.945-1.169&#10;&#9;&#9;&#9;&#9;&#9;&#9;&#9;&#9;c2.256-0.187,4.387-0.363,8.699-1.137c4.358-0.782,6.523-1.242,8.689-1.703c2.183-0.464,4.369-0.93,8.759-1.718&#10;&#9;&#9;&#9;&#9;&#9;&#9;&#9;&#9;c4.297-0.77,6.339-1.405,8.499-2.075c2.141-0.663,4.356-1.351,8.811-2.151c4.434-0.796,6.724-0.994,8.939-1.185&#10;&#9;&#9;&#9;&#9;&#9;&#9;&#9;&#9;c2.257-0.196,4.388-0.38,8.704-1.155c4.286-0.769,6.314-1.443,8.461-2.157c2.14-0.712,4.354-1.448,8.823-2.249&#10;&#9;&#9;&#9;&#9;&#9;&#9;&#9;&#9;c4.375-0.785,6.561-1.187,8.748-1.588c2.189-0.401,4.377-0.803,8.757-1.59l0.461,2.568c-4.375,0.785-6.561,1.187-8.748,1.588&#10;&#9;&#9;&#9;&#9;&#9;&#9;&#9;&#9;c-2.189,0.401-4.377,0.803-8.757,1.59c-4.286,0.769-6.314,1.443-8.461,2.157c-2.14,0.712-4.354,1.447-8.823,2.249&#10;&#9;&#9;&#9;&#9;&#9;&#9;&#9;&#9;c-4.434,0.796-6.724,0.994-8.94,1.185c-2.256,0.196-4.387,0.38-8.703,1.155c-4.296,0.771-6.338,1.405-8.498,2.075&#10;&#9;&#9;&#9;&#9;&#9;&#9;&#9;&#9;c-2.141,0.665-4.356,1.351-8.812,2.151c-4.35,0.781-6.515,1.242-8.678,1.701c-2.188,0.465-4.372,0.931-8.771,1.72&#10;&#9;&#9;&#9;&#9;&#9;&#9;&#9;&#9;c-4.435,0.796-6.727,0.985-8.945,1.169c-2.256,0.187-4.387,0.363-8.699,1.137c-4.403,0.79-6.657,1.101-8.837,1.399&#10;&#9;&#9;&#9;&#9;&#9;&#9;&#9;&#9;c-2.152,0.297-4.378,0.602-8.722,1.381c-4.269,0.766-6.284,1.475-8.417,2.224&#10;&#9;&#9;&#9;&#9;&#9;&#9;&#9;&#9;C294.966,155.622,292.757,156.398,288.28,157.201z"/>
						</g>
					</g>
					<g>
						<g>
							<path fill="#062148" d="M292.618,188.191l-0.461-2.568c4.263-0.765,6.27-1.496,8.395-2.268&#10;&#9;&#9;&#9;&#9;&#9;&#9;&#9;&#9;c2.135-0.778,4.344-1.581,8.828-2.386c4.322-0.776,6.391-1.322,8.581-1.899c2.143-0.566,4.36-1.151,8.786-1.945&#10;&#9;&#9;&#9;&#9;&#9;&#9;&#9;&#9;c4.463-0.801,6.788-0.891,9.037-0.978c2.259-0.087,4.393-0.17,8.677-0.938c4.457-0.801,6.774-0.918,9.015-1.032&#10;&#9;&#9;&#9;&#9;&#9;&#9;&#9;&#9;c2.259-0.114,4.392-0.223,8.684-0.994c4.235-0.76,6.211-1.588,8.303-2.465c2.131-0.892,4.333-1.815,8.851-2.627&#10;&#9;&#9;&#9;&#9;&#9;&#9;&#9;&#9;c4.365-0.783,6.534-1.227,8.707-1.673c2.183-0.447,4.369-0.895,8.754-1.682c4.472-0.803,6.806-0.873,9.062-0.942&#10;&#9;&#9;&#9;&#9;&#9;&#9;&#9;&#9;c2.262-0.069,4.399-0.134,8.682-0.902c4.306-0.774,6.356-1.379,8.527-2.022c2.143-0.634,4.36-1.289,8.811-2.088l0.461,2.568&#10;&#9;&#9;&#9;&#9;&#9;&#9;&#9;&#9;c-4.309,0.774-6.36,1.379-8.532,2.022c-2.142,0.634-4.359,1.289-8.806,2.088c-4.472,0.803-6.807,0.873-9.063,0.942&#10;&#9;&#9;&#9;&#9;&#9;&#9;&#9;&#9;c-2.262,0.069-4.398,0.134-8.681,0.902c-4.354,0.782-6.525,1.226-8.691,1.671c-2.189,0.448-4.374,0.895-8.77,1.684&#10;&#9;&#9;&#9;&#9;&#9;&#9;&#9;&#9;c-4.235,0.76-6.211,1.588-8.303,2.465c-2.131,0.892-4.333,1.815-8.851,2.627c-4.456,0.8-6.772,0.917-9.013,1.031&#10;&#9;&#9;&#9;&#9;&#9;&#9;&#9;&#9;c-2.259,0.115-4.392,0.223-8.686,0.995c-4.463,0.801-6.788,0.891-9.037,0.978c-2.259,0.087-4.393,0.17-8.677,0.938&#10;&#9;&#9;&#9;&#9;&#9;&#9;&#9;&#9;c-4.322,0.776-6.391,1.322-8.581,1.899c-2.143,0.566-4.36,1.151-8.786,1.945c-4.264,0.765-6.271,1.496-8.397,2.268&#10;&#9;&#9;&#9;&#9;&#9;&#9;&#9;&#9;C299.309,186.583,297.101,187.386,292.618,188.191z"/>
						</g>
					</g>
					<g>
						<g>
							<path fill="#062148" d="M296.707,217.787l-0.461-2.568c4.387-0.787,6.588-1.137,8.789-1.486&#10;&#9;&#9;&#9;&#9;&#9;&#9;&#9;&#9;c2.188-0.348,4.376-0.695,8.736-1.478c4.286-0.769,6.317-1.429,8.467-2.127c2.139-0.694,4.351-1.412,8.812-2.213&#10;&#9;&#9;&#9;&#9;&#9;&#9;&#9;&#9;c4.424-0.795,6.705-1.02,8.911-1.238c2.155-0.213,4.384-0.434,8.707-1.21c4.394-0.788,6.602-1.116,8.812-1.444&#10;&#9;&#9;&#9;&#9;&#9;&#9;&#9;&#9;c2.189-0.326,4.378-0.651,8.733-1.433c4.446-0.798,6.751-0.957,8.98-1.111c2.258-0.155,4.391-0.302,8.697-1.075&#10;&#9;&#9;&#9;&#9;&#9;&#9;&#9;&#9;c4.313-0.774,6.371-1.355,8.549-1.972c2.143-0.606,4.359-1.232,8.796-2.028c4.471-0.802,6.803-0.879,9.058-0.954&#10;&#9;&#9;&#9;&#9;&#9;&#9;&#9;&#9;c2.261-0.075,4.397-0.146,8.682-0.915l17.508-3.16l0.461,2.568l-17.508,3.16c-4.47,0.802-6.803,0.879-9.057,0.954&#10;&#9;&#9;&#9;&#9;&#9;&#9;&#9;&#9;c-2.262,0.075-4.398,0.146-8.683,0.915c-4.311,0.774-6.369,1.355-8.548,1.971c-2.142,0.606-4.359,1.233-8.797,2.029&#10;&#9;&#9;&#9;&#9;&#9;&#9;&#9;&#9;c-4.446,0.798-6.75,0.957-8.978,1.111c-2.259,0.155-4.391,0.302-8.698,1.075c-4.394,0.788-6.602,1.116-8.812,1.444&#10;&#9;&#9;&#9;&#9;&#9;&#9;&#9;&#9;c-2.189,0.326-4.378,0.651-8.733,1.433c-4.424,0.795-6.706,1.02-8.911,1.238c-2.156,0.213-4.384,0.434-8.707,1.21&#10;&#9;&#9;&#9;&#9;&#9;&#9;&#9;&#9;c-4.286,0.769-6.317,1.429-8.467,2.127c-2.139,0.694-4.351,1.412-8.812,2.213c-4.387,0.787-6.588,1.137-8.789,1.486&#10;&#9;&#9;&#9;&#9;&#9;&#9;&#9;&#9;C303.256,216.657,301.067,217.004,296.707,217.787z"/>
						</g>
					</g>
					<g>
						<g>
							<path fill="#062148" d="M301.27,250.028l-0.461-2.568c4.371-0.784,6.554-1.187,8.738-1.589&#10;&#9;&#9;&#9;&#9;&#9;&#9;&#9;&#9;c2.186-0.402,4.373-0.805,8.749-1.591c4.367-0.784,6.546-1.199,8.725-1.614c2.185-0.417,4.372-0.834,8.752-1.62&#10;&#9;&#9;&#9;&#9;&#9;&#9;&#9;&#9;c4.223-0.758,6.19-1.611,8.272-2.515c2.128-0.922,4.328-1.877,8.852-2.689c4.541-0.815,6.957-0.619,9.295-0.427&#10;&#9;&#9;&#9;&#9;&#9;&#9;&#9;&#9;c2.269,0.187,4.413,0.364,8.62-0.393c4.348-0.78,6.539-1.276,8.66-1.756c2.148-0.485,4.37-0.987,8.774-1.779&#10;&#9;&#9;&#9;&#9;&#9;&#9;&#9;&#9;c4.395-0.788,6.645-1.107,8.821-1.416c2.154-0.305,4.381-0.621,8.736-1.402c4.235-0.76,6.209-1.594,8.3-2.478&#10;&#9;&#9;&#9;&#9;&#9;&#9;&#9;&#9;c2.131-0.9,4.334-1.831,8.855-2.642l17.515-3.125l0.461,2.568l-17.515,3.125c-4.235,0.76-6.209,1.594-8.3,2.478&#10;&#9;&#9;&#9;&#9;&#9;&#9;&#9;&#9;c-2.131,0.9-4.334,1.831-8.855,2.642c-4.402,0.79-6.654,1.109-8.832,1.418c-2.153,0.305-4.378,0.621-8.726,1.4&#10;&#9;&#9;&#9;&#9;&#9;&#9;&#9;&#9;c-4.348,0.78-6.539,1.276-8.66,1.756c-2.148,0.485-4.37,0.987-8.774,1.779c-4.542,0.814-6.958,0.615-9.294,0.426&#10;&#9;&#9;&#9;&#9;&#9;&#9;&#9;&#9;c-2.269-0.188-4.414-0.362-8.621,0.394c-4.225,0.758-6.192,1.611-8.275,2.515c-2.127,0.922-4.327,1.876-8.849,2.689&#10;&#9;&#9;&#9;&#9;&#9;&#9;&#9;&#9;c-4.367,0.784-6.546,1.199-8.725,1.614c-2.185,0.417-4.372,0.834-8.752,1.62c-4.371,0.784-6.554,1.187-8.738,1.589&#10;&#9;&#9;&#9;&#9;&#9;&#9;&#9;&#9;C307.832,248.839,305.646,249.242,301.27,250.028z"/>
						</g>
					</g>
					<g>
						<g>
							<path fill="#062148" d="M305.432,280.031l-0.461-2.568c4.395-0.788,6.644-1.105,8.82-1.41&#10;&#9;&#9;&#9;&#9;&#9;&#9;&#9;&#9;c2.154-0.303,4.381-0.616,8.733-1.397c4.36-0.783,6.531-1.22,8.703-1.658c2.185-0.44,4.371-0.882,8.757-1.669&#10;&#9;&#9;&#9;&#9;&#9;&#9;&#9;&#9;c4.423-0.793,6.703-1.024,8.907-1.247c2.155-0.217,4.384-0.442,8.708-1.219c4.37-0.784,6.551-1.194,8.732-1.605&#10;&#9;&#9;&#9;&#9;&#9;&#9;&#9;&#9;c2.186-0.411,4.374-0.822,8.753-1.608c4.334-0.778,6.51-1.323,8.614-1.849c2.147-0.537,4.366-1.092,8.785-1.886&#10;&#9;&#9;&#9;&#9;&#9;&#9;&#9;&#9;c4.346-0.78,6.534-1.286,8.651-1.776c2.146-0.497,4.366-1.01,8.77-1.802c4.415-0.792,6.684-1.059,8.879-1.315&#10;&#9;&#9;&#9;&#9;&#9;&#9;&#9;&#9;c2.157-0.254,4.388-0.515,8.728-1.294c4.35-0.781,6.545-1.271,8.667-1.746c2.149-0.48,4.372-0.978,8.777-1.768l0.461,2.568&#10;&#9;&#9;&#9;&#9;&#9;&#9;&#9;&#9;c-4.352,0.781-6.547,1.271-8.669,1.746c-2.149,0.481-4.371,0.978-8.775,1.768c-4.419,0.793-6.689,1.06-8.885,1.318&#10;&#9;&#9;&#9;&#9;&#9;&#9;&#9;&#9;c-2.156,0.253-4.385,0.514-8.722,1.292c-4.34,0.779-6.528,1.285-8.643,1.775c-2.148,0.498-4.369,1.011-8.778,1.803&#10;&#9;&#9;&#9;&#9;&#9;&#9;&#9;&#9;c-4.332,0.778-6.508,1.322-8.612,1.849c-2.147,0.537-4.367,1.092-8.787,1.886c-4.37,0.784-6.551,1.194-8.732,1.605&#10;&#9;&#9;&#9;&#9;&#9;&#9;&#9;&#9;c-2.186,0.411-4.374,0.822-8.753,1.608c-4.423,0.793-6.703,1.024-8.907,1.247c-2.155,0.217-4.384,0.442-8.708,1.219&#10;&#9;&#9;&#9;&#9;&#9;&#9;&#9;&#9;c-4.36,0.783-6.531,1.22-8.703,1.658c-2.185,0.44-4.371,0.882-8.757,1.669c-4.401,0.79-6.654,1.107-8.831,1.412&#10;&#9;&#9;&#9;&#9;&#9;&#9;&#9;&#9;C312.003,278.939,309.778,279.252,305.432,280.031z"/>
						</g>
					</g>
				</g>
				<g>
					<g>
						<circle fill="#EA5050" cx="320.724" cy="362.664" r="26.122"/>
					</g>
					<g>
						<polygon fill="#EA5050" points="338.185,376.28 364.605,430.63 346.846,419.76 342.497,435.413 322.916,379.758 &#9;&#9;&#9;&#9;&#9;&#9;"/>
					</g>
					<g>
						<polygon fill="#EA5050" points="307.755,378.649 298.927,438.432 312.589,422.719 321.448,436.336 323.363,377.368 &#9;&#9;&#9;&#9;&#9;&#9;"/>
					</g>
				</g>
				<g>
					<path fill="#6F7170" d="M392.881,60.926c0,0,2.694,19.889-10.35,20.541l-4.403-23.703l13.915-4.951L392.881,60.926z" style="fill: rgb(128, 128, 128);"/>
				</g>
				<g>
					<path fill="#6F7170" d="M369.455,62.824c0,0,2.694,19.889-10.35,20.541l-4.403-23.702l13.915-4.951L369.455,62.824z" style="fill: rgb(128, 128, 128);"/>
				</g>
				<g>
					<path fill="#6F7170" d="M346.029,64.721c0,0,2.694,19.889-10.35,20.541l-4.402-23.702l13.915-4.951L346.029,64.721z" style="fill: rgb(128, 128, 128);"/>
				</g>
			</g>
			<g>
				<ellipse fill="#F2CAB6" cx="807.862" cy="265.062" rx="17.341" ry="11.633"/>
			</g>
			<g>
				<ellipse fill="#F2CAB6" cx="663.97" cy="265.993" rx="17.341" ry="11.633"/>
			</g>
		</g>
		<g>
			<path fill="#A3E2E2" d="M676.964,1044.921c5.591-5.712,7.658,1.578,15.607,2.42c7.949,0.841,8.138-0.947,16.087-0.106&#10;&#9;&#9;&#9;&#9;c7.949,0.841,7.872,1.572,15.821,2.414c7.951,0.842,7.954,0.814,15.905,1.656c7.954,0.842,7.823,2.075,15.777,2.917&#10;&#9;&#9;&#9;&#9;c7.951,0.842,8.152-1.05,16.103-0.209c7.957,0.842,7.92,1.186,15.877,2.028c7.957,0.842,11.601-4.631,15.439,2.39&#10;&#9;&#9;&#9;&#9;c3.814,6.976-4.099,6.382-7.729,13.455s1.019,11.522-5.922,15.399c-6.812,3.805-8.188-1.791-15.958-2.496&#10;&#9;&#9;&#9;&#9;c-7.771-0.705-7.727-1.19-15.497-1.895c-7.773-0.705-7.814-0.251-15.586-0.956c-7.775-0.705-7.856,0.186-15.631-0.52&#10;&#9;&#9;&#9;&#9;c-7.773-0.705-7.67-1.837-15.443-2.542c-7.778-0.706-7.855,0.144-15.633-0.561s-9.611,3.427-15.156-2.073&#10;&#9;&#9;&#9;&#9;c-5.701-5.655,1.031-8.234-1.678-15.794C676.449,1052.362,671.347,1050.66,676.964,1044.921z"/>
		</g>
		<g>
			<path fill="#A3E2E2" d="M514.59,1030.209c5.591-5.712,7.658,1.578,15.607,2.42s8.138-0.947,16.087-0.106&#10;&#9;&#9;&#9;&#9;c7.949,0.841,7.872,1.572,15.821,2.414c7.951,0.842,7.954,0.814,15.905,1.656c7.954,0.842,7.823,2.075,15.777,2.917&#10;&#9;&#9;&#9;&#9;c7.951,0.842,8.152-1.05,16.103-0.209c7.957,0.842,7.92,1.186,15.877,2.028c7.957,0.842,11.601-4.631,15.439,2.39&#10;&#9;&#9;&#9;&#9;c3.814,6.976-4.099,6.382-7.729,13.455c-3.63,7.073,1.019,11.522-5.922,15.399c-6.812,3.805-8.188-1.791-15.958-2.496&#10;&#9;&#9;&#9;&#9;c-7.771-0.705-7.727-1.19-15.497-1.895c-7.773-0.705-7.814-0.251-15.586-0.956c-7.775-0.705-7.856,0.186-15.631-0.52&#10;&#9;&#9;&#9;&#9;c-7.773-0.705-7.67-1.837-15.443-2.542c-7.778-0.706-7.855,0.144-15.633-0.561c-7.778-0.706-9.611,3.427-15.156-2.073&#10;&#9;&#9;&#9;&#9;c-5.701-5.655,1.031-8.234-1.678-15.794C514.074,1037.65,508.973,1035.948,514.59,1030.209z"/>
		</g>
	</g>
	<g>
		<g>
			<g>
				<g>
					<g>
						<g>
							<path fill="#2E3744" d="M727.698,268.57c4.132-1.588,10.167-2.782,16.843-0.438c6.379,2.239,10.818,6.513,6.643,11.086&#10;&#9;&#9;&#9;&#9;&#9;&#9;&#9;&#9;c-2.08,2.279-7.141,8.377-11.991,10.233c0,0-8.277-1.659-14.118-11.383C722.884,274.418,724.074,269.963,727.698,268.57z"/>
						</g>
					</g>
				</g>
			</g>
		</g>
	</g>
	<g>
		<g>
			<g>
				<g>
					<g>
						<g>
							<path fill="#062148" d="M766.673,310.129c-6.419,5.322-12.583,3.49-12.887,3.395l0.566-1.805l-0.283,0.903l0.28-0.904&#10;&#9;&#9;&#9;&#9;&#9;&#9;&#9;&#9;c0.308,0.094,7.618,2.197,14.232-6.298l1.493,1.162C768.953,308.021,767.809,309.187,766.673,310.129z"/>
						</g>
					</g>
				</g>
			</g>
		</g>
	</g>
</g>
</svg>