<svg xmlns="http://www.w3.org/2000/svg" viewBox="0 0 1200 1200" xml:space="preserve"><path d="M929.383 308.473c1.447-.282 2.909-.485 3.702-.614 3.363.563 5.167 2.47 5.323 5.001.17 2.76-1.504 5.334-3.966 6.091-.179.055-.367.078-.549.126-3.235.841-3.383.742-4.271-2.453-.527-1.896-1.102-3.779-1.674-5.662-.411-1.356.049-2.218 1.435-2.489zm234.498 513.673c-1.467 6.934-3.307 13.83-5.561 20.547-4.404 13.126-11.792 24.677-20.061 35.66-4.5 5.976-9.099 11.899-14.001 17.545-12.234 14.091-27.317 23.584-46.081 25.678-9.655 1.078-19.519.979-29.247.523-10.376-.487-19.996-4.424-29.439-8.56-13.868-6.074-26.58-14.252-39.612-21.841-9.338-5.438-18.018-11.824-26.254-18.812-8.646-7.337-16.265-15.632-23.077-24.694-22.022-29.293-41.127-60.331-57.006-93.401-7.407-15.426-15.795-30.381-23.734-45.551-.461-.881-.892-1.778-1.662-3.318 3.648-.187 6.658-.482 9.666-.462 3.928.027 7.853.421 11.781.447 7.906.054 14.804 3.312 21.558 6.816 11.077 5.748 21.269 12.8 30.344 21.436 4.224 4.02 8.645 7.833 13.016 11.696 1.198 1.058 2.537 1.956 3.811 2.927l.711-.466c-.299-.831-.525-1.697-.908-2.488-8.338-17.232-21.939-29.27-38.311-38.466-8.425-4.732-17.23-8.697-26.784-10.568-8.614-1.687-17.313-2.436-26.108-1.536-3.904.4-7.839.498-11.752.828-6.94.585-13.888 1.117-20.808 1.899-10.072 1.138-20.197 2.054-30.162 3.83-14.783 2.634-29.793 2.629-44.617 4.574-4.645.61-9.248 1.534-13.878 2.27-7.382 1.172-14.753 2.445-22.161 3.43-18.757 2.493-37.11 7.027-55.63 10.729-10.435 2.086-20.967 3.706-31.477 5.4-22.151 3.57-44.37 6.753-66.459 10.668-15.582 2.762-31.354 4.765-46.488 9.756-8.132 2.682-15.842 6.27-22.774 11.244-7.415 5.321-14.574 11.011-21.701 16.718-8.156 6.532-15.219 14.15-21.567 22.447-13.809 18.047-26.229 37.057-38.502 56.147-19.132 29.758-38.012 59.68-56.797 89.659-16.334 26.068-34.843 50.517-54.413 74.191-6.706 8.112-13.571 16.105-20.651 23.892-9.614 10.575-20.545 19.59-33.142 26.48-2.865 1.567-5.671 3.244-8.508 4.863-7.947 4.536-16.585 6.015-25.622 5.991-43.049-.111-78.356-17.258-107.197-48.636-6.044-6.576-10.909-13.989-15.088-21.871-13.183-24.864-20.871-51.416-23.848-79.306-2.478-23.217-3.186-46.543-3.081-69.889.105-23.233 1.803-46.385 3.782-69.51 2.736-31.975 5.904-63.912 8.617-95.889 2.069-24.392 3.766-48.815 5.53-73.232a747.267 747.267 0 0 0 1.42-26.594c.11-3.008-.641-6.04-.657-9.063-.037-7.099-.116-14.212.263-21.296 1.161-21.653 2.7-43.286 3.769-64.942.975-19.756 1.687-39.528 2.193-59.301.214-8.354-.771-16.74-.533-25.092.253-8.861 1.187-17.712 2.048-26.545 1.366-14.01 2.859-28.009 4.406-42.001 3.328-30.096 18.81-53.015 42.968-70.134 16.442-11.652 33.617-22.291 50.694-33.016 14.068-8.836 28.505-17.082 42.723-25.682 19.031-11.512 38.82-21.547 59.264-30.257 7.803-3.324 15.831-6.179 23.898-8.812 15.902-5.189 31.802-5.228 47.839.03 18.411 6.037 37.523 8.447 56.736 10.592 11.308 1.263 22.189.037 33.258-1.477 20.599-2.816 41.319-4.792 61.868-7.917 28.699-4.365 57.323-9.257 85.908-14.33 15.093-2.678 30.08-6.014 45.022-9.456 6.898-1.589 13.664-3.895 20.316-6.349 4.244-1.566 8.307-3.764 12.205-6.091 7.511-4.485 14.798-9.343 22.265-13.903 14.233-8.691 29.83-12.389 46.405-12.658 16.832-.273 33.417 1.526 49.849 5.106 7.805 1.7 15.684 3.057 23.508 4.672 10.864 2.243 21.248 5.955 31.193 10.818 33.632 16.448 61.238 39.976 82.54 70.796 8.799 12.731 17.405 25.596 26.103 38.397.976 1.436 1.67 3.034 3.883 3.24.852.079 1.729 1.367 2.348 2.272 19.038 27.874 37.565 56.063 53.725 85.749 8.492 15.6 17.508 30.872 27.642 45.513 6.409 9.26 11.676 19.311 17.472 28.997 12.767 21.336 25.751 42.548 36.945 64.78 8.044 15.975 16.225 31.884 24.04 47.971 8.382 17.254 14.739 35.343 21.204 53.374 2.825 7.879 5.737 15.734 8.3 23.7 2.912 9.048 5.937 18.099 8.11 27.338 6.1 25.936 11.205 52.079 13.922 78.615 1.796 17.533 3.256 35.102 4.774 52.662 1.762 20.399-.263 40.553-4.483 60.499zM988.099 374.408c.668 2.032 1.473 4.064 2.551 5.907 10.691 18.282 21.513 36.488 32.156 54.798 4.906 8.439 9.258 17.205 14.286 25.566 4.475 7.441 23.13 38.918 42.323 79.276-5.761-16.041-9.89-27.643-10.418-29.436-1.109-2.119-1.734-3.339-1.71-3.356-.07-.343-.091-.705-.216-1.027-6.309-16.22-13.971-31.782-22.296-47.064-6.497-11.929-12.996-23.819-20.78-34.978-3.045-4.365-5.699-9-8.598-13.469-7.728-11.912-14.26-24.596-23.096-35.794-.471-.597-.782-1.365-1.352-1.824-.527-.425-1.644-.934-1.897-.713-.547.479-1.141 1.541-.953 2.114zm-72.014-76.786c.612 1.659 1.282 3.296 1.94 4.938 2.319 5.794 4.646 11.585 6.966 17.378.309.772.592 1.555.907 2.326.783 1.92 2.252 3.12 4.279 3.108 1.826-.011 3.855-.099 5.432-.883 3.983-1.978 6.558-5.344 7.806-9.638 1.039-3.576-.309-7.087-3.688-9.068-1.565-.918-3.406-1.364-5.337-2.107.133-.498.328-1.059.431-1.637.562-3.16-.186-5.977-2.299-8.404-3.324-3.818-7.688-4.295-12.261-3.498-5.345.931-6.062 2.374-4.176 7.485zm-4.824 21.74c.684 1.143 1.826 1.711 3.371.799l-5.846-20.587c-.578.938-1.32 1.645-1.464 2.457-1.122 6.309.745 11.997 3.939 17.331zm7.131 21.14c10.967 5.618 23.354 2.688 31.268-6.621 2.921-3.436 4.709-7.389 5.353-11.858-.835 1.103-1.387 2.349-2.037 3.541-2.61 4.794-6.068 8.79-11.232 10.895-11.09 4.52-23.95 1.511-31.965-7.417-5.529-6.158-8.397-13.494-9.289-21.647-.6-5.481.104-10.849 1.816-16.111l-.665-.375c-.453.873-1.003 1.709-1.345 2.623-7.453 19.921.905 38.163 18.096 46.97zm-48.411 16.354c-1.092.429-2.245.747-3.268 1.303-8.493 4.621-13.096 12.092-15.037 21.279-1.537 7.276.061 14.394 2.211 21.308 4.074 13.099 13.722 19.834 26.644 22.618 9.83 2.118 18.583-.848 26.692-6.034 4.709-3.011 7.945-7.385 9.383-12.9-.901.737-1.596 1.626-2.299 2.507-3.724 4.663-8.359 8.071-13.962 10.154-18.483 6.871-39.293-4.951-43.977-24.775-2.606-11.034.772-27.735 13.613-35.46zm-2.165 34.212c-.32-5.79-.636-11.582-1.055-17.365-.053-.735-.704-1.428-1.078-2.14-.761.507-1.626.912-2.243 1.556-.389.406-.43 1.162-.587 1.771-1.526 5.931-.945 11.788.848 17.536.416 1.335 1.523 2.454 2.383 3.783 1.962-1.605 1.828-3.394 1.732-5.141zm7.897-23.663c2.248 10.937 2.843 21.947 1.384 33.034-.245 1.859.443 3.09 2.026 3.931 1.911 1.015 3.847 1.909 6.529 1.284.2-2.714.376-5.429.606-8.14.231-2.71.242-2.761 2.905-3.407 2.106-.511 4.247-.878 6.375-1.295 3.872-.758 4.84-.31 6.438 3.235.875 1.943 1.58 3.964 2.369 5.97 3.916-2.206 5.099-5.371 3.543-9.212-4.034-9.954-10.522-18.137-18.442-25.236-5.534-4.961-6.596-5.006-13.72-1.37-.011.536-.079.885-.013 1.206zm-41.572-102.921c-7.215-3.43-12.516-8.852-16.661-15.607-6.86-11.177-7.102-28.754 6.28-39.858.094-.078-.041-.43-.092-.832-.931.474-1.848.854-2.677 1.375-7.814 4.912-11.491 12.304-12.252 21.218-1.451 16.997 9.47 34.634 25.3 40.906 19.948 7.904 37.84-5.201 36.767-25.911-.204.851-.374 1.712-.618 2.551-4.819 16.534-20.488 23.554-36.047 16.158zM690.533 526.592c13.653 29.01 36.113 48.199 66.454 58.121 15.65 5.118 31.309 5.643 47.042-.514 14.055-5.5 24.147-14.936 30.798-28.283 1.03-2.068 1.779-4.275 2.897-7.001-.808.596-1.056.715-1.214.908-.333.408-.632.845-.921 1.285-11.551 17.569-28.043 26.948-48.762 28.897-20.625 1.94-39.453-3.72-56.31-15.34-24.549-16.921-39.625-39.949-41.584-70.178-1.463-22.577 6.517-41.511 24.67-55.668.454-.354.833-.806 1.247-1.213-.975.002-1.686.302-2.351.683-7.973 4.564-13.962 11.257-19.635 18.294-4.854 6.021-7.591 12.939-9.021 20.484-3.273 17.267-.717 33.787 6.69 49.525zm8.638-169.453c6.374-12.574 3.227-27.901-7.651-37.26-14.015-12.059-33.782-8.797-43.065 7.14-5.471 9.394-5.068 19.229-1.687 29.091 2.02 5.892 6.012 10.295 11.852 12.732 3.338 1.393 6.792 2.509 10.194 3.75 12.559 1.801 24.678-4.249 30.357-15.453zm14.81 133.879c-.821-1.859-1.19-3.917-1.757-5.888-1.312 3.484-2.03 6.928-2.591 10.398-.696 4.31-1.212 8.649-1.909 12.959-.292 1.807-.523 4.133-2.695 4.381-1.391.159-2.939-1.048-4.853-1.819 2.776 9.194 6.803 17.466 13.9 24.903.06-1.55.102-2.311.116-3.074.13-6.874.21-13.749.417-20.621.05-1.664.028-3.593 2.078-4.341 2.217-.809 3.396.868 4.711 2.134 2.096 2.018 4.112 4.126 6.283 6.059 1.616 1.439 3.424 2.663 5.319 4.114.301-.891.567-1.274.527-1.622-.597-5.187-.002-10.605-3.216-15.28-.881-1.282-1.322-2.879-1.895-4.358-.982-2.536-1.909-5.094-3.054-8.167-.816 1.695-1.293 2.916-1.96 4.023-1.59 2.638-4.059 3.202-6.287 1.098-1.374-1.296-2.356-3.136-3.134-4.899zm131.286-10.504c-.154-.816-.504-1.596-.763-2.393-.664.94-.815 1.802-.929 2.668-3.627 27.48-26.314 37.868-45.965 36.501-24.531-1.707-46.297-23.144-48.988-47.778-1.564-14.317 2.055-27.029 12.634-37.312.256-.249.407-.606 1.028-1.561-1.288.459-1.794.609-2.275.816-20.105 8.649-30.854 28.422-27.378 50.351 5.595 35.295 45.404 60.822 79.81 51.176 23.736-6.653 37.368-28.431 32.826-52.468zm-79.676-173.95c1.324-3.796 3.371-7.339 5.085-10.999-6.646 5.809-10.291 13.437-10.98 22.31-.653 8.405 1.438 16.226 5.57 23.691 6.603 11.93 16.933 17.527 30.043 18.293 9.183.537 17.194-2.676 23.485-9.607 3.683-4.058 5.904-8.826 6.755-14.232-.974 1.036-1.71 2.198-2.477 3.339-7.812 11.62-21.993 16.943-34.545 12.974-18.949-5.992-29.512-26.916-22.936-45.769zm12.231 28.09c.237-1.109.641-1.849.483-2.44a678.44 678.44 0 0 0-4.702-16.811c-.147-.501-.968-.803-1.541-1.248-2.626 5.815.335 16.743 5.76 20.499zm22.699-20.224c1.301-4.533 1.845-9.236 1.763-14.144l-5.725-1.892c-.257 5.324-.475 10.101-1.729 15.143-4.653-2.362-7.982-5.788-12.107-8.65l-3.542 5.106c3.719 3.06 7.103 6.044 10.712 8.727 1.686 1.253 2.242 2.539 1.755 4.472-.485 1.925-.93 3.862-1.353 5.802-.654 2.998-1.276 6.003-1.975 9.307l6.224 1.544 4.197-13.251 10.97 8.508 3.597-5.774c-3.789-3.124-7.271-6.177-10.956-8.962-2.188-1.653-2.585-3.308-1.831-5.936zm3.233 123.643c-4.953-2.332-10.259-3.634-15.767-3.414-8.828.353-16.732 2.888-21.785 10.809-3.04 4.766-4.603 10.075-4.715 15.77-.403 20.455 13.078 38.18 32.917 43.276 18.305 4.702 33.967-5.113 36.954-23.626.686-3.186.406-6.859-.558-10.479-3.99-14.974-13.064-25.753-27.046-32.336zm24.55-187.873c.948 1.299 1.588 3.597 4.109 3.018-.011-2.868-2.666-8.638-7.81-16.953-.401-.648-1.119-1.099-2.359-2.277-.22 6.933 2.755 11.679 6.06 16.212zm24.68 6.691c-.371-1.407-.607-2.388-.89-3.356-.964-3.295-1.937-6.587-2.921-9.876-.6-2.005-.643-3.928-.127-6.036 1.196-4.887 2.232-9.83 1.861-14.935-.28-3.851-1.217-4.766-5.377-4.975-1.666 5.202-.069 11.072-2.987 16.652l-14.382-13.018-4.652 4.113c.61.681 1.01 1.234 1.51 1.671 5 4.362 9.988 8.74 15.052 13.027 1.107.938 1.858 1.933 2.138 3.348.777 3.926 1.589 7.845 2.4 11.764.224 1.081.493 2.152.857 3.725l7.518-2.104zm-338.076-25.084c-.091.834.787 2.168 1.605 2.613 1.16.63 2.671.944 4.003.869 4.295-.241 8.621-.458 12.857-1.155a8746.96 8746.96 0 0 0 66.744-11.257c9.115-1.573 18.197-3.353 27.262-5.199 2.911-.593 5.718-1.701 8.572-2.573l-.167-1.198c-3.246.144-6.493.423-9.739.41-22.919-.097-45.511 2.962-67.971 7.127-11.962 2.218-23.852 4.824-35.779 7.238-1.738.352-3.559.423-5.215.99-.909.31-2.085 1.33-2.172 2.135zm-333.714 45.839 46.934-31.225-2.019-17.11c-13.89 7.404-26.925 14.981-39.657 23.077-.863.549-1.645 1.658-1.905 2.653-1.921 7.348-2.623 14.875-3.353 22.605zm-59.716 58.675c1.795-2.224 2.597-4.399 2.715-7.189.393-9.256 1.241-18.473 3.591-27.477.94-3.602 2.002-7.172 3.084-11.025-.653.279-1.049.347-1.309.573-10.256 8.93-18.892 19.165-24.24 31.773-6.845 16.139-7.892 33.398-8.84 50.734.217-.402.452-.796.648-1.208 6.313-13.272 15.192-24.834 24.351-36.181zm34.598 714.509c-4.672-5.756-8.459-12.021-11.227-18.896-3.898-9.684-6.683-19.73-8.276-29.997-1.708-11.005-2.666-22.13-3.796-33.219-1.837-18.032-3.432-36.082-3.091-54.241.212-11.277.492-22.555.577-33.833.122-16.095.255-32.192.082-48.285-.168-15.581-.71-31.157-1.114-46.735-.024-.925-.285-1.844-.435-2.765l-.738-.023c-.181 1.168-.416 2.331-.534 3.505-.492 4.92-1.083 9.834-1.393 14.766-.731 11.635-1.557 23.272-1.917 34.921-.552 17.861-.843 35.731-1.06 53.6-.174 14.317-.873 28.692.092 42.945 1.488 21.98 3.855 43.919 6.524 65.793 1.582 12.97 5.087 25.612 10.584 37.571 3.101 6.746 7.151 12.855 13.003 17.583 1.122.906 2.467 2.59 3.905 1.184 1.495-1.464-.313-2.798-1.186-3.874zm989.934-312.946c-2.896-34.758-9.543-68.801-19.736-102.156-4.93-16.134-9.949-32.238-16.302-47.888a1.12 1.12 0 0 0-.09-.209c-.453-1.098-.952-2.177-1.43-3.265-.042.096-.073.187-.106.279-4.036-7.714-14.893-28.08-24.433-46.003 9.324 17.627 20.298 38.37 24.4 46.092-.308.922-.205 1.675-.012 2.404 6.094 23.038 10.419 46.409 13.796 69.959.285 1.322.559 2.64.823 3.954a48.187 48.187 0 0 0-.454-1.365c.449 3.199.883 6.402 1.301 9.607 2.117 16.262 3.106 32.534 1.298 48.913-2.119 19.202-5.267 38.183-11.269 56.604-3.03 9.299-7.487 17.774-14.794 24.453-5.658 5.171-11.477 5.695-18.161 1.963-4.934-2.755-9.29-6.303-12.731-10.724-4.821-6.195-9.576-12.488-13.776-19.109-11.697-18.435-23.607-36.727-37.105-53.896-7.911-10.064-16.156-19.912-24.871-29.281-5.917-6.361-11.839-12.875-19.066-17.914-6.549-4.567-13.003-9.276-19.654-13.687-7.42-4.919-15.395-8.772-23.839-11.668-12.329-4.227-25.092-4.698-37.933-4.631-19.05.1-37.931 2.396-56.837 4.373-9.948 1.04-19.888 2.192-29.854 3.011-4.91.404-9.88.033-14.811.258-5.312.242-10.616.714-15.914 1.188-7.571.678-15.143 1.371-22.699 2.198-15.114 1.655-30.228 3.322-45.323 5.144-11.567 1.396-22.932 4.262-34.655 4.612-4.162.124-8.308.851-12.458 1.33-2.768.319-5.523.769-8.297 1.021-39.17 3.557-78.05 9.061-116.508 17.369-11.767 2.542-23.595 4.864-34.958 9.009-22.349 8.151-41.78 21.21-60.128 35.991-6.009 4.841-11.806 10.074-17.02 15.752-17.099 18.623-32.522 38.587-46.084 59.94-11.418 17.978-22.669 36.062-33.963 54.119-10.89 17.411-21.697 34.875-32.63 52.258-4.532 7.206-9.715 13.942-15.641 20.075-6.761 6.997-14.439 12.746-23.25 16.938-9.949 4.734-19.741 4.431-29.676-.332-13.117-6.289-21.757-16.701-28.155-29.35-3.411-6.744-5.04-14.069-6.883-21.312-3.505-13.777-6.56-27.646-6.694-41.955-.039-4.174.542-8.354.487-12.526-.125-9.499-.615-18.994-.697-28.492-.303-35.235-1.999-70.454-1.086-105.704.345-13.305.299-26.62.509-39.929.247-15.719.567-31.436.875-47.154.394-20.153.747-40.306 1.232-60.457.323-13.434.773-26.865 1.3-40.292a3873.33 3873.33 0 0 1 2.057-45.969c.609-11.901 1.622-23.784 2.121-35.689.845-20.156 2.165-40.262 5.006-60.246 2.484-17.474 5.717-34.789 11.081-51.644 2.6-8.168 5.805-15.986 12.759-21.593.587-.473 1.049-1.1 1.578-1.648 11.491-11.888 23.466-23.139 38.142-31.183 11.001-6.03 21.493-13.035 33.594-16.858 10.664-3.369 21.352-6.619 32.774-5.041 4.142.572 8.43.709 12.378 1.93 7.01 2.167 13.806 5.021 20.7 7.565 7.486 2.762 15.011 5.422 22.46 8.28 3.06 1.174 6.009 2.668 8.93 4.168 2.475 1.271 4.819 2.796 7.254 4.148 4.539 2.52 9.387 4.592 13.6 7.569 10.923 7.717 22.508 14.228 34.685 19.644 6.116 2.72 12.44 5.406 19.263 5.581 5.935.153 11.956.033 17.82-.804 9.907-1.413 19.715-3.513 29.573-5.272 3.741-.667 7.494-1.319 11.267-1.755 35.698-4.126 71.136-9.564 105.468-20.656 1.444-.467 2.976-.756 4.322-1.421 17.68-8.731 32.889-20.547 44.643-36.492 4.887-6.629 9.352-13.569 14.014-20.364 6.738-9.82 12.704-20.192 20.762-29.067 1.19-1.311 2.35-2.718 3.77-3.739 10.817-7.778 21.642-15.582 33.779-21.23 3.407-1.585 7.121-2.636 10.796-3.494 8.942-2.088 18.033-2.581 27.21-2.198 14.415.601 28.927-.83 43.23 2.253 1.729.373 3.663-.209 5.421-.343.456-3.496-.969-5.063-3.183-6.245-2.235-1.193-4.366-2.581-6.574-3.827-19.509-11.005-40.191-17.425-62.861-15.995-6.083.384-12.142.97-17.875 3.28-13.735 5.534-25.731 13.712-36.036 24.278-8.144 8.35-16.212 16.797-23.908 25.558-9.455 10.763-18.495 21.891-27.699 32.874-6.129 7.313-12.811 14.059-20.266 20.029-7.804 6.25-16.362 11.113-25.96 14.016-6.067 1.834-12.128 3.716-18.272 5.259-18.074 4.538-36.178 8.959-54.29 13.344-12.189 2.951-24.261 6.474-36.814 7.71-2.9.286-5.816.582-8.667 1.159-6.948 1.407-13.938 1.278-20.815.074-12.152-2.128-24.148-5.155-34.962-11.286-10.354-5.87-20.567-12.056-30.418-18.728-8.937-6.053-18.086-11.695-27.413-17.101-13.896-8.054-28.376-14.697-44.02-18.513-10.783-2.631-21.693-4.224-32.746-1.584-6.281 1.5-12.584 2.961-18.766 4.812-10.095 3.022-19.942 6.758-29.233 11.782-3.787 2.048-7.355 4.499-11.047 6.726-13.575 8.189-27.059 16.537-40.777 24.48-9.596 5.556-17.478 12.914-24.74 21.142-6.443 7.301-11.534 15.389-15.352 24.327-6.709 15.707-10.36 32.307-14.278 48.824a395.768 395.768 0 0 0-4.379 20.841c-1.693 9.355-3.393 18.726-4.566 28.155-1.376 11.064-2.278 22.19-3.217 33.303-.692 8.2-1.281 16.416-1.609 24.637-.39 9.748-.125 19.529-.729 29.26-.975 15.709-.768 31.412-.505 47.121.425 25.333 2.26 50.614 2.058 75.988-.18 22.665 1.249 45.34 1.673 68.015.367 19.634.657 39.281.363 58.912-.293 19.509-1.21 39.013-2.119 58.507-1.181 25.339-.747 50.686-.488 76.023.307 30.027 1.242 60.048 1.967 90.07.346 14.343 1.767 28.579 4.669 42.649 2.108 10.22 5.166 20.123 10.3 29.247 1.657 2.944 3.73 5.766 6.094 8.172 7.148 6.166 19.896 9.986 26.357 10.16 8.765.236 22.393-6.504 29.567-11.555 6.11-4.302 12.127-8.766 17.905-13.5 6.093-4.992 11.32-10.838 16.067-17.182 10.254-13.704 21.04-27.013 31.161-40.812 21.526-29.348 42.633-59.003 64.181-88.335 10.149-13.815 19.736-27.979 28.573-42.646 12.643-20.983 26.154-41.375 40.915-60.926 10.445-13.834 22.593-26.069 35.961-37.058 8.685-7.14 18.251-12.882 29.198-15.921 7.207-2.001 14.469-3.807 21.726-5.622 31.018-7.757 62.549-13.018 93.866-19.329 26.762-5.393 53.715-9.068 80.895-11.591 20.941-1.944 41.839-4.662 62.62-7.91 15.765-2.464 31.261-6.596 46.974-9.456 19.321-3.516 38.874-5.671 58.011-10.316 14.388-3.492 28.433-1.684 42.13 3.793 13.49 5.395 25.416 13.283 36.1 22.946 20.411 18.46 40.58 37.188 60.769 55.893 3.434 3.182 6.527 6.744 9.669 10.229 23.851 26.454 43.231 55.985 59.807 87.408 7.874 14.927 13.129 30.764 15.378 47.543.062.462.274.903.425 1.383.547-.048.959.021 1.268-.126 13.798-6.56 27.176-13.568 36.26-26.682 8.368-12.081 15.751-24.609 19.222-39.003 3.935-16.318 5.633-33.008 7.005-49.691 1.179-14.312.146-28.649-1.045-42.936zM476.631 481.836c-.326.719-.846 1.351-1.277 2.023-2.429 3.793-5.392 7.352-7.18 11.426-4.318 9.836-6.442 20.171-6.399 31.044.036 9.258 1.313 18.202 3.581 27.149 3.347 13.201 9.046 25.238 16.799 36.341 9.022 12.92 19.997 23.873 33.558 32.007 19.585 11.746 40.382 17.734 63.38 12.732 12.046-2.62 22.358-8.492 31.111-16.964 10.05-9.727 15.729-21.99 19.198-35.367.445-1.717.742-3.473 1.108-5.211-3.714 2.572-7.215 4.835-8.91 8.985-4.363 10.68-11.012 19.562-20.286 26.664-9.688 7.419-20.535 11.809-32.434 13.269-13.037 1.6-25.745-.44-37.969-5.419-13.547-5.517-25.455-13.412-35.066-24.456-4.695-5.395-9.333-10.988-12.998-17.091-4.426-7.369-7.872-15.289-10.357-23.653-2.95-9.927-4.247-20.003-4.118-30.251.126-10.091 2.543-19.789 6.43-29.101 5.71-13.681 14.65-24.737 27.541-32.139 13.218-7.59 27.415-10.676 42.64-7.492 1.717.359 3.593.829 5.86-.565-1.245-.378-1.925-.721-2.628-.778-6.895-.561-13.812-1.669-20.687-1.459-10.009.306-19.654 2.589-28.635 7.494-9.265 5.061-17.716 10.788-22.262 20.812zm24.003-102.322c9.088 16.268 31.178 18.126 42.431 3.383 7.421-9.724 8.491-17.898 1.549-29.705-2.717-4.622-6.663-8.128-11.284-10.902-6.295-3.779-12.859-4.743-19.814-2.194-9.164 3.359-14.246 10.236-16.334 17.436-1.376 9.091-.011 15.782 3.452 21.982zm-3.704 127.702c-.953.457-1.376.959-1.638 1.535-2.21 4.842-4.381 9.702-6.586 14.547-1.323 2.907-2.486 5.912-4.086 8.659-1.492 2.561-4.262 2.346-5.661-.281-.55-1.033-.731-2.269-1.04-3.423-.654-2.442-1.281-4.89-2.13-8.145-.919 9.613.689 21.463 2.762 29.318 1.044 3.955 2.933 7.309 6.004 11.049.823-3.019 1.397-5.333 2.086-7.612 1.885-6.243 3.637-12.536 5.803-18.682 1.237-3.511 4.116-3.661 6.228-.561 1.121 1.645 1.936 3.494 2.961 5.208 2.058 3.441 3.93 7.043 7.357 9.627 4.582-11.415 2.858-22.669 1.25-34.503l-2.107 2.985c-.615.87-1.158 1.803-1.857 2.599-2.367 2.7-5.37 2.691-7.279-.388-1.129-1.821-1.634-4.127-2.013-6.286-.32-1.828-.058-3.759-.054-5.646zm136.846 41.556c1.096-4.072 1.877-8.255 1.186-13.394-.9 2.037-1.472 3.314-2.031 4.598-2.64 6.067-6.182 11.584-11.254 15.823-6.419 5.365-13.662 8.882-22.237 9.945-11.144 1.381-21.502-.383-31.232-5.791-11.056-6.146-18.941-15.193-24.272-26.663-5.961-12.827-7.716-25.972-3.539-39.601 3.461-11.293 9.468-20.814 20.072-26.832.785-.445 1.526-.967 2.288-1.454-4.558-.408-8.53.741-12.552 2.221-7.55 2.779-14.151 6.841-19.191 13.083-10.652 13.193-14.541 28.254-11.425 44.94 3.792 20.301 14.633 36.068 31.841 47.267 11.146 7.254 23.339 11.438 36.971 10.888 9.74-.393 18.729-3.029 26.602-8.513 9.328-6.498 15.782-15.405 18.773-26.517zm-80.995-45.563c-1.38 7.591-.098 14.995 2.518 21.978 2.87 7.661 7.794 14.07 14.092 19.516 7.64 6.607 16.259 9.931 26.317 9.453 2.243-.107 4.619-.147 6.678-.909 7.507-2.779 13.161-7.845 16.943-14.909 3.995-7.463 4.596-15.219 3.031-23.583-1.976-10.565-6.419-19.681-13.886-27.207-8.61-8.679-18.925-13.791-31.509-12.621-4.929.458-9.469 2.139-13.223 5.773-6.424 6.219-9.6 13.903-10.961 22.509zm-122.187-58.283c4.277-8.682 7.153-17.702 8.085-27.27 1.594-16.353-1.874-31.632-9.698-45.996-6.373-11.698-15.249-20.875-26.452-27.795-9.09-5.615-19.095-8.589-29.705-9.425-11.768-.928-22.976 1.433-33.489 6.861-7.82 4.038-14.334 9.714-19.925 16.613-6.721 8.291-12.535 17.036-14.992 27.579-3.555 15.256-2.817 30.404 2.018 45.206 2.673 8.183 6.697 15.809 11.998 22.575 9.508 12.132 21.423 20.929 36.267 25.417l3.014.761c19.643 4.979 37.579.718 53.698-11.235 8.184-6.067 14.573-13.937 19.181-23.291zm-20.366 50.51c-5.487 3.136-10.781 6.699-16.509 9.308-10.58 4.82-21.836 7.19-33.484 7.556-1.415.044-2.99-.297-4.081 1.408 2.054 1.763 4.401 1.59 6.609 1.665 6.616.227 13.133-.57 19.56-2.16 10.808-2.674 20.953-6.743 29.621-13.952 2.335-1.942 4.508-4.006 5.454-7.338-2.998.339-4.935 2.236-7.17 3.513zM267.102 392.327c2.047-8.422 5.39-16.347 9.264-24.074 1-1.995 1.715-4.133 2.56-6.206l-.882-.54c-2.689.812-3.992 3.24-5.475 5.298-6.804 9.445-10.606 20.223-12.562 31.521-4.996 28.858.879 55.408 18.353 79.063 10.872 14.717 24.889 25.462 42.26 31.605 3.896 1.378 5.828 1.067 6.633-1.056.809-2.134-.566-3.769-4.217-5.13-8.125-3.029-15.727-7.036-22.52-12.454-13.666-10.9-23.638-24.537-29.772-40.905-6.989-18.652-8.359-37.707-3.642-57.122zm36.955-59.68c.688-.169 1.418-.241 2.056-.523 3.702-1.638 7.411-3.266 11.064-5.008 5.714-2.725 11.442-5.404 17.702-6.645 8.924-1.769 17.817-3.951 27.036-2.224 1.325.248 2.541.033 3.096-2.106-1.035-.587-2.112-1.383-3.317-1.846-3.474-1.334-7.114-1.858-10.822-1.627-15.089.941-29.108 5.088-41.491 14.036-2.103 1.52-4.283 2.979-5.722 5.195l.398.748zm131.648 130.417c2.813.225 3.391-1.481 4.204-2.816 7.943-13.036 11.108-27.368 11.203-42.45.14-22.229-5.781-42.735-17.821-61.467-10.73-16.694-24.788-29.607-42.833-38.043-.916-.428-1.884-.747-2.84-1.083-1.405-.493-2.546-.045-3.232 1.216-.728 1.337-.109 2.497.929 3.357.668.554 1.521.894 2.311 1.291 8.851 4.448 17.236 9.532 24.594 16.301 18.408 16.936 29.373 37.808 33.358 62.382 2.823 17.405.611 34.324-5.629 50.754-1.295 3.409-2.718 6.771-4.244 10.558zm490.43-159.567c2.118-.137 3.969-2.453 3.715-4.571-.238-1.989-1.283-3.472-3.108-4.142-2.053-.753-3.88-.045-5.381 1.418 1.071 2.126 2.017 3.945 2.903 5.792.397.828.825 1.571 1.871 1.503zM699.44 346.488c-1.736 9.11-8.731 17.432-19.638 17.91-2.269.1-4.559-.258-6.839-.406-6.881-1.395-12.487-4.547-16.766-10.331-6.629-8.96-7.102-20.944-.714-28.848 6.841-8.466 19.081-10.84 29.317-5.687 10.029 5.049 16.727 16.407 14.64 27.362zm-33.409-10.933 17.413-5.451c-2.07-2.031-2.64-4.774-5.75-3.821l-14.075 4.311 2.412 4.961zm3.935 8.34 17.289-5.569c-.346-2.384-1.139-3.925-3.403-3.26-5.116 1.502-10.168 3.217-15.494 4.925l1.608 3.904zm19.928 1.671-1.211-3.454-17.519 5.483 1.493 4.857c6.149-2.244 11.936-3.891 17.237-6.886zm-182.431 28.726c-3.819-4.914-3.708-10.861-2.827-17.733 1.003-11.033 14.852-17.951 25.346-13.556 10.039 4.204 16.102 11.609 17.026 22.671.544 6.504-3.014 14.448-10.958 17.257-11.454 4.052-21.048 1.061-28.587-8.639zm11.577-23.818 7.324 23.306c4.324-3.047 7.073-6.887 9.197-11.238.637-1.305.24-2.525-.745-3.465-1.916-1.828-3.709-3.897-5.922-5.275-2.904-1.809-6.086-3.31-9.854-3.328zm-87.295 52.73c-.4-4.831-.935-9.86-2.672-14.294-1.418-3.619-2.229-7.272-3.138-10.965-.245-.995-.474-2.006-.85-2.953-1.211-3.053-3.704-4.966-6.739-4.825-4.928.229-9.854 1.082-14.725 1.986-4.845.899-9.622 2.185-14.131 3.232-2.478-2.292-2.866-4.823-3.344-7.359-1.405-7.456-3.452-14.717-6.266-21.766-1.492-3.736-4.111-5.581-7.954-6.279-9.486-1.723-17.882 1.285-25.869 6.023-1.839 1.091-3.535 2.565-4.972 4.16-.862.957-1.353 2.454-1.539 3.773-.192 1.36.059 2.826.34 4.198a2852.023 2852.023 0 0 0 4.903 23.342c.798 3.737 1.663 7.46 2.5 11.196-.779.532-1.265.945-1.817 1.228-7.862 4.036-15.816 7.896-24.4 10.065-3.59.907-5.618 3.051-6.276 6.445-.403 2.077-.624 4.451-.03 6.41 1.931 6.371 4.169 12.653 6.504 18.885 1.196 3.193 3.71 5.103 7.098 5.786 3.262.658 6.322-.118 9.352-1.236 6.582-2.429 13.164-4.855 20.453-7.543 1.671 4.35 3.376 8.479 4.847 12.692 1.815 5.199 3.443 10.466 5.137 15.709 1.906 5.902 6.042 8.753 12.089 8.581 8.722-.247 16.78-1.966 23.138-9.073 2.46-2.75 3.847-5.322 3.709-8.811-.081-2.042-.22-4.124-.694-6.098-1.496-6.236-3.223-12.414-4.73-18.648-.557-2.305-.75-4.701-1.108-7.053 4.575-1.257 8.692-2.152 12.642-3.536 4.328-1.516 8.638-3.217 12.7-5.341 3.049-1.595 6.168-3.989 5.842-7.931zm691.175 257.847.042.204c.027.042.01-.032-.042-.204zM886.619 388.338l8.961-2.436c-1.535-5.476-8.281-14.002-11.797-15.031.595 2.978 1.251 5.836 1.719 8.725.461 2.848-.078 5.859 1.117 8.742zm223.264 199.293c-.198-.412-.732-1.448-1.536-2.986-.01.029-.024.06-.034.088a298.936 298.936 0 0 0 1.659 3.106c-.028-.069-.06-.138-.089-.208z" style="fill:#bf74e7"/></svg>