<svg xmlns="http://www.w3.org/2000/svg" xmlns:xlink="http://www.w3.org/1999/xlink" viewBox="0 0 1200 1200" xml:space="preserve"><path fill="#2E3744" d="M671.992 681.472c-84.266 0-153.211-68.945-153.211-153.211V417.763c0-84.266 68.945-153.211 153.211-153.211 84.266 0 153.211 68.945 153.211 153.211v110.498c-.001 84.266-68.946 153.211-153.211 153.211z"/><path fill="#2E3744" d="M616.133 681.472c-84.266 0-153.211-68.945-153.211-153.211V417.763c0-84.266 68.945-153.211 153.211-153.211 84.266 0 153.211 68.945 153.211 153.211v110.498c0 84.266-68.945 153.211-153.211 153.211z"/><path fill="#6F7170" d="M596.815 1114.92c2.445 10.512 10.969 3.358 20.046 9.108 5.102 3.232 6.969 9.768 5.891 14.657-1.078 4.885-5.485 10.235-11.465 11.047-5.388.731-10.448-.495-17.459-1.249-4.574-.492-9.99-1.788-17.119-2.707-4.882-.629-10.634-.528-17.295-1.294-5.114-.588-10.555-1.72-16.963-2.361-3.657-9.072-.547-9.703-1.4-19.447-.854-9.748-2.218-9.628-3.072-19.376-.854-9.745-.551-9.771-1.404-19.516-.854-9.751.84-9.9-.014-19.651s-10.702-13.418-3.689-20.247c6.911-6.729 10.338 2.476 19.9 3.748 9.559 1.272 9.667.46 19.225 1.732 9.565 1.273 9.449 2.149 19.014 3.422 9.565 1.273 14.211-6.151 19.518 1.908 5.615 8.526-3.073 10.071-5.228 20.05-2.157 9.986.602 10.813-3.013 20.369-3.749 9.908-7.787 9.857-5.473 19.807zm162.683-.071c2.445 10.512 10.712 3.35 19.789 9.099 5.102 3.232 5.788 9.599 4.709 14.488-1.078 4.885-4.353 10.5-10.332 11.311-5.388.731-10.475-.279-17.485-1.032-4.574-.492-10.044-1.408-17.172-2.327-4.882-.629-10.444-2.109-17.105-2.875-5.114-.588-10.862-.671-17.27-1.312-3.657-9.072-1.898-9.646-2.752-19.39-.854-9.748.733-9.887-.12-19.634-.854-9.744-2.118-9.634-2.972-19.378-.854-9.751-.964-9.741-1.819-19.493s-7.732-12.56-.719-19.389c6.911-6.729 9.301 1.694 18.863 2.966 9.559 1.272 9.568 1.2 19.127 2.473 9.565 1.273 9.654.605 19.219 1.879 9.565 1.273 13.883-5.429 19.19 2.63 5.615 8.526-2.172 10.043-4.327 20.022-2.157 9.986-.149 10.628-3.685 20.213-3.638 9.857-7.453 9.798-5.139 19.749z" style="fill:gray"/><path fill="#062148" d="M725.95 93.751v.186c-4.462 0-8.297-4.482-8.297-8.944h1.034c0-4.462 2.801-8.264 7.263-8.264v-.377c4.462 0 7.571 4.179 7.571 8.641h.052c0 4.462-3.162 8.758-7.623 8.758z"/><path fill="#6F7170" d="M482.85 762.706c-6.009 3.703-12.023 7.405-17.984 11.18-5.963 3.776-12.142 7.257-17.965 11.241-5.819 3.981-11.176 8.651-16.764 12.976-4.922 3.81-10.048 7.387-14.71 11.47-4.678 4.097-9.005 8.602-13.42 12.956-4.425 4.363-9.234 8.405-13.394 13.009-4.164 4.608-7.127 10.262-11.025 15.094-3.898 4.832-7.314 9.991-10.946 15.029-3.629 5.035-7.63 9.788-10.993 15.011-3.359 5.218-7.911 9.749-11.004 15.137-3.089 5.382-4.751 11.575-7.574 17.11-2.82 5.528-4.718 11.473-7.271 17.136-2.551 5.658-5.991 10.922-8.275 16.698-2.283 5.773-4.066 11.729-6.082 17.602-2.017 5.874-4.736 11.531-6.485 17.487-1.75 5.961-3.954 11.839-5.435 17.864-1.484 6.035-1.091 12.497-2.305 18.581-1.216 6.097-2.447 12.162-3.391 18.29-.947 6.147-1.473 12.315-2.146 18.476-.638 5.836-1.272 11.597-1.502 17.436-.229 5.824-1.439 11.662-1.225 17.544.21 5.782 1.001 11.612 1.673 17.503.651 5.711.608 11.663 1.726 17.524-.185-.555-5.153-4.838-14.399-12.32-4.386-3.549-8.977-8.42-14.512-13.421-4.525-4.09-10.547-7.41-15.492-12.43a318.783 318.783 0 0 1-13.484-14.564c-4.189-4.821-7.859-10.424-11.947-15.837-3.886-5.146-6.338-11.455-9.975-17.117-3.505-5.457-7.084-10.914-10.219-16.834-3.044-5.75-6.816-11.234-9.382-17.406-2.404-5.781-4.395-11.658-6.521-17.415-2.168-5.872-3.131-12.062-5-17.908-1.905-5.96-4.015-11.746-5.599-17.68-1.612-6.041-2.637-12.109-3.906-18.122-1.29-6.111-3.945-11.899-4.868-17.982-.936-6.167-1.001-12.397-1.549-18.534-.554-6.202-2.156-12.333-2.302-18.504-.147-6.211-.161-12.469.118-18.65.279-6.191 2.765-12.201 3.483-18.362.716-6.14-.293-12.556.872-18.665 1.154-6.055 2.673-12.125 4.28-18.15 1.584-5.94 3.558-11.864 5.595-17.775 1.998-5.799 5.046-11.277 7.49-17.047 2.387-5.636 4.489-11.49 7.312-17.098 2.747-5.459 5.76-10.891 8.93-16.323 3.076-5.272 6.931-10.163 10.413-15.411 3.381-5.095 6.982-9.998 10.719-14.839 3.737-4.841 8.105-9.085 12.184-13.641 4.08-4.556 6.872-10.346 11.279-14.586 4.406-4.239 8.948-8.441 13.667-12.333 4.754-3.921 10.76-6.278 15.868-9.848 5.054-3.532 9.631-7.848 14.99-11.021 5.311-3.144 11.143-5.393 16.712-8.169 5.529-2.756 10.783-6.187 16.527-8.564 5.714-2.365 12.036-3.114 17.924-5.089a269.37 269.37 0 0 1 17.754-5.264c5.996-1.564 11.904-3.294 17.995-4.442 6.095-1.149 12.007-3.568 18.158-4.285 6.165-.718 12.421-.935 18.603-1.203 6.205-.27 12.425.405 18.608.603 6.209.199 12.501-.428 18.647.258 6.173.689 12.049 3.304 18.118 4.5 6.09 1.2 12.114 2.42 18.059 4.147 5.954 1.729 11.936 3.299 17.703 5.573 5.758 2.27 10.962 5.667 16.493 8.494 5.497 2.811 11.297 5.04 16.529 8.417 5.502 3.552 13.785 6.351 20.462 11.098 6.736 4.788 10.952 11.742 13.212 18.584 2.11 6.389 2.6 12.816-.359 19.247-2.547 5.537-6.233 11.538-11.075 16.768-4.38 4.731-10.39 8.328-15.594 12.564-5.33 4.338-10.646 8.587-15.778 12.16-6.443 4.486-11.689 9.19-15.909 12.029-5.491 3.693-11.227 7.068-16.828 10.595-5.601 3.525-11.875 5.975-17.509 9.448z" style="fill:gray"/><path fill="#62ADAF" d="M522.661 748.632c3.228-8.582 7.453.639 18.892 2.735 5.101.935 11.102 2.351 17.988 3.53 5.53.947 11.304 3.676 17.809 4.719 5.711.915 11.984.486 18.333 1.435 5.817.87 11.914 1.477 18.182 2.345 5.89.815 11.99 1.346 18.207 2.136 5.941.754 11.867 2.706 18.048 3.415 5.987.687 12.183.307 18.34.932 6.026.612 11.999 2.477 18.138 3.012 6.061.529 12.135 1.571 18.257 2.008 6.093.434 12.223.873 18.327 1.199 6.125.327 12.339-1.525 18.427-1.323 6.153.203 12.252.533 18.318.59 6.185.058 12.296.276 18.338.164 6.21-.115 12.403 1.353 18.406 1.039 6.237-.327 12.165-3.242 18.115-3.807 6.256-.594 12.443-.16 18.309-1.042 6.269-.943 12.501-1.118 18.237-2.422 6.243-1.419 10.88-3.897 16.378-5.783.191 9.553-1.334 9.229-3.918 18.428-2.583 9.197-3.594 8.913-6.177 18.11-2.584 9.199-2.614 9.191-5.197 18.39-2.584 9.201-2.886 9.116-5.47 18.317-2.584 9.199-1.286 9.564-3.87 18.763-2.584 9.2-3.943 8.818-6.527 18.017-2.584 9.201-.843 9.69-3.427 18.89-2.584 9.202-2.556 9.21-5.14 18.412-2.584 9.201-3.586 8.919-6.17 18.12-2.584 9.199-1.535 9.494-4.119 18.693-2.584 9.199-4.093 8.776-6.676 17.975-2.584 9.2-.899 9.673-3.483 18.872-2.584 9.202-2.347 9.269-4.931 18.47-2.585 9.205-3.143 9.048-5.728 18.254-2.584 9.202-3.085 9.062-5.669 18.264-2.586 9.208-3.065 9.074-5.651 18.283s1.067 10.886-4.384 18.745c-5.623 8.106-8.175 1.371-20 1.175-5.784-.096-12.558-.494-19.756-1.011-6.28-.451-12.999-1.036-19.693-1.982-6.505-.92-13.116-2.319-19.438-3.859-6.614-1.611-13.26-4.281-19.039-6.738-2.823-8.846-.784-9.39-1.245-18.664-.461-9.272.838-9.337.376-18.609-.461-9.271-2.027-9.193-2.488-18.464-.461-9.271-.627-9.263-1.089-18.534-.461-9.271.289-9.309-.173-18.58-.461-9.274.562-9.325.101-18.598-.462-9.277-.246-9.288-.707-18.565-.462-9.274-.143-9.29-.605-18.564-.462-9.28-1.571-9.225-2.033-18.505s8.327-17.145-.932-17.928c-9.357-.792-3.761 8.037-6.369 17.058-2.608 9.019-2.449 9.065-5.057 18.084-2.608 9.018-2.243 9.123-4.851 18.141s-1.362 9.378-3.969 18.396c-2.608 9.018-3.706 8.7-6.313 17.718-2.608 9.02-2.013 9.192-4.621 18.213-2.609 9.023-2.729 8.989-5.339 18.012-2.608 9.02-2.746 8.981-5.355 18.001-2.61 9.027-3.036 8.903-5.647 17.93-2.61 9.027 1.189 10.794-3.994 18.632-5.512 8.336-7.98.188-20.544.312-5.667.056-12.338-.425-19.916-.894-6.108-.379-12.842-.038-19.957-.959-6.246-.809-12.667-2.796-19.538-4.152-6.276-1.239-13.778-1.701-20.462-3.495-2.902-8.94.492-9.673.492-19.072 0-9.401 1.235-9.401 1.235-18.803 0-9.403-.611-9.403-.611-18.806 0-9.401-.612-9.401-.612-18.803 0-9.402-.085-9.402-.085-18.803 0-9.403.636-9.403.636-18.805 0-9.404-1.322-9.404-1.322-18.808 0-9.403.151-9.403.151-18.805 0-9.401.12-9.401.12-18.803 0-9.401-.206-9.401-.206-18.803 0-9.402.598-9.402.598-18.803 0-9.404.282-9.404.282-18.808 0-9.407-.32-9.407-.32-18.815 0-9.404 1.234-9.404 1.234-18.809 0-9.411 1.237-9.595-.049-18.918-1.334-9.651-4.715-10.184-1.402-18.992z"/><path fill="#8D2C2C" d="M477.39 285.11c3.149-10.362 12.168-7.992 15.055 1.066.321 1.006 1.359 7.738 1.43 17.59.037 5.081-2.371 11.025-2.406 17.504-.03 5.51.164 11.402.08 17.488-.079 5.722-.449 11.597-.578 17.486-.129 5.889 1.477 11.822 1.296 17.546-.192 6.085.31 12.025.057 17.537-.297 6.46-1.755 12.344-2.139 17.422-.512 6.771-1.691 13.509-2.424 20.296-.732 6.774-2.473 13.368-3.596 20.082-1.126 6.727-1.268 13.605-2.958 20.198-1.425 5.555-3.06 12.634-5.903 18.984-2.863 6.395-7.268 11.313-13.009 14.148-1.111.549-9.23 4.248-9.996 2.452-.006-.014.371-5.272-.89-14.632-.53-3.935-1.145-8.603-1.231-14.235-.477-9.685-1.085-6.822-.986-19.331.043-5.433-1.217-11.983-.842-19.441.295-5.868 2.215-12.24 2.821-19.25.521-6.037 1.612-12.411 2.428-19.226.731-6.115.225-12.709 1.238-19.402.93-6.147 3.287-12.307 4.49-18.905 1.123-6.16.504-12.882 1.892-19.406 1.309-6.154 4.697-12.019 6.265-18.472 1.492-6.14 1.942-12.699 3.689-19.088 1.669-6.113 4.296-12.089 6.217-18.411z" style="fill:#8d2c2c"/><path fill="#6F7170" d="M504.034 308.5c-.004-.005-4.758-4.795-12.669-13.184-3.665-3.887-7.12-9.251-11.764-14.477-3.839-4.32-9.048-8.087-13.272-13.141-3.829-4.582-7.973-9.298-11.918-14.355-3.743-4.799-7.169-10.063-10.848-15.182-3.604-5.015-7.207-10.141-10.594-15.363-3.402-5.245-6.79-10.533-9.817-15.888-3.113-5.507-4.741-11.682-7.29-17.198-2.688-5.816-5.114-11.488-6.983-17.19-2.02-6.164-4.838-11.934-5.658-17.81-.645-4.623 7.038-14.757 8.546-19.542 1.476-4.683 1.251-9.759 2.159-14.567.909-4.814 3.703-9.416 4.003-14.313.146-2.383-4.224-4.323-6.034-2.766-2.797 2.408-10.881 16.117-13.516 20.654-.012-.05-3.132-9.47-5.24-21.173-1.161-6.446-2.779-13.694-3.561-20.822-.836-7.618-1.16-15.144-.712-21.147.284-3.807-6.456 2.604-6.588 2.762-4.214 5.06-6.271 12.708-7.148 20.75-.867 7.949-.336 17.058-1.369 23.076-2.585-4.465-5.296-10.293-6.56-15.509-1.263-5.211-1.975-10.64-2.611-15.672-.514-4.062 1.856-16.449-4.687-12.74-3.536 2.004-1.62 11.118-1.889 14.343-.468 5.592-.909 11.128-.981 16.739-.071 5.611-1.058 10.482-.729 16.084-2.284-4.829-3.132-9.059-4.224-14.041-1.095-4.994-1.249-10.197-2.327-15.348-.34-1.627-2.104-2.66-3.379-3.725-4.207-3.514-5.158 4.49-5.86 6.843-.555 8.936-.826 8.906-.826 17.859 0 8.952.935 17.896.935 17.898-.05-5.862-8.191-22.219-11.188-25.604-2.542 2.558-3.145 5.705-2.975 9.41.3 6.53 2.489 12.783 4.257 19.077 1.728 6.149 3.805 12.215 5.416 18.387 1.613 6.178.937 12.934 2.47 19.126 1.535 6.196 4.444 12.052 5.935 18.256 1.493 6.207 2.058 12.635 3.545 18.841 1.487 6.206 4.295 12.093 5.813 18.291 1.518 6.198 2.86 12.434 4.446 18.617 1.585 6.179 3.63 12.226 5.321 18.383 1.689 6.149 3.736 12.176 5.566 18.295 1.826 6.106 2.415 12.594 4.419 18.664 2.02 6.118 4.01 12.255 6.153 18.339 2.141 6.078 5.278 11.792 7.545 17.829 2.266 6.033 4.055 12.245 6.45 18.231a873.833 873.833 0 0 0 7.396 17.865c2.526 5.931 4.004 12.335 6.664 18.207 2.661 5.872 6.701 11.109 9.499 16.916 2.799 5.808 6.371 11.211 9.311 16.946 2.941 5.737 5.86 11.454 8.946 17.113 3.087 5.66 4.506 12.257 7.74 17.832 3.235 5.577 6.978 10.871 10.363 16.357 3.386 5.486 6.73 11.015 10.27 16.404 3.539 5.387 8.567 9.751 12.262 15.035.013-.029 2.313-5.45 7.352-16.893 2.194-4.984 4.983-10.848 7.403-17.959 1.894-5.566 4.881-11.475 6.673-18.332 1.531-5.86 3.314-12.184 4.627-18.98 1.166-6.037 1.058-12.667 1.953-19.438.814-6.153 1.95-12.574 2.467-19.329.476-6.225 1.234-12.718 1.402-19.452.156-6.271-1.604-12.763-1.762-19.472-.148-6.293 1.495-12.871 1.034-19.547-.43-6.301-2.617-12.633-3.362-19.27zm159.958-2.812c-9.065 2.688.749 6.837-5.721 18.116-2.526 4.404-6.863 9.134-11.747 14.967-1.444 9.173 2.639 7.209 8.326 16.673 2.811 4.677 6.571 9.816 10.755 15.155 3.643 4.649 7.599 9.581 12.276 13.958 4.436 4.151 9.752 7.493 15.112 10.768 5.197 3.175 10.951 5.131 17.012 6.913 5.723 1.683 11.572 4.217 18.06 4.173 5.8-.04 12.216-.435 18.624-2.212 5.518-1.531 11.258-4.294 17.225-7.346a127.866 127.866 0 0 0 15.929-9.703c4.707-3.354 8.987-7.944 13.939-12.338 4.357-3.867 8.568-8.364 13.114-13.1 4.065-4.235 7.731-8.46 11.947-13.435-.229-9.122-1.729-8.78-4.12-17.586s3.005-12.566-4.108-18.283c-7.123-5.725-9.62.01-18.747-.443s-9.149-.009-18.276-.461-9.177.543-18.304.091c-9.13-.453-9.059-1.882-18.189-2.334-9.133-.453-9.105-1.012-18.238-1.465-9.13-.453-9.156.067-18.286-.386-9.136-.453-9.305 1.07-18.334-.395-9.186-1.492-9.479-3.928-18.249-1.327z" style="fill:gray"/><path fill="#2E3744" d="M883.263 125.476c.307 4.254 1.231 11.577.086 19.792-.846 6.074-4.071 12.132-6.887 18.447-2.591 5.809-4.703 12.364-9.773 17.048-4.455 4.117-10.733 6.35-17.668 8.674-5.554 1.862-11.596 3.471-19.046 3.684-8.591-6.742-6.757-8.505-13.669-16.959s-10.218-6.435-14.739-16.375c-3.762-8.271 3.813-6.905 11.334-14.795 3.602-3.778 8.139-7.833 13.956-11.477 4.675-2.928 10.425-4.559 16.716-6.667 5.289-1.772 10.895-3.321 17.433-4.088 5.57-.653 11.554-3.076 18.096-2.739 2.312.12 3.995 3.147 4.161 5.455z"/><path fill="#707070" d="M858.855 144.383c.296 4.104 1.202 12.563-1.505 20.935-2.035 6.295-5.216 13.453-11.615 17.8-4.901 3.329-12.442 5.028-21.089 5.274-10.884-8.852-10.562-9.897-16.682-22.521-4.242-8.751 2.979-7.125 12.106-13.95 4.417-3.303 10.136-5.906 17.456-7.779 5.51-1.41 11.742-3.464 19.144-3.083 1.486.075 2.078 1.841 2.185 3.324z"/><path fill="#2E3744" d="M573.823 134.195c.615 4.221.92 11.566 3.804 19.343 2.133 5.75 4.655 12.302 8.764 17.864 3.779 5.116 8.671 10.259 14.629 13.744 5.236 3.062 12.085 3.593 19.357 4.371 5.825.624 12.189.851 19.511-.544 6.94-8.432 5.667-9.338 10.598-19.081 4.932-9.743 7.195-9.074 9.472-19.754 1.895-8.886-4.631-6.104-13.673-12.192-4.33-2.915-9.748-5.815-16.212-8.122-5.193-1.853-11.096-3.216-17.691-3.921-5.547-.593-11.633-1.208-18.185-.551-5.581.56-11.672 1.432-17.99 3.168-2.23.614-2.718 3.385-2.384 5.675z"/><path fill="#707070" d="M600.864 147.535c.594 4.072 2.83 11.869 7.273 19.462 3.341 5.71 7.63 10.862 14.813 13.731 5.502 2.197 11.687 3.35 20.184 1.731 8.726-10.986 9.539-11.15 12.8-24.795 2.261-9.458-5.041-6.261-15.423-10.963-5.024-2.276-11.041-5.146-18.592-5.401-5.684-.192-12.241.585-19.388 2.549-1.432.394-1.881 2.215-1.667 3.686z"/><path fill="#B6B6B6" d="M694.867 105.365c5.393-2.098 10.597-4.925 16.391-5.967 5.698-1.024 11.576-1.76 17.451-1.814 5.814-.054 11.75.243 17.535 1.087 5.789.845 11.332 3.011 16.888 4.705 5.633 1.718 11.107 3.708 16.291 6.246 5.318 2.604 10.355 5.555 14.975 8.967 4.585 3.386 8.94 7.086 12.796 11.287 3.913 4.262 6.3 9.531 9.201 14.518 2.893 4.973 5.919 9.796 7.871 15.24 1.947 5.432 4.591 10.752 5.663 16.406.991 5.228.385 10.799 1.34 16.075.956 5.279 2.921 10.347 4.429 15.46 1.507 5.11 3.053 10.245 5.699 14.975 4.597 8.216 10.982 15.198 16.828 22.497 3.057 3.817 5.829 7.718 8.302 11.89 2.472 4.17 4.439 8.573 6.55 12.972 2.543 5.298 5.274 10.491 7.145 16.063 1.872 5.573 3.101 11.304 4.248 17.068 1.146 5.763 3.217 11.462 3.585 17.333-.08-1.269-10.384-3.313-11.389-3.739-7.944-3.362-15.702-7.985-24.251-9.225-4.745-.688-9.922-.784-14.808-.445-4.93.342-9.684 2.136-14.041 4.351a266.628 266.628 0 0 0-15.885 8.756c-5.185 3.097-10.115 6.662-15.464 9.47-5.953 3.125-11.994 6.373-18.323 8.662-6.336 2.291-13.331 2.293-19.924 3.608-6.6 1.317-13.117 2.458-19.853 2.658-6.718.199-13.549 1.077-20.199.047-6.66-1.031-13.308-2.793-19.623-5.087-6.325-2.298-11.559-6.805-17.26-10.401-4.266-2.691-8.246-5.602-12.251-8.673-3.995-3.064-7.959-6.287-12.115-9.124-5.533-3.777-12.327-5.674-18.708-7.535-6.413-1.87-13.126-2.494-19.779-2.338-6.665.156-13.664.19-19.948 2.471-6.182 2.244-11.798 6.385-17.014 10.774.818-.688 1.794-6.959 1.957-8.112 1.029-7.294.764-14.928 2.898-21.977 2.061-6.808 4.777-13.564 7.893-19.954 3.117-6.39 6.775-12.694 10.932-18.472 3.792-5.273 9.394-8.937 13.866-13.481 4.507-4.58 8.196-9.876 12.358-14.748 4.089-4.786 7.374-9.954 10.137-16.012 2.969-6.509 4.661-13.228 6.12-20.255a3652.636 3652.636 0 0 1 4.431-20.959c1.501-7.02 4.045-13.744 7.141-20.205 2.742-5.723 5.03-11.691 8.853-16.19 4.016-4.727 10.143-7.109 15.105-10.547 5.005-3.467 10.247-6.105 15.956-8.326z"/><path fill="#6F7170" d="M858.202 245.066c-5.846-7.299-10.979-14.986-15.576-23.202-2.617-4.678-4.591-9.596-6.091-14.647-5.138-6.083-12.309-10.307-19.169-14.371-5.587-3.31-11.074-6.986-17.324-8.62-6.286-1.643-12.843-.976-19.309-.709-6.431.266-13.266-.512-19.39 1.857-4.842 1.873-9.253 5.032-14.139 6.812-4.931 1.797-9.921 3.543-15.145 3.941-5.702.434-10.92-.537-15.619-2.4-4.856-1.925-9.202-5.096-13.924-7.441-4.632-2.3-9.305-5.196-14.717-5.932-7.792-1.06-15.484 1.456-22.878 3.871-7.377 2.409-14.972 4.995-21.329 9.213-1.226.813-1.466 2.65-2.662 3.508-.679 1.915-1.897 3.467-2.744 5.324-2.764 6.061-6.313 11.375-10.405 16.162-4.163 4.871-8.852 9.27-13.359 13.85-4.469 4.542-8.402 9.492-12.193 14.762-4.156 5.779-9.322 11.04-12.439 17.43-3.117 6.39-5.51 13.277-7.571 20.085-2.134 7.049-1.926 14.652-2.955 21.946-.163 1.153-.598 8.155-1.415 8.843 5.197-4.372 10.381-8.651 16.537-10.893 6.259-2.28 13.032-2.242 19.672-2.411 6.628-.169 13.183-1.047 19.579.795 5.796-3.02 12.071-3.807 17.749-6.262 5.998-2.593 11.281-6.497 17.136-8.503 6.177-2.117 12.335-3.874 18.338-5.388 6.327-1.596 12.544-3.233 18.661-4.219 6.436-1.038 12.846-1.582 19.031-2.015 6.501-.454 12.89 1.004 19.092 1.137 6.517.14 12.945-.859 19.105-.164 6.486.732 12.606 2.787 18.667 4.025 6.416 1.31 12.464 3.134 18.368 4.881 6.324 1.871 12.106 4.391 17.799 6.605 6.223 2.42 12.239 4.387 17.653 7.013 6.154 2.984 12.201 4.948 17.231 7.903 8.54 1.242 17.115 3.419 25.051 6.777 1.005.425 10.417 4.476 10.497 5.746-.368-5.871-2.13-11.626-3.276-17.389-1.147-5.764-3.575-11.128-5.447-16.701-1.871-5.572-3.22-11.293-5.763-16.592-2.111-4.399-3.627-9.12-6.1-13.289-2.477-4.171-6.17-7.521-9.227-11.338z" style="fill:gray"/><path fill="#062148" d="M789.227 228.582c.115 4.988-.33 9.602-2.599 9.654s-3.867-4.514-3.982-9.503c-.115-4.988 1.26-10.095 3.53-10.147s2.936 5.008 3.051 9.996zm-104.153 7.283c.115 4.988-.603 8.754-2.872 8.807-2.269.052-4.866-3.638-4.98-8.626s2.286-9.796 4.555-9.848 3.182 4.679 3.297 9.667z"/><path fill="#5B70A4" d="M796.886 150.592c-5.038 3.403-10.008 7.072-15.329 10.361-5.2 3.213-11.01 5.469-16.443 8.512-5.355 3-10.079 7.241-15.624 10.018-5.508 2.759-11.515 4.484-17.175 6.967-5.659 2.483-11.444 4.538-17.219 6.689-5.806 2.163-11.014 6.072-16.901 7.843-5.945 1.788-12.066 3.065-18.057 4.395-6.068 1.348-12.335 1.516-18.411 2.333-6.161.829-12.264 2.137-18.393 2.359-5.494.199-11.109-1.631-16.768-2.105-5.662-.474-11.513.354-16.84-1.096-4.225-1.15-8.762-4.713-9.001-9.086-.423-7.772 9.733-15.926 15.292-19.962 3.71-2.693 9.924-6.13 15.714-9.907 5.944-3.877 12.036-7.97 16.703-8.261.005 0 7.369 1.125 18.686.419 5.393-.336 11.633-1.896 18.518-2.325 5.854-.365 12.068-1.627 18.537-2.03 6.081-.379 12.413.399 18.672.009 6.26-.391 12.477-1.471 18.559-1.85 6.471-.404 12.719-1.174 18.575-1.539 6.889-.43 13.209-.759 18.605-1.096 11.32-.708 18.3-.648 18.3-.648z" style="fill:#8ea0cc"/><path fill="#5B70A4" d="M644.16 161.46c-8.587-2.608-2.028-7.88.797-18.209 1.357-4.962 5.252-9.956 8.847-15.759 2.844-4.59 5.508-10.162 10.33-14.717 3.966-3.746 8.654-7.759 14.272-11.176 4.698-2.857 10.363-5.173 16.399-7.623 5.145-2.088 10.798-4.295 17.026-5.979 5.412-1.463 11.46-2.341 17.763-3.428 10.15-.43 8.586-.023 20.275 2.568 5.866 1.3 12.419 3.908 19.322 6.488 6.096 2.279 12.694 4.615 18.662 8.2 5.721 3.437 11.505 7.494 16.32 12.391 4.633 4.713 8.42 10.637 11.511 16.934 2.812 5.728 4.441 12.547 5.432 19.764-8.974 4.037-9.909.164-19.731.751-9.821.587-9.87-.231-19.691.356s-9.686 2.838-19.507 3.424c-9.821.587-9.82.603-19.641 1.189-9.824.587-9.955-1.608-19.778-1.021-9.827.587-9.838.408-19.665.995-9.824.587-9.683 2.949-19.507 3.536-9.831.587-10.104-2.108-19.799-.375-9.887 1.767-10.214 4.553-19.637 1.691z" style="fill:#8ea0cc"/><path fill="#062148" d="M645.028 161.266c4.893-.589 8.918-1.531 13.818-2.008 4.903-.477 9.795-1.131 14.701-1.556 4.905-.428 9.914.462 14.824.106 4.909-.356 9.836-.389 14.745-.764 4.915-.27 9.726-2.228 14.64-2.512 4.914-.284 9.919 1.322 14.838 1.106 7.379-.306 7.3-2.358 14.68-2.621 4.926-.104 11.135.552 16.066.527-4.893.616-11.125.38-16.023.916-7.352.698-7.312 1.105-14.668 1.761-4.905.424-9.841.332-14.751.689-4.909.357-9.831.427-14.74.799-4.916.266-9.818.62-14.733.905-4.914.285-9.777 1.397-14.696 1.611-4.92.216-9.841.36-14.764.524-4.92.164-9.009.465-13.937.517z"/><defs><path id="a" d="M644.564 160.127c-8.587-2.608-1.129-6.191 1.696-16.519 1.357-4.962 3.555-10.556 7.15-16.359 2.844-4.59 7.284-8.455 12.106-13.01 3.966-3.746 8.024-7.985 13.642-11.402 4.698-2.857 10.222-4.904 16.258-7.354 5.145-2.088 10.305-5.364 16.533-7.048 5.412-1.463 11.349-2.608 17.652-3.695 10.15-.43 8.441.424 20.131 3.014 5.866 1.3 12.619 3.12 19.522 5.7 6.096 2.279 11.662 6.397 17.63 9.982 5.721 3.437 11.035 7.296 15.849 12.193 4.633 4.713 9.352 9.472 12.443 15.768 2.812 5.728 5.291 13.062 6.282 20.279-8.974 4.037-10.254-.626-20.076-.04-9.821.587-9.854.025-19.675.611-9.821.587-9.788 1.139-19.609 1.726-9.821.587-9.797.995-19.618 1.582-9.824.587-9.846.211-19.67.797-9.827.587-9.781 1.357-19.608 1.944-9.824.587-9.926-1.119-19.75-.532-9.831.587-9.971.021-19.729 1.349-9.677 1.319-9.736 3.876-19.159 1.014z"/></defs><clipPath id="b"><use xlink:href="#a" overflow="visible"/></clipPath><g clip-path="url(#b)" fill="#062148"><path d="M737.163 187.118c-1.169.58-1.625-.763-1.268-2.018 3.75-4.474 4.636-10.845 5.648-17.704.864-5.857.807-12.257.312-18.839-.471-6.269-1.621-12.58-2.804-18.678-1.292-6.658-1.296-13.364-2.802-18.81-2.915-10.54-7.23-17.324-7.313-17.544-.398-1.061-1.057-1.534-.335-2.408.721-.874 1.173.499 2.291.687.219.037 7.894.089 17.992 3.766 5.04 1.836 10.886 4.397 16.812 7.56 5.104 2.724 10.367 6.233 15.403 10.134 4.679 3.625 7.936 9.073 11.998 13.863 3.824 4.51 8.455 8.709 11.27 14.375 2.592 5.216 3.299 11.011 4.67 17.305-.221 1.286-1.913 2.513-2.669 1.449-1.301-5.976-1.526-12.508-3.974-17.482-2.655-5.393-6.606-9.863-10.216-14.182-3.826-4.578-8.723-7.751-13.147-11.248-4.738-3.745-8.563-8.569-13.409-11.227-5.548-3.043-11.399-4.657-16.246-6.496-7.436-2.821-13.355-4.185-16.463-4.879 1.162 3.289 3.861 9.554 6.103 17.851 1.504 5.566 2.55 12.049 3.766 18.685 1.129 6.16 1.569 12.624 1.933 18.916.383 6.608 1.241 13.203.218 19.095-1.172 6.756-3.937 13.256-7.77 17.829z"/><path d="M774.594 177.702c-.546 1.184.129 1.246-.257.001.47-6.696-1.581-12.701-2.702-18.837-1.195-6.542-3.716-12.392-6.145-18.16-2.614-6.207-3.893-12.914-7.223-18.053-3.859-5.957-9.27-10.181-13.019-14.448-7.495-8.529-13.816-14.216-13.981-14.345.719-1.088 1.167-.853 2.052-1.81.169.132 5.792 6.071 13.483 14.835 3.844 4.38 8.007 9.517 11.96 15.635 3.408 5.275 6.984 10.797 9.656 17.171 2.481 5.919 3.825 12.264 5.043 18.983 1.142 6.296 1.616 12.151 1.133 19.028z"/></g><g clip-path="url(#b)" fill="#062148"><path d="M720.438 187.629c-3.869-4.546-5.914-10.584-7.137-17.335-1.066-5.884-.339-12.237-.006-18.846.317-6.296 1.166-12.561 2.249-18.73 1.168-6.651.312-13.507 1.775-19.087 2.177-8.303 4.81-14.158 5.946-17.454-3.102.718-8.331 2.483-15.746 5.361a124.688 124.688 0 0 0-15.662 7.349c-4.826 2.694-10.799 4.396-15.51 8.176-4.398 3.53-7.739 8.592-11.531 13.198-3.578 4.347-7.685 8.709-10.3 14.123-2.413 4.995-4.568 10.137-5.825 16.126-.747 1.069-.932 1.366-1.163.083 1.323-6.303 2.365-12.261 4.917-17.496 2.772-5.688 7.572-9.799 11.362-14.338 4.027-4.823 7.661-9.738 12.314-13.399 5.008-3.94 10.214-7.271 15.298-10.034 5.904-3.208 11.405-6.315 16.433-8.188 10.064-3.75 17.377-5.509 17.596-5.548 1.116-.197 1.415.061 2.142.929.727.869-.467.696-.857 1.76-.081.221-1.28 7.952-4.117 18.515-1.466 5.458-5.005 11.32-6.246 17.988-1.137 6.105-.21 12.73-.634 19.001-.445 6.588-.795 12.91.114 18.763 1.064 6.849 2.501 13.072 6.284 17.517.593 1.338-.524 2.138-1.696 1.566z"/><path d="M681.119 179.842c-.534-6.872-.296-13.73.797-20.033 1.168-6.729 3.302-13.143 5.739-19.081 2.625-6.397 6.414-11.981 9.783-17.283 3.908-6.149 8.563-11.002 12.374-15.411 7.622-8.817 13.345-14.794 13.513-14.928.892.952-.058 1.67.669 2.753-.164.13-5.028 5.057-12.462 13.647-3.716 4.294-7.38 9.629-11.192 15.613-3.29 5.163-8.161 9.968-10.728 16.192-2.385 5.785-3.963 12.247-5.109 18.797-1.075 6.146-.591 12.77-.071 19.465-.358 1.596-2.758 1.45-3.313.269z"/></g><path fill="#F8BF66" d="M647.575 337.961c6.115 6.991 4.146 5.822 13.535 12.33 4.364 3.025 9.473 6.595 15.815 9.632 5.131 2.457 10.927 4.617 17.335 6.559 5.566 1.687 11.495 3.551 18.012 4.519 5.8.862 12.011.03 18.557.092 5.886.056 12.17 1.878 18.653 1.122 5.858-.683 11.589-3.795 17.93-5.263 5.762-1.335 11.778-2.503 17.935-4.577 5.618-1.893 11.607-3.503 17.552-6.081 5.458-2.367 11.049-3.75 16.78-6.747 9.861.014 5.846 2.64 16.191 9.845 4.54 3.162 11.085 5.474 16.891 10.349 4.572 3.839 8.481 9.354 13.594 14.366 4.39 4.304 8.454 9.439 13.095 14.674 4.139 4.669 9.163 8.994 13.398 14.45 3.86 4.973 7.417 10.499 11.279 16.16 3.568 5.229 7.58 10.453 11.09 16.296 3.274 5.45 7.483 10.666 10.658 16.672 2.98 5.638 5.977 11.563 8.83 17.71 2.692 5.8 4.47 12.344 7.015 18.612.495 9.087-1.679 6.81-4.324 17.764-1.226 5.077-2.219 11.15-3.688 17.82-1.215 5.519-4.199 11.141-5.452 17.451-1.137 5.729-2.507 11.706-3.583 17.873-1.024 5.868-.966 12.071-1.857 18.155-.877 5.986-2.681 11.922-3.357 17.948-.685 6.098.743 12.357.338 18.324-.422 6.216-1.269 12.254-1.306 18.136-.04 6.358.457 12.407.969 18.135.584 6.526.772 13.284 2.22 18.649-9.649-2.631-8.557-5.53-17.293-10.398-8.739-4.87-9.324-3.821-18.063-8.69-8.737-4.868-8.58-5.149-17.317-10.018-8.743-4.872-8.441-5.412-17.184-10.284-8.743-4.872-7.933-6.426-17.63-8.903-8.667-2.213 3.88 4.912 8.815 14.653 2.343 4.624 5.392 9.905 8.277 15.889 2.442 5.064 3.575 11.191 6.163 16.874 2.418 5.308 5.077 10.693 7.434 16.267 2.333 5.515 5.503 10.724 7.601 16.239 2.187 5.75 4.462 11.367 6.199 16.832 1.938 6.097 2.153 12.278 3.269 17.637 1.42 6.824 3.071 12.739 2.649 17.62-.638 7.376-4.008 10.971-10.49 11.511-6.349.528-12.564 1.21-18.689 1.68-6.357.488-12.485 2.428-18.606 2.855-6.365.444-12.707-.727-18.822-.347-6.377.397-12.574 1.453-18.684 1.784-6.391.346-12.676-.258-18.78.019-6.404.29-12.558 2.863-18.654 3.081-6.417.229-12.713-1.046-18.797-.893-6.434.162-12.679.384-18.751.466-6.453.087-12.7.224-18.756.227-6.474.003-12.711-.803-18.746-.89-6.498-.093-12.725-.402-18.732-.59-6.528-.204-12.796.425-18.767.122-6.566-.334-12.768-1.119-18.69-1.558-6.615-.49-12.859-.673-18.712-1.274-6.678-.685-12.941-.901-18.689-1.698-6.774-.939-12.684-3.318-18.268-4.363-6.946-1.299-13.499-.487-18.79-1.855-7.372-1.906-13.115-4.509-17.756-6.304-12.867-4.975-14.499-.17-15.76-9.452-1.197-8.81.851-8.808 1.093-17.695.241-8.886.315-8.884.556-17.77.241-8.886-2.038-8.948-1.797-17.834.242-8.886.787-8.871 1.029-17.757.242-8.888 1.76-8.847 2.001-17.736.242-8.892.441-8.886.682-17.778.242-8.889-2.013-8.95-1.771-17.839.242-8.895.267-8.894.508-17.789s2.246-8.879 1.681-17.759c-.597-9.379-1.846-7.303-6.268-17.725-2.14-5.043-6.19-10.14-9.461-16.242-2.803-5.229-4.181-11.782-7.857-17.174-3.453-5.065-8.515-9.145-12.772-13.869-4.169-4.626-8.214-9.66-13.185-13.512-9.436-1.588-10.637 2.547-18.665-4.193-3.868-3.247-7.66-9.061-9.4-17.13-1.098-5.091.278-11.761.87-19.459 2.716 10.882-.73 14.55 2.151 22.577 2.538 7.072 7.783 9.197 13.892-6.688 2.924-8.537.927-6.805 3.353-17.765 1.116-5.04 2.815-10.905 4.202-17.552 1.142-5.468 1.353-11.6 2.585-17.88 1.11-5.66 2.11-11.608 3.229-17.734 1.056-5.784 4.033-11.393 5.042-17.435.983-5.881 2.338-11.8 3.228-17.782.889-5.971.915-12.085 1.663-18.015a622.168 622.168 0 0 0 1.999-17.95c.598-6.176-.161-12.287.161-18.081.352-6.333 1.003-12.331.952-17.989-.06-6.599.052-12.671-.671-18.015-.972-7.181-3.151-12.648-5.581-16.795-3.526-4.383-3.946-4.464-10.033 2.493 4.294-4.907 5.28-5.282 13.409-2.723 5.12 1.611 10.843 3.469 15.393 7.284 4.548 3.814 8.747 8.212 12.454 11.806 3.197 3.1 8.64 6.912 16.351 10.244 5.38 2.325 11.636 4.54 18.337 6.835 5.928 2.03 12.157 4.242 18.587 6.162 6.243 1.864 12.863 2.7 19.115 4.384 6.531 1.759 12.94 3.311 18.971 4.79 7.008 1.718 13.324 3.912 18.898 5.127 11.989 2.62 20.585 3.437 19.983 2.749z" style="fill:#f8bf66"/><path fill="#2E3744" d="M516.536 736.959c-2.786 0-5.708-.065-8.317-1.515-8.186-4.548-10.271-14.619-5.724-22.805 3.043-5.477 6.293-10.759 9.153-16.129 2.946-5.533 4.593-11.647 7.35-17.065 2.846-5.592 4.802-11.503 7.453-16.969 2.74-5.65 7.328-10.312 9.868-15.825 2.629-5.707 5.302-11.3 7.724-16.858 2.514-5.77 4.592-11.623 6.893-17.229 2.392-5.83 4.269-11.748 6.44-17.399 2.262-5.888 4.96-11.493 6.994-17.182 2.126-5.949 3.841-11.911 5.731-17.637 1.983-6.011 3.562-12.002 5.299-17.764 1.832-6.074 3.985-11.898 5.561-17.689 1.67-6.139 1.148-12.641 2.552-18.456 1.5-6.212 3.526-12.057 4.747-17.89 1.315-6.283 4.254-12.014 5.277-17.846 1.117-6.37 1.514-12.592 2.324-18.411.9-6.468.895-12.692 1.471-18.462.698-6.989.674-13.665 1.018-19.962.388-7.112.247-13.752.276-19.958.034-7.305.933-13.982.617-19.994-.407-7.74-1.969-14.294-2.653-19.816-1.583-12.774-1.737-19.876-1.78-20.028-2.564-8.981 1.933-16.925 10.902-19.526 8.965-2.601 17.517 1.482 20.155 10.44.341 1.156 2.037 7.183 3.706 17.939.786 5.063 1.837 11.102 2.456 18.203.482 5.52.793 11.636 1.017 18.356.19 5.705-.267 11.816-.355 18.367-.078 5.8-.399 11.887-.758 18.339-.326 5.85-.721 11.934-1.323 18.311-.555 5.873-1.147 11.946-1.973 18.259-.768 5.878-1.502 11.944-2.533 18.197-.968 5.869-.651 12.159-1.875 18.355-1.156 5.854-3.514 11.63-4.918 17.772-1.333 5.831-1.66 12.07-3.233 18.157-1.499 5.801-4.416 11.365-6.148 17.395-1.656 5.768-1.898 12.105-3.78 18.081-1.805 5.732-3.58 11.634-5.604 17.555-1.947 5.695-5.093 11.104-7.252 16.971-2.079 5.651-4.124 11.436-6.41 17.245-2.206 5.608-4.669 11.229-7.076 16.983-2.328 5.568-3.946 11.561-6.468 17.265-2.443 5.523-6.766 10.296-9.398 15.944-2.553 5.479-4.88 11.15-7.617 16.746-2.657 5.432-3.94 11.653-6.775 17.194-2.757 5.389-6.545 10.343-9.476 15.834-2.852 5.343-6.416 10.383-9.438 15.822-3.099 5.576-8.141 8.685-14.1 8.685zm352.231 56.553c-7.485 0-15.475-4.01-17.508-11.581-1.622-6.042-1.619-12.539-3.114-18.664-1.484-6.084-2.424-12.303-3.788-18.452-1.358-6.12-3.371-12.107-4.614-18.274-1.24-6.153-3.157-12.188-4.288-18.37-1.131-6.181-.738-12.626-1.764-18.82-1.028-6.207-3.552-12.169-4.48-18.372-.932-6.23-.941-12.58-1.777-18.788-.842-6.251-3.177-12.297-3.926-18.508-.756-6.27-.013-12.688-.68-18.9-.675-6.293-.399-12.636-.988-18.85-.598-6.306-2.382-12.452-2.897-18.657-.524-6.325-.331-12.643-.774-18.842-.453-6.344-.252-12.648-.626-18.838-.385-6.363-1.928-12.567-2.237-18.743-.319-6.387.339-12.705.094-18.866-.255-6.413-1.196-12.665-1.378-18.802-.191-6.446.687-12.751.565-18.859-.129-6.49-2.394-12.745-2.455-18.811-.066-6.55.839-12.851.838-18.856-.001-6.643 1.001-12.927 1.06-18.834.068-6.813-1.661-13.141-1.542-18.871.15-7.217 1.789-13.493 1.966-18.793.358-10.746 1.194-17.284 1.276-18.767.517-9.353 7.569-17.163 16.882-16.684 9.351.52 17.665 9.215 17.149 18.568-.021.382-.456 6.876-.805 18.324-.157 5.16-1.609 11.283-1.739 18.33-.103 5.584-1.138 11.719-1.192 18.361-.047 5.757 1.575 11.899 1.586 18.373.009 5.853.583 11.974.654 18.356.065 5.914.132 12.035.261 18.359.122 5.956-1.149 12.117-.961 18.399.179 5.986 2.065 12.049 2.312 18.3.238 6.005-.717 12.174-.409 18.396.298 6.023.6 12.142.971 18.343.361 6.037-.189 12.218.246 18.401.426 6.047 2.935 12.003 3.438 18.168.493 6.051 1.06 12.137 1.632 18.28.564 6.057.342 12.228.988 18.357.639 6.062 2.259 12.038 2.984 18.15.719 6.063.953 12.199 1.76 18.294.803 6.061.859 12.238 1.754 18.312.893 6.056 2.074 12.076 3.063 18.128.989 6.05 2.961 11.921 4.05 17.948 1.092 6.039.925 12.303 2.122 18.301 1.203 6.026 3.122 11.885 4.437 17.852 1.323 6.007 1.982 12.146 3.423 18.074 1.455 5.985 3.594 11.764 5.174 17.649 2.428 9.047-3.134 19.031-12.179 21.459-1.472.399-3.11-.68-4.564-.68z"/><path fill="#6F7170" d="M943.62 502.716c1.869 3.43 4.578 9.082 8.315 16.243 2.472 4.738 6.641 9.506 9.687 15.556 2.551 5.066 5.198 10.601 8.026 16.423 2.544 5.234 5.099 10.798 7.78 16.527 2.505 5.355 5.297 10.811 7.852 16.506 2.447 5.454 2.592 12.056 5.023 17.741 2.37 5.541 5.98 10.637 8.28 16.324 2.276 5.628 4.926 11.154 7.08 16.855 2.16 5.716 2.882 11.942 4.866 17.661 2.016 5.814 5.032 11.24 6.811 16.983 1.834 5.922 3.961 11.686 5.481 17.453 1.595 6.051 3.434 11.949 4.615 17.738 1.265 6.201 1.13 12.458 1.834 18.246.006.053 1.178-.146 1.189-.094 1.2 5.695.557 11.861 1.024 17.837.458 5.868 1.669 11.835 1.377 17.758-.292 5.936-1.755 11.812-2.841 17.588-1.106 5.885-1.957 11.882-3.932 17.376-1.968 5.477-5.238 10.885-8.738 16.148-3.303 4.967-8.06 8.975-12.413 13.35-4.298 4.319-8.353 8.98-13.38 12.346-5.149 3.447-11.034 5.235-16.637 7.283-5.843 2.135-11.539 3.416-17.527 3.582-5.935.165-11.696-.18-17.236-2.503-5.283-2.216-10.202-5.606-15.081-9.18-4.745-3.477-9.243-7.401-13.566-11.34-4.562-4.157-9.938-7.196-13.984-10.939-4.617-4.272-9.145-8.722-13.561-13.204-4.412-4.478-7.024-10.668-11.246-15.337-4.215-4.662-9.248-8.598-13.283-13.43-4.029-4.824-8.595-9.248-12.454-14.222-3.853-4.966-6.739-10.681-10.432-15.777-3.689-5.091-7.789-9.903-11.329-15.105-3.539-5.2-6.726-10.643-10.125-15.935-3.402-5.295-6.496-10.778-9.768-16.145-3.278-5.377-6.47-10.794-9.627-16.225-3.167-5.448-7.052-10.481-10.107-15.963-3.071-5.509-6.23-10.966-9.198-16.489-.019-.035.012-.044-.009-.078-5.625-9.087-5.2-9.35-10.825-18.437-5.625-9.087-4.709-9.654-10.335-18.741-.051-.082-.63.142-.692.068-.66-.792-5.826-5.683-11.825-13.816-3.165-4.291-6.396-9.616-10.066-15.145-3.21-4.834-6.814-9.858-9.925-15.24-3.033-5.248-4.352-11.449-6.866-16.868-2.653-5.718-6.858-10.684-8.452-16.197-1.833-6.338-2.578-12.599-2.31-18.09-.954-9.541-1.977-10.332 9.763 10.543 1.149 2.043 4.668.581 4.25-1.725-1.108-6.11-1.049-13.215-.758-19.578.108-2.369 2.205-2.579 2.82-.289 1.632 6.078 5.924 12.835 9.398 18.032 1.193 1.786 3.663 1.329 3.422-.805-.622-5.52-1.458-14.257-.499-25.211.201-2.294 2.388-2.498 3.034-.288 1.336 4.577 3.908 9.853 6.113 15.064 2.309 5.455 4.52 11.003 7.631 14.356 1.133 1.221 3.777.414 4.178-1.203.784-3.16 2.252-8.323 3.236-14.364.741-4.553 1.516-9.638 1.767-14.652.116-2.301 2.411-2.671 3.11-.476 1.482 4.654 3.35 10.21 4.769 16.291 1.248 5.349 1.889 11.091 2.555 16.769.118 1.005 1.403 1.881 2.414 1.921 3.219.126 10.517-.469 16.748-7.286 1.451-1.588 4.875-.258 4.401 1.84-1.852 8.204-4.289 18.45-5.601 23.308-.17.63-.71.821-.307 1.334 1.483 1.888 4.451 7.823 10.362 14.998 3.33 4.042 8.066 8.085 12.482 13.262 3.658 4.288 7.487 9.042 11.745 13.862 3.85 4.359 8.837 8.052 13.076 12.673 4.003 4.364 7.262 9.634 11.527 14.089 4.153 4.337 9.144 7.951 13.468 12.245 4.311 4.28 8.771 8.378 13.178 12.487 4.495 4.191 8.744 8.517 13.259 12.396 4.726 4.06 8.373 9.25 13.033 12.818 5.035 3.854 10.572 6.655 15.419 9.747 1.465.934 2.739-.244 2.576-1.974-.367-3.902-.24-10.481-.521-19.081-.181-5.534-1.323-11.95-1.223-19.07.082-5.88 2.25-12.188 2.643-18.974.349-6.024.434-12.379 1.108-19 .619-6.086.638-12.493 1.593-18.994.898-6.11 1.459-12.497 2.704-18.899 1.186-6.1 3.571-12.106 5.116-18.407 1.486-6.062 2.104-12.505 3.96-18.698 1.797-5.997 4.429-11.859 6.607-17.928.607-1.686 3.118-1.796 3.974-.225z" style="fill:gray"/><path fill="#367575" d="M682.494 805.473c1.392 5.671 2.03 11.546 1.968 17.423-.058 5.937-.912 11.662-1.477 17.345-.767 5.765-1.591 11.524-2.676 17.228-1.351 5.966-4.1 11.029-6.348 16.402.438-5.861 2.299-11.518 2.862-16.978.364-5.755.984-11.455 1.664-17.149.672-5.799 1.708-11.487 2.462-17.076.714-5.653 1.07-11.354 1.545-17.195zm-159.068 8.95c2.381-.857 4.896-1.425 7.041-2.377 2.104-.874 3.837-2.487 5.82-4.025 3.912-3.203 7.974-5.931 11.439-9.221 3.582-3.193 6.598-6.815 9.316-10.859 2.715-4.036 5.118-8.352 7.617-12.77-.716 5.029-2.278 9.929-4.561 14.541-1.103 2.33-2.508 4.519-4.046 6.65-1.587 2.082-3.377 4.003-5.275 5.778a60.519 60.519 0 0 1-6.097 4.763c-2.172 1.402-4.204 2.72-6.38 4.004-2.116 1.261-4.453 2.727-7.188 3.254-2.656.447-5.136.38-7.686.262zm325.996 10.311c-2.536.118-4.992.201-7.644-.245-2.736-.556-5.023-2.048-7.114-3.298-4.205-2.631-8.431-5.024-12.562-8.265-1.993-1.657-3.906-3.492-5.543-5.575-1.602-2.139-2.961-4.335-4.035-6.668a49.628 49.628 0 0 1-4.382-14.496c2.489 4.388 4.814 8.728 7.46 12.763 2.647 4.082 5.59 7.539 9.348 10.461 1.81 1.527 3.789 2.896 5.802 4.337 2.001 1.483 4.04 2.972 5.938 4.566 1.974 1.543 3.682 3.18 5.74 4.063 2.118.944 4.63 1.501 6.992 2.357z"/><path fill="#2E3744" d="M177.938 806.608c-.062-.269-1.387-.248-1.458-.514-1.712 6.497-3.384 12.973-4.571 19.505-1.197 6.589-2.097 13.22-2.775 19.845-.679 6.642-1.542 13.307-1.715 19.984-.172 6.655.516 13.347.831 20.038.313 6.634.604 13.318 1.381 19.986.767 6.584 1.1 13.324 2.305 19.941 1.186 6.511 3.819 12.754 5.415 19.297 3.11 5.39 6.936 10.383 10.378 15.786 3.356 5.267 5.887 11.163 9.569 16.38 3.611 5.117 7.447 10.155 11.382 15.165 3.876 4.935 7.135 10.496 11.335 15.27 4.15 4.718 9.886 8.027 14.361 12.534 4.43 4.463 8.585 9.227 13.342 13.431 4.712 4.164 8.756 9.254 13.798 13.114 4.991 3.821 10.439 7.191 15.761 10.664 5.257 3.431 11.096 6.052 16.685 9.096.243-3.718-.07-7.509.337-11.23.825-7.554 1.582-15.184 2.822-22.715 1.235-7.503 2.462-14.492 4.103-21.941-5.144-3.559-8.755-8.001-13.536-11.988-4.802-4.003-10.534-7.025-14.979-11.384-4.466-4.38-7.012-10.575-11.126-15.24-4.145-4.699-9.647-8.241-13.445-13.152-3.844-4.969-6.241-10.955-9.739-16.061-3.564-5.202-7.371-10.152-10.587-15.413-3.305-5.406-7.148-10.414-10.097-15.791-3.068-5.595-4.665-11.81-7.36-17.272a463.724 463.724 0 0 1-7.908-16.921c-2.652-5.968-7.011-10.932-9.208-16.435-2.484-6.221-3.025-12.736-4.954-18.151-2.381-6.686-4.146-12.714-5.728-17.789-3.381-10.838-4.51-17.578-4.619-18.039zm38.087-84.881c-2.41 3.631-4.421 6.937-6.636 10.58.767 5.793-.515 11.903.539 18.188.979 5.835 3.603 11.595 4.867 17.769 1.197 5.847 2.004 11.943 3.489 18.022 1.424 5.83 3.168 11.709 4.884 17.69 1.663 5.794 3.281 11.709 5.243 17.588 1.915 5.738 3.833 11.57 6.056 17.336 2.182 5.659 4.693 11.262 7.193 16.898 2.464 5.555 4.879 11.204 7.672 16.69 2.761 5.422 5.366 11.016 8.47 16.325 3.073 5.256 7.79 9.518 11.219 14.619 3.397 5.054 5.181 11.332 8.945 16.191 3.728 4.812 7.747 9.548 11.855 14.126 4.061 4.527 8.401 8.971 12.85 13.23 4.386 4.198 9.701 7.022 14.482 10.921 2.072-5.743 3.221-11.55 5.551-17.19 2.332-5.644 5.395-11.014 7.984-16.539 2.592-5.53 5.885-10.742 8.734-16.137-4.374-4.231-7.56-9.493-11.487-14.083-3.949-4.617-9.311-8.094-12.832-13.011-3.535-4.937-6.964-10.021-10.093-15.197-3.143-5.201-5.699-10.774-8.457-16.15-2.777-5.416-4.956-11.111-7.368-16.639-2.44-5.593-5.688-10.856-7.781-16.495-2.13-5.74-3.205-11.818-5.003-17.534-1.846-5.869-3.251-11.781-4.777-17.547-1.583-5.983-2.112-12.074-3.384-17.859-1.34-6.097-4.703-11.623-5.736-17.4-1.112-6.221-1.872-12.295-2.676-18.021-.898-6.394-1.725-12.461-2.304-18.067-.694-6.723-.944-12.87-1.289-18.178-.521-8.012.053-14.287-.014-18.192-5.195 4.681-10.569 9.228-15.345 14.335-4.775 5.107-8.698 10.974-13.03 16.463-4.33 5.488-7.955 11.443-11.821 17.268zm175.173 111.324c-3.477-5.028-5.707-10.169-8.712-15.458-3.018-5.311-6.331-10.488-8.907-16.001-2.587-5.538-4.194-11.493-6.367-17.172-2.188-5.716-4.091-11.493-5.894-17.288-1.823-5.859-2.914-11.855-4.378-17.729-1.488-5.973-4.277-11.6-5.431-17.52-1.183-6.07-.606-12.354-1.476-18.293-.903-6.157-3.859-11.952-4.47-17.887-.642-6.24-.023-12.452-.392-18.352-.396-6.335-.309-12.456-.453-18.283-.16-6.471-1.468-12.598-1.398-18.286.082-6.74.701-11.788.971-17.177-6.181 2.082-11.759 3.113-17.743 5.628-6.019 2.529-11.35 6.439-17.127 9.385-5.822 2.969-11.011 5.77-16.544 9.14-.011 5.894-1.983 11.571-1.767 18.093.198 5.983 2.694 12.093 3.137 18.512.416 6.031-.441 12.343.236 18.684.647 6.054.969 12.31 1.891 18.581.891 6.055 3.047 12.013 4.229 18.214 1.15 6.035 2.588 12.072 4.046 18.192 1.428 5.994 2.148 12.237 3.9 18.262 1.724 5.929 2.786 12.169 4.853 18.08 2.04 5.837 5.692 11.133 8.092 16.908 2.376 5.716 4.134 11.761 6.89 17.371 2.729 5.558 6.663 10.512 9.79 15.924 3.096 5.36 5.874 10.939 9.385 16.114 3.472 5.118 7.158 9.559 11.059 14.455 3.347-5.019 6.997-9.259 10.595-14.095 3.6-4.838 6.694-10.091 10.546-14.73 3.847-4.637 7.338-8.848 11.439-13.272zm45.912-223.955c-5.833-.208-11.242-.349-17.097-.135-5.834.214-11.815-.897-17.639-.281-5.809.615-10.946 3.109-16.713 4.107.013 6.158-1.687 12.301-1.423 19.11.242 6.253.82 12.787 1.333 19.489.483 6.302.899 12.847 1.67 19.462.737 6.323 2.575 12.673 3.618 19.211 1.008 6.318 3.627 12.433 4.958 18.888 1.297 6.289 2.595 12.61 4.233 18.97 1.607 6.237 3.129 12.518 5.098 18.767 1.939 6.155 2.151 12.982 4.473 19.096 2.294 6.042 6.448 11.383 9.145 17.333 2.67 5.89 5.557 11.519 8.651 17.27 1.093-.87 2.195-.672 3.301-1.528 4.28-3.313 8.58-6.526 13.002-9.628 4.426-3.104 9.003-5.934 13.53-8.888 4.526-2.953 7.732-6.854 12.318-9.719-2.787-5.532-4.576-10.971-6.927-16.671-2.365-5.733-3.386-11.918-5.344-17.756-1.977-5.892-4.601-11.521-6.199-17.451-1.622-6.019-2.391-12.168-3.662-18.156-1.299-6.124-4.592-11.817-5.563-17.833-1.003-6.215-.981-12.51-1.678-18.529-.729-6.299-1.343-12.48-1.787-18.47-.473-6.395-1.118-12.593-1.326-18.523-.226-6.519.013-12.328.028-18.135z"/><path fill="#FFF" d="M233.846 79.478c5.424-7.297 9.916-1.006 18.929-2.201 9.014-1.195 9.09-.627 18.104-1.822 9.016-1.196 9.098-.578 18.113-1.773 9.014-1.195 8.78-2.962 17.794-4.157 9.013-1.195 9.097-.561 18.11-1.757 9.013-1.195 8.994-1.334 18.007-2.529 9.013-1.195 9.103-.518 18.116-1.714 9.015-1.196 8.872-2.278 17.887-3.473 9.018-1.196 9.086-.687 18.104-1.883 9.016-1.196 9.222.361 18.238-.835 9.022-1.197 8.995-1.401 18.016-2.598 9.022-1.197 9.289-6.274 18.168-4.276 9.124 2.054-1.027 7.69-.061 19.795.415 5.208 2.798 11.29 3.426 18.476.492 5.637 1.347 11.827 1.981 18.594.544 5.81-.334 12.164.322 18.754.587 5.904.652 12.174 1.333 18.667.625 5.959 1.556 12.135 2.263 18.562.66 5.998 2.874 12.025 3.609 18.409.694 6.028 1.129 12.254 1.892 18.606.727 6.049.283 12.39 1.075 18.718.759 6.063 2.031 12.192 2.85 18.496.79 6.072 1.665 12.246 2.513 18.53.821 6.084 2.935 12.088 3.812 18.358.852 6.09-.061 12.521.846 18.776.883 6.096 2.768 12.126 3.704 18.369.915 6.099.899 12.413 1.865 18.644.947 6.103 2.243 12.22 3.24 18.441.979 6.105 2.965 13.123 3.993 19.334-8.388 4.76-9.849 1.618-19.292 3.58-9.445 1.962-9.404 2.156-18.849 4.118-9.443 1.961-9.656.934-19.099 2.895-9.442 1.961-9.334 2.48-18.776 4.441-9.442 1.961-9.45 1.919-18.892 3.88-9.442 1.961-9.673.848-19.115 2.809-9.444 1.962-9.526 1.568-18.971 3.529-9.448 1.962-9.035 3.951-18.482 5.913-9.445 1.962-9.582 1.3-19.027 3.262-9.451 1.963-9.697.781-19.148 2.744s-11.238 11.309-19.259 5.939c-7.691-5.148.079-10.159-1.224-19.321-1.304-9.165-.817-9.234-2.122-18.4-1.304-9.163-2.38-9.01-3.683-18.173-1.304-9.165-1.527-9.134-2.831-18.299-1.304-9.167-1.464-9.144-2.769-18.311-1.304-9.165.12-9.368-1.184-18.534-1.304-9.166-3.21-8.895-4.514-18.06-1.304-9.167.21-9.382-1.094-18.549-1.305-9.168-2.996-8.927-4.301-18.096-1.304-9.167.648-9.444-.657-18.611-1.304-9.165-1.45-9.145-2.754-18.31s-1.987-9.068-3.291-18.234c-1.304-9.166-1.01-9.207-2.315-18.373-1.305-9.168-1.111-9.196-2.415-18.363-1.305-9.171-1.318-9.169-2.623-18.34-1.305-9.168-1.343-9.163-2.647-18.331-1.305-9.174-.481-9.411-3.856-18.042-3.772-9.649-8.587-11.836-3.059-19.274z" style="fill:#fff"/><path fill="#062148" d="m288.28 157.201-.461-2.568c4.271-.766 6.286-1.474 8.419-2.224 2.136-.75 4.345-1.526 8.82-2.33 4.397-.788 6.65-1.098 8.828-1.397 2.154-.297 4.381-.603 8.731-1.384 4.435-.796 6.727-.985 8.945-1.169 2.256-.187 4.387-.363 8.699-1.137a236.575 236.575 0 0 0 8.689-1.703c2.183-.464 4.369-.93 8.759-1.718 4.297-.77 6.339-1.405 8.499-2.075 2.141-.663 4.356-1.351 8.811-2.151 4.434-.796 6.724-.994 8.939-1.185 2.257-.196 4.388-.38 8.704-1.155 4.286-.769 6.314-1.443 8.461-2.157 2.14-.712 4.354-1.448 8.823-2.249 4.375-.785 6.561-1.187 8.748-1.588 2.189-.401 4.377-.803 8.757-1.59l.461 2.568c-4.375.785-6.561 1.187-8.748 1.588-2.189.401-4.377.803-8.757 1.59-4.286.769-6.314 1.443-8.461 2.157-2.14.712-4.354 1.447-8.823 2.249-4.434.796-6.724.994-8.94 1.185-2.256.196-4.387.38-8.703 1.155-4.296.771-6.338 1.405-8.498 2.075-2.141.665-4.356 1.351-8.812 2.151-4.35.781-6.515 1.242-8.678 1.701-2.188.465-4.372.931-8.771 1.72-4.435.796-6.727.985-8.945 1.169-2.256.187-4.387.363-8.699 1.137-4.403.79-6.657 1.101-8.837 1.399-2.152.297-4.378.602-8.722 1.381-4.269.766-6.284 1.475-8.417 2.224-2.135.752-4.344 1.528-8.821 2.331zm4.338 30.99-.461-2.568c4.263-.765 6.27-1.496 8.395-2.268 2.135-.778 4.344-1.581 8.828-2.386 4.322-.776 6.391-1.322 8.581-1.899 2.143-.566 4.36-1.151 8.786-1.945 4.463-.801 6.788-.891 9.037-.978 2.259-.087 4.393-.17 8.677-.938 4.457-.801 6.774-.918 9.015-1.032 2.259-.114 4.392-.223 8.684-.994 4.235-.76 6.211-1.588 8.303-2.465 2.131-.892 4.333-1.815 8.851-2.627a305.85 305.85 0 0 0 8.707-1.673c2.183-.447 4.369-.895 8.754-1.682 4.472-.803 6.806-.873 9.062-.942 2.262-.069 4.399-.134 8.682-.902 4.306-.774 6.356-1.379 8.527-2.022 2.143-.634 4.36-1.289 8.811-2.088l.461 2.568c-4.309.774-6.36 1.379-8.532 2.022-2.142.634-4.359 1.289-8.806 2.088-4.472.803-6.807.873-9.063.942-2.262.069-4.398.134-8.681.902a306.561 306.561 0 0 0-8.691 1.671c-2.189.448-4.374.895-8.77 1.684-4.235.76-6.211 1.588-8.303 2.465-2.131.892-4.333 1.815-8.851 2.627-4.456.8-6.772.917-9.013 1.031-2.259.115-4.392.223-8.686.995-4.463.801-6.788.891-9.037.978-2.259.087-4.393.17-8.677.938-4.322.776-6.391 1.322-8.581 1.899-2.143.566-4.36 1.151-8.786 1.945-4.264.765-6.271 1.496-8.397 2.268-2.135.778-4.343 1.581-8.826 2.386zm4.089 29.596-.461-2.568a378.898 378.898 0 0 1 8.789-1.486c2.188-.348 4.376-.695 8.736-1.478 4.286-.769 6.317-1.429 8.467-2.127 2.139-.694 4.351-1.412 8.812-2.213 4.424-.795 6.705-1.02 8.911-1.238 2.155-.213 4.384-.434 8.707-1.21a254.529 254.529 0 0 1 8.812-1.444c2.189-.326 4.378-.651 8.733-1.433 4.446-.798 6.751-.957 8.98-1.111 2.258-.155 4.391-.302 8.697-1.075 4.313-.774 6.371-1.355 8.549-1.972 2.143-.606 4.359-1.232 8.796-2.028 4.471-.802 6.803-.879 9.058-.954 2.261-.075 4.397-.146 8.682-.915l17.508-3.16.461 2.568-17.508 3.16c-4.47.802-6.803.879-9.057.954-2.262.075-4.398.146-8.683.915-4.311.774-6.369 1.355-8.548 1.971-2.142.606-4.359 1.233-8.797 2.029-4.446.798-6.75.957-8.978 1.111-2.259.155-4.391.302-8.698 1.075a254.529 254.529 0 0 1-8.812 1.444c-2.189.326-4.378.651-8.733 1.433-4.424.795-6.706 1.02-8.911 1.238-2.156.213-4.384.434-8.707 1.21-4.286.769-6.317 1.429-8.467 2.127-2.139.694-4.351 1.412-8.812 2.213a378.898 378.898 0 0 1-8.789 1.486c-2.188.348-4.377.695-8.737 1.478zm4.563 32.241-.461-2.568c4.371-.784 6.554-1.187 8.738-1.589 2.186-.402 4.373-.805 8.749-1.591a720.32 720.32 0 0 0 8.725-1.614c2.185-.417 4.372-.834 8.752-1.62 4.223-.758 6.19-1.611 8.272-2.515 2.128-.922 4.328-1.877 8.852-2.689 4.541-.815 6.957-.619 9.295-.427 2.269.187 4.413.364 8.62-.393 4.348-.78 6.539-1.276 8.66-1.756 2.148-.485 4.37-.987 8.774-1.779 4.395-.788 6.645-1.107 8.821-1.416 2.154-.305 4.381-.621 8.736-1.402 4.235-.76 6.209-1.594 8.3-2.478 2.131-.9 4.334-1.831 8.855-2.642l17.515-3.125.461 2.568-17.515 3.125c-4.235.76-6.209 1.594-8.3 2.478-2.131.9-4.334 1.831-8.855 2.642-4.402.79-6.654 1.109-8.832 1.418-2.153.305-4.378.621-8.726 1.4-4.348.78-6.539 1.276-8.66 1.756-2.148.485-4.37.987-8.774 1.779-4.542.814-6.958.615-9.294.426-2.269-.188-4.414-.362-8.621.394-4.225.758-6.192 1.611-8.275 2.515-2.127.922-4.327 1.876-8.849 2.689a720.32 720.32 0 0 0-8.725 1.614c-2.185.417-4.372.834-8.752 1.62-4.371.784-6.554 1.187-8.738 1.589-2.186.402-4.372.805-8.748 1.591zm4.162 30.003-.461-2.568a202.385 202.385 0 0 1 8.82-1.41c2.154-.303 4.381-.616 8.733-1.397 4.36-.783 6.531-1.22 8.703-1.658 2.185-.44 4.371-.882 8.757-1.669 4.423-.793 6.703-1.024 8.907-1.247 2.155-.217 4.384-.442 8.708-1.219 4.37-.784 6.551-1.194 8.732-1.605a929.18 929.18 0 0 1 8.753-1.608c4.334-.778 6.51-1.323 8.614-1.849 2.147-.537 4.366-1.092 8.785-1.886 4.346-.78 6.534-1.286 8.651-1.776 2.146-.497 4.366-1.01 8.77-1.802 4.415-.792 6.684-1.059 8.879-1.315 2.157-.254 4.388-.515 8.728-1.294 4.35-.781 6.545-1.271 8.667-1.746 2.149-.48 4.372-.978 8.777-1.768l.461 2.568a179.05 179.05 0 0 0-8.669 1.746c-2.149.481-4.371.978-8.775 1.768-4.419.793-6.689 1.06-8.885 1.318-2.156.253-4.385.514-8.722 1.292-4.34.779-6.528 1.285-8.643 1.775-2.148.498-4.369 1.011-8.778 1.803-4.332.778-6.508 1.322-8.612 1.849-2.147.537-4.367 1.092-8.787 1.886-4.37.784-6.551 1.194-8.732 1.605a929.18 929.18 0 0 1-8.753 1.608c-4.423.793-6.703 1.024-8.907 1.247-2.155.217-4.384.442-8.708 1.219-4.36.783-6.531 1.22-8.703 1.658-2.185.44-4.371.882-8.757 1.669a201.09 201.09 0 0 1-8.831 1.412c-2.151.302-4.376.615-8.722 1.394z"/><g fill="#EA5050"><circle cx="320.724" cy="362.664" r="26.122"/><path d="m338.185 376.28 26.42 54.35-17.759-10.87-4.349 15.653-19.581-55.655z"/><path d="m307.755 378.649-8.828 59.783 13.662-15.713 8.859 13.617 1.915-58.968z"/></g><path fill="#6F7170" d="M392.881 60.926s2.694 19.889-10.35 20.541l-4.403-23.703 13.915-4.951.838 8.113zm-23.426 1.898s2.694 19.889-10.35 20.541l-4.403-23.702 13.915-4.951.838 8.112zm-23.426 1.897s2.694 19.889-10.35 20.541l-4.402-23.702 13.915-4.951.837 8.112z" style="fill:gray"/><ellipse fill="#F2CAB6" cx="807.862" cy="265.062" rx="17.341" ry="11.633"/><ellipse fill="#F2CAB6" cx="663.97" cy="265.993" rx="17.341" ry="11.633"/><path fill="#A3E2E2" d="M676.964 1044.921c5.591-5.712 7.658 1.578 15.607 2.42 7.949.841 8.138-.947 16.087-.106s7.872 1.572 15.821 2.414c7.951.842 7.954.814 15.905 1.656 7.954.842 7.823 2.075 15.777 2.917 7.951.842 8.152-1.05 16.103-.209 7.957.842 7.92 1.186 15.877 2.028 7.957.842 11.601-4.631 15.439 2.39 3.814 6.976-4.099 6.382-7.729 13.455s1.019 11.522-5.922 15.399c-6.812 3.805-8.188-1.791-15.958-2.496-7.771-.705-7.727-1.19-15.497-1.895-7.773-.705-7.814-.251-15.586-.956-7.775-.705-7.856.186-15.631-.52-7.773-.705-7.67-1.837-15.443-2.542-7.778-.706-7.855.144-15.633-.561s-9.611 3.427-15.156-2.073c-5.701-5.655 1.031-8.234-1.678-15.794-2.898-8.086-8-9.788-2.383-15.527zm-162.374-14.712c5.591-5.712 7.658 1.578 15.607 2.42s8.138-.947 16.087-.106 7.872 1.572 15.821 2.414c7.951.842 7.954.814 15.905 1.656 7.954.842 7.823 2.075 15.777 2.917 7.951.842 8.152-1.05 16.103-.209 7.957.842 7.92 1.186 15.877 2.028 7.957.842 11.601-4.631 15.439 2.39 3.814 6.976-4.099 6.382-7.729 13.455s1.019 11.522-5.922 15.399c-6.812 3.805-8.188-1.791-15.958-2.496-7.771-.705-7.727-1.19-15.497-1.895-7.773-.705-7.814-.251-15.586-.956-7.775-.705-7.856.186-15.631-.52-7.773-.705-7.67-1.837-15.443-2.542-7.778-.706-7.855.144-15.633-.561-7.778-.706-9.611 3.427-15.156-2.073-5.701-5.655 1.031-8.234-1.678-15.794-2.899-8.086-8-9.788-2.383-15.527z"/><path fill="#2E3744" d="M727.698 268.57c4.132-1.588 10.167-2.782 16.843-.438 6.379 2.239 10.818 6.513 6.643 11.086-2.08 2.279-7.141 8.377-11.991 10.233 0 0-8.277-1.659-14.118-11.383-2.191-3.65-1.001-8.105 2.623-9.498z"/><path fill="#062148" d="M766.673 310.129c-6.419 5.322-12.583 3.49-12.887 3.395l.566-1.805-.283.903.28-.904c.308.094 7.618 2.197 14.232-6.298l1.493 1.162c-1.121 1.439-2.265 2.605-3.401 3.547z"/></svg>